{
.appVersion = "1247";
copyright = "Copyright (c) 2010 by Anton Koovit. All rights reserved.";
customParameters = (
{
name = glyphOrder;
value = (
_0153,
.notdef,
A,
B,
C,
D,
E,
F,
G,
H,
I,
J,
K,
L,
M,
N,
O,
P,
Q,
R,
S,
T,
U,
V,
W,
X,
Y,
Z,
space,
underscore,
a,
b,
c,
d,
e,
f,
g,
h,
i,
j,
k,
l,
m,
n,
o,
p,
q,
r,
s,
t,
u,
v,
w,
x,
y,
z,
comma,
hyphen,
period,
zero,
one,
two,
three,
four,
five,
six,
seven,
eight,
nine,
exclam,
percent,
ampersand,
quotesingle,
quotedbl,
parenleft,
parenright,
asterisk,
plus,
slash,
at,
bracketleft,
backslash,
bracketright,
bullet,
paragraph,
germandbls,
registered,
copyright,
guillemotleft,
guillemotright,
period_period_period,
endash,
emdash,
quotedblleft,
quotedblright,
quoteleft,
quoteright,
guilsinglleft,
guilsinglright,
plusminus,
minus,
numbersign,
less,
equal,
greater,
question,
dollar,
braceleft,
bar,
braceright,
asciitilde,
sterling,
cent,
multiply,
colon,
semicolon,
circumflex,
tilde,
macron,
breve,
cedilla,
hungarumlaut,
ogonek,
caron,
degree,
grave,
acute,
dieresis,
ring,
dotaccent,
dotlessi,
AE,
ae,
thorn,
Thorn,
onesuperior,
twosuperior,
threesuperior,
ordmasculine,
ordfeminine,
currency,
logicalnot,
mu,
periodcentered,
exclamdown,
questiondown,
asciicircum,
brokenbar,
fraction,
onequarter,
onehalf,
threequarters,
Oslash,
oslash,
Eth,
eth,
Agrave,
Aacute,
Acircumflex,
Atilde,
Adieresis,
Aring,
Egrave,
Eacute,
Edieresis,
Ecircumflex,
Ccedilla,
Ccaron,
Igrave,
Iacute,
Icircumflex,
Idieresis,
Ntilde,
Ograve,
Oacute,
Ocircumflex,
Otilde,
Odieresis,
Uacute,
Ucircumflex,
Udieresis,
Yacute,
agrave,
aacute,
acircumflex,
atilde,
adieresis,
aring,
egrave,
eacute,
edieresis,
ecircumflex,
ccedilla,
ccaron,
igrave,
iacute,
icircumflex,
idieresis,
ntilde,
ograve,
oacute,
ocircumflex,
otilde,
odieresis,
uacute,
ucircumflex,
udieresis,
yacute,
Ugrave,
ugrave,
Ydieresis,
ydieresis,
yen,
section,
CR,
_0156,
divisionslash,
m.b,
twoinferior,
fourinferior,
divide,
scaron,
zcaron,
Scaron,
Zcaron
);
},
{
name = license;

glyphs = (
{
color = (153,249,255,255);
glyphname = .notdef;
layers = (
{
associatedMasterId = "f6e6aac4-f32e-46b3-99a1-e6d41dab8022";
layerId = "087800cf-c0cd-4c6e-bb98-b375108ebc92";
name = img;
width = 0;
},
{
layerId = "608d70f7-2164-4884-8595-c4dfe8e6ed08";
paths = (
{
closed = 1;
nodes = (
"143 0 LINE",
"1077 0 LINE",
"1427 1516 LINE",
"494 1516 LINE"
);
},
{
closed = 1;
nodes = (
"575 1413 LINE",
"1300 1413 LINE",
"1194 952 OFFCURVE",
"1100 559 OFFCURVE",
"995 102 CURVE",
"270 102 LINE"
);
}
);
width = 1223;
},
{
layerId = "f6e6aac4-f32e-46b3-99a1-e6d41dab8022";
paths = (
{
closed = 1;
nodes = (
"123 0 LINE",
"1057 0 LINE",
"1407 1516 LINE",
"473 1516 LINE"
);
},
{
closed = 1;
nodes = (
"555 1413 LINE",
"1280 1413 LINE",
"1174 952 OFFCURVE",
"1079 559 OFFCURVE",
"975 102 CURVE",
"250 102 LINE"
);
}
);
width = 1305;
}
);
},
{
color = (153,188,255,255);
glyphname = A;
layers = (
{
anchors = (
{
name = top;
position = "{977, 1516}";
}
);
associatedMasterId = "f6e6aac4-f32e-46b3-99a1-e6d41dab8022";
layerId = "087800cf-c0cd-4c6e-bb98-b375108ebc92";
name = img;
width = 0;
},
{
anchors = (
{
name = top;
position = "{940, 1516}";
}
);
layerId = "608d70f7-2164-4884-8595-c4dfe8e6ed08";
paths = (
{
closed = 1;
nodes = (
"880 0 LINE",
"1372 0 LINE",
"1411 172 LINE",
"1261 172 LINE",
"1103 1516 LINE",
"780 1516 LINE",
"20 172 LINE",
"-111 172 LINE",
"-150 0 LINE",
"342 0 LINE",
"380 172 LINE",
"244 172 LINE",
"435 514 LINE",
"1009 514 LINE",
"1046 172 LINE",
"919 172 LINE"
);
},
{
closed = 1;
nodes = (
"915 1374 LINE",
"990 686 LINE",
"531 686 LINE"
);
}
);
width = 1458;
},
{
anchors = (
{
name = top;
position = "{977, 1516}";
}
);
layerId = "f6e6aac4-f32e-46b3-99a1-e6d41dab8022";
paths = (
{
closed = 1;
nodes = (
"844 0 LINE",
"1456 0 LINE",
"1520 274 LINE",
"1328 274 LINE",
"1214 1516 LINE",
"778 1516 LINE",
"89 274 LINE",
"-39 274 LINE",
"-102 0 LINE",
"510 0 LINE",
"573 274 LINE",
"446 274 LINE",
"557 483 LINE",
"975 483 LINE",
"991 274 LINE",
"907 274 LINE"
);
},
{
closed = 1;
nodes = (
"924 1174 LINE",
"954 772 LINE",
"711 772 LINE"
);
}
);
width = 1479;
}
);
unicode = 0041;
},
{
color = (153,188,255,255);
glyphname = B;
layers = (
{
anchors = (
{
name = top;
position = "{700, 1434}";
}
);
associatedMasterId = "f6e6aac4-f32e-46b3-99a1-e6d41dab8022";
layerId = "087800cf-c0cd-4c6e-bb98-b375108ebc92";
name = img;
width = 0;
},
{
anchors = (
{
name = top;
position = "{632, 1434}";
}
);
layerId = "608d70f7-2164-4884-8595-c4dfe8e6ed08";
paths = (
{
closed = 1;
nodes = (
"75 0 LINE",
"763 0 LINE SMOOTH",
"1064 0 OFFCURVE",
"1306 184 OFFCURVE",
"1306 465 CURVE SMOOTH",
"1306 587 OFFCURVE",
"1256 689 OFFCURVE",
"1169 753 CURVE",
"1344 821 OFFCURVE",
"1445 962 OFFCURVE",
"1445 1151 CURVE SMOOTH",
"1445 1364 OFFCURVE",
"1316 1516 OFFCURVE",
"1089 1516 CURVE SMOOTH",
"411 1516 LINE",
"370 1343 LINE",
"518 1343 LINE",
"248 172 LINE",
"114 172 LINE"
);
},
{
closed = 1;
nodes = (
"909 674 LINE",
"1017 674 OFFCURVE",
"1089 584 OFFCURVE",
"1089 449 CURVE SMOOTH",
"1089 293 OFFCURVE",
"972 172 OFFCURVE",
"792 172 CURVE SMOOTH",
"457 172 LINE",
"572 674 LINE"
);
},
{
closed = 1;
nodes = (
"1048 1343 LINE",
"1169 1343 OFFCURVE",
"1228 1245 OFFCURVE",
"1228 1120 CURVE SMOOTH",
"1228 958 OFFCURVE",
"1101 848 OFFCURVE",
"942 848 CURVE SMOOTH",
"612 848 LINE",
"725 1343 LINE"
);
}
);
width = 1452;
},
{
anchors = (
{
name = top;
position = "{700, 1434}";
}
);
layerId = "f6e6aac4-f32e-46b3-99a1-e6d41dab8022";
paths = (
{
closed = 1;
nodes = (
"61 0 LINE",
"860 0 LINE SMOOTH",
"1210 0 OFFCURVE",
"1434 166 OFFCURVE",
"1434 496 CURVE SMOOTH",
"1434 596 OFFCURVE",
"1394 683 OFFCURVE",
"1317 747 CURVE",
"1493 830 OFFCURVE",
"1556 978 OFFCURVE",
"1556 1133 CURVE SMOOTH",
"1556 1352 OFFCURVE",
"1415 1516 OFFCURVE",
"1159 1516 CURVE SMOOTH",
"393 1516 LINE",
"330 1241 LINE",
"502 1241 LINE",
"278 274 LINE",
"125 274 LINE"
);
},
{
closed = 1;
nodes = (
"956 627 LINE",
"1047 627 OFFCURVE",
"1094 567 OFFCURVE",
"1094 489 CURVE SMOOTH",
"1094 362 OFFCURVE",
"1016 274 OFFCURVE",
"877 274 CURVE SMOOTH",
"628 274 LINE",
"710 627 LINE"
);
},
{
closed = 1;
nodes = (
"1073 1241 LINE",
"1169 1241 OFFCURVE",
"1219 1174 OFFCURVE",
"1219 1094 CURVE SMOOTH",
"1219 977 OFFCURVE",
"1126 901 OFFCURVE",
"1006 901 CURVE SMOOTH",
"774 901 LINE",
"853 1241 LINE"
);
}
);
width = 1516;
}
);
unicode = 0042;
},
{
color = (153,188,255,255);
glyphname = C;
layers = (
{
anchors = (
{
name = bottom;
position = "{688, 0}";
},
{
name = top;
position = "{1013, 1516}";
}
);
associatedMasterId = "f6e6aac4-f32e-46b3-99a1-e6d41dab8022";
layerId = "087800cf-c0cd-4c6e-bb98-b375108ebc92";
name = img;
width = 0;
},
{
anchors = (
{
name = bottom;
position = "{641, 0}";
},
{
name = top;
position = "{955, 1516}";
}
);
layerId = "608d70f7-2164-4884-8595-c4dfe8e6ed08";
paths = (
{
closed = 1;
nodes = (
"1202 424 LINE",
"1087 258 OFFCURVE",
"935 174 OFFCURVE",
"735 174 CURVE SMOOTH",
"505 174 OFFCURVE",
"299 365 OFFCURVE",
"299 672 CURVE SMOOTH",
"299 1040 OFFCURVE",
"559 1346 OFFCURVE",
"911 1346 CURVE SMOOTH",
"1095 1346 OFFCURVE",
"1234 1251 OFFCURVE",
"1292 1114 CURVE",
"1568 1114 LINE",
"1609 1286 LINE",
"1453 1286 LINE",
"1341 1446 OFFCURVE",
"1158 1544 OFFCURVE",
"933 1544 CURVE SMOOTH",
"440 1544 OFFCURVE",
"75 1157 OFFCURVE",
"75 655 CURVE SMOOTH",
"75 266 OFFCURVE",
"348 -25 OFFCURVE",
"712 -25 CURVE SMOOTH",
"1017 -25 OFFCURVE",
"1239 104 OFFCURVE",
"1394 322 CURVE"
);
}
);
width = 1468;
},
{
anchors = (
{
name = bottom;
position = "{688, 0}";
},
{
name = top;
position = "{1013, 1516}";
}
);
layerId = "f6e6aac4-f32e-46b3-99a1-e6d41dab8022";
paths = (
{
closed = 1;
nodes = (
"1096 500 LINE",
"1022 391 OFFCURVE",
"913 305 OFFCURVE",
"766 305 CURVE SMOOTH",
"582 305 OFFCURVE",
"465 442 OFFCURVE",
"465 641 CURVE SMOOTH",
"465 936 OFFCURVE",
"698 1208 OFFCURVE",
"971 1208 CURVE SMOOTH",
"1100 1208 OFFCURVE",
"1190 1145 OFFCURVE",
"1225 1055 CURVE",
"1614 1055 LINE",
"1677 1329 LINE",
"1487 1329 LINE",
"1386 1461 OFFCURVE",
"1229 1544 OFFCURVE",
"1014 1544 CURVE SMOOTH",
"559 1544 OFFCURVE",
"102 1176 OFFCURVE",
"102 608 CURVE SMOOTH",
"102 227 OFFCURVE",
"365 -31 OFFCURVE",
"727 -31 CURVE SMOOTH",
"1028 -31 OFFCURVE",
"1262 104 OFFCURVE",
"1413 342 CURVE"
);
}
);
width = 1493;
}
);
unicode = 0043;
},
{
color = (153,188,255,255);
glyphname = D;
layers = (
{
anchors = (
{
name = top;
position = "{725, 1434}";
}
);
associatedMasterId = "f6e6aac4-f32e-46b3-99a1-e6d41dab8022";
layerId = "087800cf-c0cd-4c6e-bb98-b375108ebc92";
name = img;
width = 0;
},
{
anchors = (
{
name = top;
position = "{624, 1434}";
}
);
layerId = "608d70f7-2164-4884-8595-c4dfe8e6ed08";
paths = (
{
closed = 1;
nodes = (
"385 1343 LINE",
"516 1343 LINE",
"246 172 LINE",
"114 172 LINE",
"75 0 LINE",
"653 0 LINE SMOOTH",
"1161 0 OFFCURVE",
"1554 350 OFFCURVE",
"1554 874 CURVE SMOOTH",
"1554 1227 OFFCURVE",
"1329 1516 OFFCURVE",
"974 1516 CURVE SMOOTH",
"425 1516 LINE"
);
},
{
closed = 1;
nodes = (
"948 1343 LINE",
"1183 1343 OFFCURVE",
"1335 1116 OFFCURVE",
"1335 858 CURVE SMOOTH",
"1335 444 OFFCURVE",
"1007 172 OFFCURVE",
"675 172 CURVE SMOOTH",
"455 172 LINE",
"723 1343 LINE"
);
}
);
width = 1561;
},
{
anchors = (
{
name = top;
position = "{725, 1434}";
}
);
layerId = "f6e6aac4-f32e-46b3-99a1-e6d41dab8022";
paths = (
{
closed = 1;
nodes = (
"348 1241 LINE",
"504 1241 LINE",
"280 274 LINE",
"125 274 LINE",
"61 0 LINE",
"692 0 LINE SMOOTH",
"1294 0 OFFCURVE",
"1647 395 OFFCURVE",
"1647 893 CURVE SMOOTH",
"1647 1288 OFFCURVE",
"1386 1516 OFFCURVE",
"1020 1516 CURVE SMOOTH",
"412 1516 LINE"
);
},
{
closed = 1;
nodes = (
"961 1241 LINE",
"1128 1241 OFFCURVE",
"1282 1143 OFFCURVE",
"1282 864 CURVE SMOOTH",
"1282 541 OFFCURVE",
"1028 274 OFFCURVE",
"737 274 CURVE SMOOTH",
"630 274 LINE",
"855 1241 LINE"
);
}
);
width = 1585;
}
);
unicode = 0044;
},
{
color = (153,188,255,255);
glyphname = E;
layers = (
{
anchors = (
{
name = top;
position = "{1070, 1516}";
}
);
associatedMasterId = "f6e6aac4-f32e-46b3-99a1-e6d41dab8022";
layerId = "087800cf-c0cd-4c6e-bb98-b375108ebc92";
name = img;
width = 0;
},
{
anchors = (
{
name = top;
position = "{938, 1516}";
}
);
guideLines = (
{
position = "{0, 893}";
},
{
angle = 90;
position = "{-58, 0}";
}
);
layerId = "608d70f7-2164-4884-8595-c4dfe8e6ed08";
paths = (
{
closed = 1;
nodes = (
"370 1343 LINE",
"518 1343 LINE",
"248 172 LINE",
"114 172 LINE",
"75 0 LINE",
"1161 0 LINE",
"1261 434 LINE",
"1052 434 LINE",
"991 172 LINE",
"457 172 LINE",
"575 686 LINE",
"1017 686 LINE",
"1060 858 LINE",
"614 858 LINE",
"725 1343 LINE",
"1265 1343 LINE",
"1204 1083 LINE",
"1411 1083 LINE",
"1511 1516 LINE",
"411 1516 LINE"
);
}
);
width = 1415;
},
{
anchors = (
{
name = top;
position = "{1070, 1516}";
}
);
guideLines = (
{
position = "{0, 893}";
},
{
angle = 90;
position = "{223, 0}";
}
);
layerId = "f6e6aac4-f32e-46b3-99a1-e6d41dab8022";
paths = (
{
closed = 1;
nodes = (
"330 1241 LINE",
"504 1241 LINE",
"280 274 LINE",
"125 274 LINE",
"61 0 LINE",
"1313 0 LINE",
"1438 543 LINE",
"1087 543 LINE",
"1026 274 LINE",
"630 274 LINE",
"712 625 LINE",
"1049 625 LINE",
"1116 915 LINE",
"779 915 LINE",
"855 1241 LINE",
"1276 1241 LINE",
"1221 999 LINE",
"1571 999 LINE",
"1690 1516 LINE",
"393 1516 LINE"
);
}
);
width = 1505;
}
);
unicode = 0045;
},
{
color = (153,188,255,255);
glyphname = F;
layers = (
{
anchors = (
{
name = top;
position = "{653, 1434}";
}
);
associatedMasterId = "f6e6aac4-f32e-46b3-99a1-e6d41dab8022";
layerId = "087800cf-c0cd-4c6e-bb98-b375108ebc92";
name = img;
width = 0;
},
{
anchors = (
{
name = top;
position = "{612, 1434}";
}
);
layerId = "608d70f7-2164-4884-8595-c4dfe8e6ed08";
paths = (
{
closed = 1;
nodes = (
"366 1343 LINE",
"514 1343 LINE",
"244 172 LINE",
"114 172 LINE",
"75 0 LINE",
"567 0 LINE",
"606 172 LINE",
"453 172 LINE",
"570 684 LINE",
"1093 684 LINE",
"1132 856 LINE",
"610 856 LINE",
"721 1343 LINE",
"1271 1343 LINE",
"1214 1087 LINE",
"1411 1087 LINE",
"1509 1516 LINE",
"407 1516 LINE"
);
}
);
width = 1331;
},
{
anchors = (
{
name = top;
position = "{653, 1434}";
}
);
layerId = "f6e6aac4-f32e-46b3-99a1-e6d41dab8022";
paths = (
{
closed = 1;
nodes = (
"285 1241 LINE",
"500 1241 LINE",
"276 274 LINE",
"125 274 LINE",
"61 0 LINE",
"737 0 LINE",
"801 274 LINE",
"626 274 LINE",
"702 602 LINE",
"1065 602 LINE",
"1133 893 LINE",
"770 893 LINE",
"851 1241 LINE",
"1241 1241 LINE",
"1186 999 LINE",
"1534 999 LINE",
"1653 1516 LINE",
"348 1516 LINE"
);
}
);
width = 1366;
}
);
unicode = 0046;
},
{
color = (153,188,255,255);
glyphname = G;
layers = (
{
anchors = (
{
name = top;
position = "{725, 1434}";
}
);
associatedMasterId = "f6e6aac4-f32e-46b3-99a1-e6d41dab8022";
layerId = "087800cf-c0cd-4c6e-bb98-b375108ebc92";
name = img;
width = 0;
},
{
anchors = (
{
name = top;
position = "{663, 1434}";
}
);
guideLines = (
{
angle = 90;
position = "{659, 0}";
}
);
layerId = "608d70f7-2164-4884-8595-c4dfe8e6ed08";
paths = (
{
closed = 1;
nodes = (
"1355 0 LINE",
"1519 725 LINE",
"876 725 LINE",
"835 549 LINE",
"1258 549 LINE",
"1167 314 OFFCURVE",
"978 174 OFFCURVE",
"735 174 CURVE SMOOTH",
"495 174 OFFCURVE",
"299 381 OFFCURVE",
"299 672 CURVE SMOOTH",
"299 1042 OFFCURVE",
"552 1346 OFFCURVE",
"911 1346 CURVE SMOOTH",
"1095 1346 OFFCURVE",
"1234 1251 OFFCURVE",
"1292 1114 CURVE",
"1568 1114 LINE",
"1609 1286 LINE",
"1453 1286 LINE",
"1367 1416 OFFCURVE",
"1187 1544 OFFCURVE",
"933 1544 CURVE SMOOTH",
"436 1544 OFFCURVE",
"75 1151 OFFCURVE",
"75 655 CURVE SMOOTH",
"75 274 OFFCURVE",
"346 -25 OFFCURVE",
"712 -25 CURVE SMOOTH",
"908 -25 OFFCURVE",
"1083 55 OFFCURVE",
"1205 222 CURVE",
"1155 0 LINE"
);
}
);
width = 1616;
},
{
anchors = (
{
name = top;
position = "{725, 1434}";
}
);
guideLines = (
{
angle = 90;
position = "{721, 0}";
}
);
layerId = "f6e6aac4-f32e-46b3-99a1-e6d41dab8022";
paths = (
{
closed = 1;
nodes = (
"1432 0 LINE",
"1620 809 LINE",
"915 809 LINE",
"852 535 LINE",
"1172 535 LINE",
"1114 398 OFFCURVE",
"951 295 OFFCURVE",
"784 295 CURVE SMOOTH",
"598 295 OFFCURVE",
"485 442 OFFCURVE",
"485 641 CURVE SMOOTH",
"485 936 OFFCURVE",
"719 1214 OFFCURVE",
"991 1214 CURVE SMOOTH",
"1122 1214 OFFCURVE",
"1214 1139 OFFCURVE",
"1249 1055 CURVE",
"1638 1055 LINE",
"1702 1329 LINE",
"1524 1329 LINE",
"1426 1456 OFFCURVE",
"1239 1544 OFFCURVE",
"1034 1544 CURVE SMOOTH",
"580 1544 OFFCURVE",
"123 1176 OFFCURVE",
"123 608 CURVE SMOOTH",
"123 227 OFFCURVE",
"389 -31 OFFCURVE",
"737 -31 CURVE SMOOTH",
"909 -31 OFFCURVE",
"1080 59 OFFCURVE",
"1186 227 CURVE",
"1133 0 LINE"
);
}
);
width = 1575;
}
);
unicode = 0047;
},
{
color = (153,188,255,255);
glyphname = H;
layers = (
{
anchors = (
{
name = top;
position = "{727, 1434}";
}
);
associatedMasterId = "f6e6aac4-f32e-46b3-99a1-e6d41dab8022";
layerId = "087800cf-c0cd-4c6e-bb98-b375108ebc92";
name = img;
width = 0;
},
{
anchors = (
{
name = top;
position = "{729, 1434}";
}
);
layerId = "608d70f7-2164-4884-8595-c4dfe8e6ed08";
paths = (
{
closed = 1;
nodes = (
"1435 1343 LINE",
"1583 1343 LINE",
"1478 885 LINE",
"620 885 LINE",
"725 1343 LINE",
"862 1343 LINE",
"903 1516 LINE",
"411 1516 LINE",
"370 1343 LINE",
"518 1343 LINE",
"248 172 LINE",
"114 172 LINE",
"75 0 LINE",
"567 0 LINE",
"606 172 LINE",
"457 172 LINE",
"582 717 LINE",
"1439 717 LINE",
"1313 172 LINE",
"1179 172 LINE",
"1140 0 LINE",
"1632 0 LINE",
"1671 172 LINE",
"1522 172 LINE",
"1790 1343 LINE",
"1927 1343 LINE",
"1968 1516 LINE",
"1476 1516 LINE"
);
}
);
width = 1933;
},
{
anchors = (
{
name = top;
position = "{727, 1434}";
}
);
layerId = "f6e6aac4-f32e-46b3-99a1-e6d41dab8022";
paths = (
{
closed = 1;
nodes = (
"1350 1241 LINE",
"1520 1241 LINE",
"1448 932 LINE",
"783 932 LINE",
"855 1241 LINE",
"1008 1241 LINE",
"1071 1516 LINE",
"395 1516 LINE",
"332 1241 LINE",
"504 1241 LINE",
"280 274 LINE",
"125 274 LINE",
"61 0 LINE",
"737 0 LINE",
"801 274 LINE",
"630 274 LINE",
"720 662 LINE",
"1386 662 LINE",
"1296 274 LINE",
"1145 274 LINE",
"1081 0 LINE",
"1757 0 LINE",
"1821 274 LINE",
"1646 274 LINE",
"1870 1241 LINE",
"2025 1241 LINE",
"2089 1516 LINE",
"1413 1516 LINE"
);
}
);
width = 1946;
}
);
unicode = 0048;
},
{
color = (153,188,255,255);
glyphname = I;
layers = (
{
anchors = (
{
name = top;
position = "{721, 1516}";
}
);
associatedMasterId = "f6e6aac4-f32e-46b3-99a1-e6d41dab8022";
layerId = "087800cf-c0cd-4c6e-bb98-b375108ebc92";
name = img;
width = 0;
},
{
anchors = (
{
name = top;
position = "{672, 1516}";
}
);
guideLines = (
{
angle = 90;
position = "{55, 0}";
},
{
angle = 90;
position = "{649, 0}";
},
{
angle = 90;
position = "{352, 0}";
}
);
layerId = "608d70f7-2164-4884-8595-c4dfe8e6ed08";
paths = (
{
closed = 1;
nodes = (
"385 1343 LINE",
"528 1343 LINE",
"258 172 LINE",
"114 172 LINE",
"75 0 LINE",
"567 0 LINE",
"606 172 LINE",
"467 172 LINE",
"735 1343 LINE",
"876 1343 LINE",
"917 1516 LINE",
"425 1516 LINE"
);
}
);
width = 883;
},
{
anchors = (
{
name = top;
position = "{721, 1516}";
}
);
guideLines = (
{
angle = 90;
position = "{96, 0}";
},
{
angle = 90;
position = "{690, 0}";
},
{
angle = 90;
position = "{393, 0}";
}
);
layerId = "f6e6aac4-f32e-46b3-99a1-e6d41dab8022";
paths = (
{
closed = 1;
nodes = (
"330 1241 LINE",
"504 1241 LINE",
"280 274 LINE",
"125 274 LINE",
"61 0 LINE",
"737 0 LINE",
"801 274 LINE",
"630 274 LINE",
"855 1241 LINE",
"1006 1241 LINE",
"1069 1516 LINE",
"393 1516 LINE"
);
}
);
width = 926;
}
);
unicode = 0049;
},
{
color = (153,188,255,255);
glyphname = J;
layers = (
{
anchors = (
{
name = top;
position = "{125, 1352}";
}
);
associatedMasterId = "f6e6aac4-f32e-46b3-99a1-e6d41dab8022";
layerId = "087800cf-c0cd-4c6e-bb98-b375108ebc92";
name = img;
width = 0;
},
{
anchors = (
{
name = top;
position = "{47, 1352}";
}
);
layerId = "608d70f7-2164-4884-8595-c4dfe8e6ed08";
paths = (
{
closed = 1;
nodes = (
"346 1343 LINE",
"496 1343 LINE",
"233 205 LINE",
"208 94 OFFCURVE",
"-78 -223 OFFCURVE",
"-78 -223 CURVE",
"90 -238 LINE",
"90 -238 OFFCURVE",
"399 55 OFFCURVE",
"425 172 CURVE",
"696 1343 LINE",
"837 1343 LINE",
"878 1516 LINE",
"387 1516 LINE"
);
}
);
width = 762;
},
{
anchors = (
{
name = top;
position = "{125, 1352}";
}
);
layerId = "f6e6aac4-f32e-46b3-99a1-e6d41dab8022";
paths = (
{
closed = 1;
nodes = (
"289 1241 LINE",
"468 1241 LINE",
"229 205 LINE",
"205 94 OFFCURVE",
"-82 -223 OFFCURVE",
"-82 -223 CURVE",
"199 -246 LINE",
"199 -246 OFFCURVE",
"543 55 OFFCURVE",
"569 172 CURVE",
"816 1241 LINE",
"965 1241 LINE",
"1028 1516 LINE",
"352 1516 LINE"
);
}
);
width = 782;
}
);
unicode = 004A;
},
{
color = (153,188,255,255);
glyphname = K;
layers = (
{
anchors = (
{
name = top;
position = "{750, 1434}";
}
);
associatedMasterId = "f6e6aac4-f32e-46b3-99a1-e6d41dab8022";
layerId = "087800cf-c0cd-4c6e-bb98-b375108ebc92";
name = img;
width = 0;
},
{
anchors = (
{
name = top;
position = "{718, 1434}";
}
);
guideLines = (
{
position = "{0, 172}";
},
{
angle = 90;
position = "{768, 0}";
},
{
angle = 90;
position = "{1390, 0}";
}
);
layerId = "608d70f7-2164-4884-8595-c4dfe8e6ed08";
paths = (
{
closed = 1;
nodes = (
"598 774 LINE",
"1067 172 LINE",
"1028 0 LINE",
"1435 0 LINE",
"1474 172 LINE",
"1316 172 LINE",
"848 754 LINE",
"1685 1343 LINE",
"1779 1343 LINE",
"1820 1516 LINE",
"1431 1516 LINE",
"1390 1343 LINE"
);
},
{
closed = 1;
nodes = (
"370 1343 LINE",
"518 1343 LINE",
"248 172 LINE",
"114 172 LINE",
"75 0 LINE",
"567 0 LINE",
"606 172 LINE",
"457 172 LINE",
"725 1343 LINE",
"862 1343 LINE",
"903 1516 LINE",
"411 1516 LINE"
);
}
);
width = 1642;
},
{
anchors = (
{
name = top;
position = "{750, 1434}";
}
);
guideLines = (
{
position = "{0, 172}";
},
{
angle = 90;
position = "{987, 0}";
},
{
angle = 90;
position = "{1421, 0}";
}
);
layerId = "f6e6aac4-f32e-46b3-99a1-e6d41dab8022";
paths = (
{
closed = 1;
nodes = (
"772 793 LINE",
"1149 274 LINE",
"1085 0 LINE",
"1649 0 LINE",
"1710 274 LINE",
"1563 274 LINE",
"1213 764 LINE",
"1855 1241 LINE",
"1989 1241 LINE",
"2052 1516 LINE",
"1434 1516 LINE",
"1370 1243 LINE"
);
},
{
closed = 1;
nodes = (
"330 1241 LINE",
"504 1241 LINE",
"280 274 LINE",
"125 274 LINE",
"61 0 LINE",
"737 0 LINE",
"801 274 LINE",
"630 274 LINE",
"855 1241 LINE",
"1006 1241 LINE",
"1069 1516 LINE",
"393 1516 LINE"
);
}
);
width = 1745;
}
);
unicode = 004B;
},
{
color = (153,188,255,255);
glyphname = L;
layers = (
{
anchors = (
{
name = top;
position = "{676, 1434}";
}
);
associatedMasterId = "f6e6aac4-f32e-46b3-99a1-e6d41dab8022";
layerId = "087800cf-c0cd-4c6e-bb98-b375108ebc92";
name = img;
width = 0;
},
{
anchors = (
{
name = top;
position = "{624, 1434}";
}
);
guideLines = (
{
angle = 90;
position = "{47, 0}";
}
);
layerId = "608d70f7-2164-4884-8595-c4dfe8e6ed08";
paths = (
{
closed = 1;
nodes = (
"370 1343 LINE",
"518 1343 LINE",
"248 172 LINE",
"114 172 LINE",
"75 0 LINE",
"1204 0 LINE",
"1308 449 LINE",
"1107 449 LINE",
"1060 252 LINE",
"1050 207 OFFCURVE",
"1019 172 OFFCURVE",
"962 172 CURVE SMOOTH",
"457 172 LINE",
"725 1343 LINE",
"862 1343 LINE",
"903 1516 LINE",
"411 1516 LINE"
);
}
);
width = 1376;
},
{
anchors = (
{
name = top;
position = "{676, 1434}";
}
);
guideLines = (
{
angle = 90;
position = "{98, 0}";
}
);
layerId = "f6e6aac4-f32e-46b3-99a1-e6d41dab8022";
paths = (
{
closed = 1;
nodes = (
"330 1241 LINE",
"502 1241 LINE",
"278 274 LINE",
"125 274 LINE",
"61 0 LINE",
"1272 0 LINE",
"1399 557 LINE",
"1061 557 LINE",
"1012 356 LINE",
"999 309 OFFCURVE",
"963 274 OFFCURVE",
"915 274 CURVE SMOOTH",
"628 274 LINE",
"853 1241 LINE",
"1006 1241 LINE",
"1069 1516 LINE",
"393 1516 LINE"
);
}
);
width = 1317;
}
);
unicode = 004C;
},
{
color = (153,188,255,255);
glyphname = M;
layers = (
{
anchors = (
{
name = top;
position = "{918, 1434}";
}
);
associatedMasterId = "f6e6aac4-f32e-46b3-99a1-e6d41dab8022";
layerId = "087800cf-c0cd-4c6e-bb98-b375108ebc92";
name = img;
width = 0;
},
{
anchors = (
{
name = top;
position = "{925, 1434}";
}
);
guideLines = (
{
position = "{0, 848}";
},
{
angle = 90;
position = "{-66, 0}";
},
{
angle = 90;
position = "{1837, 0}";
}
);
layerId = "608d70f7-2164-4884-8595-c4dfe8e6ed08";
paths = (
{
closed = 1;
nodes = (
"75 0 LINE",
"567 0 LINE",
"606 172 LINE",
"443 172 LINE",
"709 1323 LINE",
"911 0 LINE",
"1142 0 LINE",
"1942 1326 LINE",
"1676 172 LINE",
"1544 172 LINE",
"1505 0 LINE",
"1996 0 LINE",
"2035 172 LINE",
"1876 172 LINE",
"2146 1343 LINE",
"2283 1343 LINE",
"2324 1516 LINE",
"1851 1516 LINE",
"1067 215 LINE",
"870 1516 LINE",
"411 1516 LINE",
"370 1343 LINE",
"520 1343 LINE",
"250 172 LINE",
"114 172 LINE"
);
}
);
width = 2290;
},
{
anchors = (
{
name = top;
position = "{918, 1434}";
}
);
guideLines = (
{
position = "{0, 848}";
},
{
angle = 90;
position = "{86, 0}";
},
{
angle = 90;
position = "{1829, 0}";
}
);
layerId = "f6e6aac4-f32e-46b3-99a1-e6d41dab8022";
paths = (
{
closed = 1;
nodes = (
"51 0 LINE",
"664 0 LINE",
"727 274 LINE",
"583 274 LINE",
"782 1100 LINE",
"981 18 LINE",
"1282 18 LINE",
"1959 1088 LINE",
"1770 274 LINE",
"1655 274 LINE",
"1591 0 LINE",
"2204 0 LINE",
"2267 274 LINE",
"2118 274 LINE",
"2343 1241 LINE",
"2497 1241 LINE",
"2560 1516 LINE",
"1853 1516 LINE",
"1234 500 LINE",
"1053 1516 LINE",
"365 1516 LINE",
"301 1241 LINE",
"475 1241 LINE",
"251 274 LINE",
"115 274 LINE"
);
}
);
width = 2406;
}
);
unicode = 004D;
},
{
color = (153,188,255,255);
glyphname = N;
layers = (
{
anchors = (
{
name = top;
position = "{1161, 1516}";
}
);
associatedMasterId = "f6e6aac4-f32e-46b3-99a1-e6d41dab8022";
layerId = "087800cf-c0cd-4c6e-bb98-b375108ebc92";
name = img;
width = 0;
},
{
anchors = (
{
name = top;
position = "{1134, 1516}";
}
);
guideLines = (
{
position = "{0, 807}";
},
{
angle = 90;
position = "{20, 0}";
}
);
layerId = "608d70f7-2164-4884-8595-c4dfe8e6ed08";
paths = (
{
closed = 1;
nodes = (
"1331 1343 LINE",
"1479 1343 LINE",
"1233 270 LINE",
"825 1516 LINE",
"409 1516 LINE",
"368 1343 LINE",
"518 1343 LINE",
"247 172 LINE",
"114 172 LINE",
"75 0 LINE",
"567 0 LINE",
"606 172 LINE",
"454 172 LINE",
"703 1255 LINE",
"1116 0 LINE",
"1378 0 LINE",
"1686 1343 LINE",
"1822 1343 LINE",
"1861 1516 LINE",
"1370 1516 LINE"
);
}
);
width = 1786;
},
{
anchors = (
{
name = top;
position = "{1161, 1516}";
}
);
guideLines = (
{
position = "{0, 807}";
},
{
angle = 90;
position = "{127, 0}";
}
);
layerId = "f6e6aac4-f32e-46b3-99a1-e6d41dab8022";
paths = (
{
closed = 1;
nodes = (
"1294 1241 LINE",
"1427 1241 LINE",
"1273 580 LINE",
"899 1516 LINE",
"383 1516 LINE",
"319 1241 LINE",
"483 1241 LINE",
"260 274 LINE",
"125 274 LINE",
"61 0 LINE",
"674 0 LINE",
"737 274 LINE",
"608 274 LINE",
"761 935 LINE",
"1147 0 LINE",
"1491 0 LINE",
"1777 1241 LINE",
"1907 1241 LINE",
"1970 1516 LINE",
"1358 1516 LINE"
);
}
);
width = 1786;
}
);
unicode = 004E;
},
{
color = (153,188,255,255);
glyphname = O;
layers = (
{
anchors = (
{
name = top;
position = "{1025, 1516}";
}
);
associatedMasterId = "f6e6aac4-f32e-46b3-99a1-e6d41dab8022";
layerId = "087800cf-c0cd-4c6e-bb98-b375108ebc92";
name = img;
width = 0;
},
{
anchors = (
{
name = top;
position = "{943, 1516}";
}
);
guideLines = (
{
position = "{0, 764}";
},
{
angle = 90;
position = "{823, 0}";
}
);
layerId = "608d70f7-2164-4884-8595-c4dfe8e6ed08";
paths = (
{
closed = 1;
nodes = (
"1198 -31 OFFCURVE",
"1570 344 OFFCURVE",
"1570 881 CURVE SMOOTH",
"1570 1300 OFFCURVE",
"1275 1544 OFFCURVE",
"933 1544 CURVE SMOOTH",
"462 1544 OFFCURVE",
"75 1178 OFFCURVE",
"75 655 CURVE SMOOTH",
"75 240 OFFCURVE",
"370 -31 OFFCURVE",
"712 -31 CURVE SMOOTH"
);
},
{
closed = 1;
nodes = (
"481 172 OFFCURVE",
"299 387 OFFCURVE",
"299 672 CURVE SMOOTH",
"299 1059 OFFCURVE",
"581 1341 OFFCURVE",
"911 1341 CURVE SMOOTH",
"1165 1341 OFFCURVE",
"1347 1155 OFFCURVE",
"1347 864 CURVE SMOOTH",
"1347 473 OFFCURVE",
"1081 172 OFFCURVE",
"735 172 CURVE"
);
}
);
width = 1577;
},
{
anchors = (
{
name = top;
position = "{1025, 1516}";
}
);
guideLines = (
{
position = "{0, 768}";
},
{
angle = 90;
position = "{973, 0}";
}
);
layerId = "f6e6aac4-f32e-46b3-99a1-e6d41dab8022";
paths = (
{
closed = 1;
nodes = (
"1235 -31 OFFCURVE",
"1659 348 OFFCURVE",
"1659 903 CURVE SMOOTH",
"1659 1282 OFFCURVE",
"1413 1544 OFFCURVE",
"1034 1544 CURVE SMOOTH",
"580 1544 OFFCURVE",
"123 1176 OFFCURVE",
"123 608 CURVE SMOOTH",
"123 227 OFFCURVE",
"385 -31 OFFCURVE",
"748 -31 CURVE SMOOTH"
);
},
{
closed = 1;
nodes = (
"602 305 OFFCURVE",
"485 442 OFFCURVE",
"485 641 CURVE SMOOTH",
"485 936 OFFCURVE",
"719 1208 OFFCURVE",
"991 1208 CURVE SMOOTH",
"1178 1208 OFFCURVE",
"1292 1071 OFFCURVE",
"1292 872 CURVE SMOOTH",
"1292 575 OFFCURVE",
"1055 305 OFFCURVE",
"786 305 CURVE"
);
}
);
width = 1597;
}
);
unicode = 004F;
},
{
color = (153,188,255,255);
glyphname = P;
layers = (
{
associatedMasterId = "f6e6aac4-f32e-46b3-99a1-e6d41dab8022";
layerId = "087800cf-c0cd-4c6e-bb98-b375108ebc92";
name = img;
width = 0;
},
{
guideLines = (
{
angle = 90;
position = "{-3513, 0}";
}
);
layerId = "608d70f7-2164-4884-8595-c4dfe8e6ed08";
paths = (
{
closed = 1;
nodes = (
"368 1343 LINE",
"516 1343 LINE",
"246 172 LINE",
"114 172 LINE",
"75 0 LINE",
"567 0 LINE",
"606 172 LINE",
"455 172 LINE",
"566 657 LINE",
"813 657 LINE SMOOTH",
"1198 657 OFFCURVE",
"1409 862 OFFCURVE",
"1409 1137 CURVE SMOOTH",
"1409 1346 OFFCURVE",
"1249 1516 OFFCURVE",
"1017 1516 CURVE SMOOTH",
"409 1516 LINE"
);
},
{
closed = 1;
nodes = (
"960 1343 LINE",
"1126 1343 OFFCURVE",
"1198 1237 OFFCURVE",
"1198 1124 CURVE SMOOTH",
"1198 934 OFFCURVE",
"1052 829 OFFCURVE",
"835 829 CURVE SMOOTH",
"606 829 LINE",
"723 1343 LINE"
);
}
);
width = 1354;
},
{
guideLines = (
{
angle = 90;
position = "{-3484, 0}";
}
);
layerId = "f6e6aac4-f32e-46b3-99a1-e6d41dab8022";
paths = (
{
closed = 1;
nodes = (
"330 1241 LINE",
"504 1241 LINE",
"280 274 LINE",
"125 274 LINE",
"61 0 LINE",
"737 0 LINE",
"801 274 LINE",
"630 274 LINE",
"697 563 LINE",
"877 563 LINE SMOOTH",
"1360 563 OFFCURVE",
"1538 815 OFFCURVE",
"1538 1108 CURVE SMOOTH",
"1538 1337 OFFCURVE",
"1376 1516 OFFCURVE",
"1098 1516 CURVE SMOOTH",
"393 1516 LINE"
);
},
{
closed = 1;
nodes = (
"961 1241 LINE",
"1098 1241 OFFCURVE",
"1167 1176 OFFCURVE",
"1167 1075 CURVE SMOOTH",
"1167 911 OFFCURVE",
"1047 834 OFFCURVE",
"866 834 CURVE SMOOTH",
"760 834 LINE",
"855 1241 LINE"
);
}
);
width = 1354;
}
);
unicode = 0050;
},
{
color = (153,188,255,255);
glyphname = Q;
layers = (
{
anchors = (
{
name = top;
position = "{610, 1434}";
}
);
associatedMasterId = "f6e6aac4-f32e-46b3-99a1-e6d41dab8022";
layerId = "087800cf-c0cd-4c6e-bb98-b375108ebc92";
name = img;
width = 0;
},
{
anchors = (
{
name = top;
position = "{557, 1434}";
}
);
layerId = "608d70f7-2164-4884-8595-c4dfe8e6ed08";
paths = (
{
closed = 1;
nodes = (
"559 -203 LINE",
"571 -199 OFFCURVE",
"591 -195 OFFCURVE",
"610 -193 CURVE",
"761 -168 OFFCURVE",
"843 -326 OFFCURVE",
"1042 -326 CURVE SMOOTH",
"1169 -326 OFFCURVE",
"1339 -250 OFFCURVE",
"1406 -100 CURVE",
"1271 -31 LINE",
"1234 -109 OFFCURVE",
"1159 -147 OFFCURVE",
"1083 -147 CURVE",
"951 -147 OFFCURVE",
"896 -63 OFFCURVE",
"784 -28 CURVE",
"1234 7 OFFCURVE",
"1570 371 OFFCURVE",
"1570 881 CURVE SMOOTH",
"1570 1300 OFFCURVE",
"1275 1544 OFFCURVE",
"933 1544 CURVE SMOOTH",
"462 1544 OFFCURVE",
"75 1178 OFFCURVE",
"75 655 CURVE SMOOTH",
"75 285 OFFCURVE",
"309 30 OFFCURVE",
"601 -21 CURVE"
);
},
{
closed = 1;
nodes = (
"481 172 OFFCURVE",
"299 387 OFFCURVE",
"299 672 CURVE SMOOTH",
"299 1059 OFFCURVE",
"581 1341 OFFCURVE",
"911 1341 CURVE SMOOTH",
"1165 1341 OFFCURVE",
"1347 1155 OFFCURVE",
"1347 864 CURVE SMOOTH",
"1347 473 OFFCURVE",
"1081 172 OFFCURVE",
"735 172 CURVE SMOOTH"
);
}
);
width = 1559;
},
{
anchors = (
{
name = top;
position = "{610, 1434}";
}
);
layerId = "f6e6aac4-f32e-46b3-99a1-e6d41dab8022";
paths = (
{
closed = 1;
nodes = (
"561 -264 LINE",
"594 -254 OFFCURVE",
"614 -252 OFFCURVE",
"647 -252 CURVE SMOOTH",
"801 -252 OFFCURVE",
"915 -395 OFFCURVE",
"1067 -395 CURVE SMOOTH",
"1262 -395 OFFCURVE",
"1454 -268 OFFCURVE",
"1522 -74 CURVE",
"1323 37 LINE",
"1284 -66 OFFCURVE",
"1194 -106 OFFCURVE",
"1112 -106 CURVE",
"1024 -104 OFFCURVE",
"958 -53 OFFCURVE",
"881 -18 CURVE",
"1300 52 OFFCURVE",
"1638 407 OFFCURVE",
"1638 903 CURVE SMOOTH",
"1638 1282 OFFCURVE",
"1393 1544 OFFCURVE",
"1014 1544 CURVE SMOOTH",
"559 1544 OFFCURVE",
"102 1176 OFFCURVE",
"102 608 CURVE SMOOTH",
"102 266 OFFCURVE",
"314 23 OFFCURVE",
"619 -23 CURVE"
);
},
{
closed = 1;
nodes = (
"582 305 OFFCURVE",
"465 442 OFFCURVE",
"465 641 CURVE SMOOTH",
"465 936 OFFCURVE",
"698 1208 OFFCURVE",
"971 1208 CURVE SMOOTH",
"1157 1208 OFFCURVE",
"1272 1071 OFFCURVE",
"1272 872 CURVE SMOOTH",
"1272 575 OFFCURVE",
"1034 305 OFFCURVE",
"766 305 CURVE SMOOTH"
);
}
);
width = 1556;
}
);
unicode = 0051;
},
{
color = (153,188,255,255);
glyphname = R;
layers = (
{
anchors = (
{
name = top;
position = "{590, 1352}";
}
);
associatedMasterId = "f6e6aac4-f32e-46b3-99a1-e6d41dab8022";
layerId = "087800cf-c0cd-4c6e-bb98-b375108ebc92";
name = img;
width = 0;
},
{
anchors = (
{
name = top;
position = "{583, 1352}";
}
);
guideLines = (
{
angle = 90;
position = "{1140, 0}";
},
{
angle = 90;
position = "{14, 0}";
}
);
layerId = "608d70f7-2164-4884-8595-c4dfe8e6ed08";
paths = (
{
closed = 1;
nodes = (
"368 1343 LINE",
"518 1343 LINE",
"248 172 LINE",
"114 172 LINE",
"75 0 LINE",
"567 0 LINE",
"606 172 LINE",
"457 172 LINE",
"578 702 LINE",
"741 702 LINE SMOOTH",
"888 702 OFFCURVE",
"962 627 OFFCURVE",
"964 461 CURVE SMOOTH",
"970 0 LINE",
"1263 0 LINE",
"1302 172 LINE",
"1173 172 LINE",
"1167 520 LINE SMOOTH",
"1165 622 OFFCURVE",
"1124 700 OFFCURVE",
"1072 737 CURVE",
"1253 795 OFFCURVE",
"1411 944 OFFCURVE",
"1411 1161 CURVE SMOOTH",
"1411 1370 OFFCURVE",
"1257 1516 OFFCURVE",
"1026 1516 CURVE SMOOTH",
"409 1516 LINE"
);
},
{
closed = 1;
nodes = (
"960 1343 LINE",
"1126 1343 OFFCURVE",
"1200 1264 OFFCURVE",
"1200 1151 CURVE SMOOTH",
"1200 961 OFFCURVE",
"1054 870 OFFCURVE",
"854 870 CURVE SMOOTH",
"617 870 LINE",
"725 1343 LINE"
);
}
);
width = 1438;
},
{
anchors = (
{
name = top;
position = "{590, 1352}";
}
);
guideLines = (
{
angle = 90;
position = "{1147, 0}";
},
{
angle = 90;
position = "{20, 0}";
}
);
layerId = "f6e6aac4-f32e-46b3-99a1-e6d41dab8022";
paths = (
{
closed = 1;
nodes = (
"309 1241 LINE",
"484 1241 LINE",
"259 274 LINE",
"125 274 LINE",
"61 0 LINE",
"674 0 LINE",
"737 274 LINE",
"609 274 LINE",
"686 604 LINE",
"782 604 LINE SMOOTH",
"944 604 OFFCURVE",
"999 532 OFFCURVE",
"987 360 CURVE SMOOTH",
"963 0 LINE",
"1413 0 LINE",
"1477 274 LINE",
"1333 274 LINE",
"1327 492 LINE SMOOTH",
"1324 588 OFFCURVE",
"1295 652 OFFCURVE",
"1252 690 CURVE",
"1470 782 OFFCURVE",
"1565 916 OFFCURVE",
"1565 1128 CURVE SMOOTH",
"1565 1319 OFFCURVE",
"1448 1516 OFFCURVE",
"1180 1516 CURVE SMOOTH",
"373 1516 LINE"
);
},
{
closed = 1;
nodes = (
"1032 1241 LINE",
"1161 1241 OFFCURVE",
"1212 1180 OFFCURVE",
"1212 1085 CURVE SMOOTH",
"1212 940 OFFCURVE",
"1104 874 OFFCURVE",
"938 874 CURVE SMOOTH",
"748 874 LINE",
"834 1241 LINE"
);
}
);
width = 1483;
}
);
unicode = 0052;
},
{
color = (153,188,255,255);
glyphname = S;
layers = (
{
anchors = (
{
name = bottom;
position = "{584, 0}";
},
{
name = top;
position = "{867, 1516}";
}
);
associatedMasterId = "f6e6aac4-f32e-46b3-99a1-e6d41dab8022";
layerId = "087800cf-c0cd-4c6e-bb98-b375108ebc92";
name = img;
width = 0;
},
{
anchors = (
{
name = bottom;
position = "{501, 0}";
},
{
name = top;
position = "{859, 1516}";
}
);
layerId = "608d70f7-2164-4884-8595-c4dfe8e6ed08";
paths = (
{
closed = 1;
nodes = (
"1075 1118 LINE",
"1335 1118 LINE",
"1374 1278 LINE",
"1273 1278 LINE",
"1227 1433 OFFCURVE",
"1071 1538 OFFCURVE",
"845 1538 CURVE SMOOTH",
"485 1538 OFFCURVE",
"270 1331 OFFCURVE",
"270 1059 CURVE SMOOTH",
"270 883 OFFCURVE",
"366 770 OFFCURVE",
"546 713 CURVE",
"720 657 LINE",
"839 618 OFFCURVE",
"937 563 OFFCURVE",
"937 436 CURVE SMOOTH",
"937 270 OFFCURVE",
"792 152 OFFCURVE",
"593 152 CURVE SMOOTH",
"399 152 OFFCURVE",
"288 222 OFFCURVE",
"307 366 CURVE",
"325 440 LINE",
"53 440 LINE",
"14 281 LINE",
"109 281 LINE",
"127 117 OFFCURVE",
"243 -31 OFFCURVE",
"559 -31 CURVE SMOOTH",
"911 -31 OFFCURVE",
"1150 170 OFFCURVE",
"1150 467 CURVE SMOOTH",
"1150 653 OFFCURVE",
"1054 760 OFFCURVE",
"862 825 CURVE",
"675 893 LINE SMOOTH",
"587 924 OFFCURVE",
"475 948 OFFCURVE",
"475 1081 CURVE SMOOTH",
"475 1231 OFFCURVE",
"606 1358 OFFCURVE",
"827 1358 CURVE SMOOTH",
"980 1358 OFFCURVE",
"1110 1278 OFFCURVE",
"1079 1137 CURVE"
);
}
);
width = 1278;
},
{
anchors = (
{
name = bottom;
position = "{584, 0}";
},
{
name = top;
position = "{867, 1516}";
}
);
layerId = "f6e6aac4-f32e-46b3-99a1-e6d41dab8022";
paths = (
{
closed = 1;
nodes = (
"1022 1020 LINE",
"1384 1020 LINE",
"1444 1276 LINE",
"1329 1276 LINE",
"1309 1420 OFFCURVE",
"1137 1542 OFFCURVE",
"883 1542 CURVE SMOOTH",
"518 1542 OFFCURVE",
"260 1378 OFFCURVE",
"260 1049 CURVE SMOOTH",
"260 864 OFFCURVE",
"371 725 OFFCURVE",
"530 672 CURVE",
"702 612 LINE",
"795 582 OFFCURVE",
"874 547 OFFCURVE",
"874 459 CURVE SMOOTH",
"874 344 OFFCURVE",
"782 260 OFFCURVE",
"633 260 CURVE SMOOTH",
"475 260 OFFCURVE",
"408 337 OFFCURVE",
"426 456 CURVE",
"444 532 LINE",
"80 532 LINE",
"20 276 LINE",
"133 276 LINE",
"155 92 OFFCURVE",
"332 -25 OFFCURVE",
"586 -25 CURVE SMOOTH",
"963 -25 OFFCURVE",
"1235 172 OFFCURVE",
"1235 502 CURVE SMOOTH",
"1235 680 OFFCURVE",
"1159 807 OFFCURVE",
"989 868 CURVE",
"782 944 LINE SMOOTH",
"702 973 OFFCURVE",
"604 993 OFFCURVE",
"604 1096 CURVE SMOOTH",
"604 1214 OFFCURVE",
"715 1264 OFFCURVE",
"846 1264 CURVE SMOOTH",
"973 1264 OFFCURVE",
"1065 1190 OFFCURVE",
"1032 1063 CURVE"
);
}
);
width = 1268;
}
);
unicode = 0053;
},
{
color = (153,188,255,255);
glyphname = T;
layers = (
{
anchors = (
{
name = top;
position = "{606, 1434}";
}
);
associatedMasterId = "f6e6aac4-f32e-46b3-99a1-e6d41dab8022";
layerId = "087800cf-c0cd-4c6e-bb98-b375108ebc92";
name = img;
width = 0;
},
{
anchors = (
{
name = top;
position = "{557, 1434}";
}
);
layerId = "608d70f7-2164-4884-8595-c4dfe8e6ed08";
paths = (
{
closed = 1;
nodes = (
"311 0 LINE",
"802 0 LINE",
"841 172 LINE",
"699 172 LINE",
"969 1352 LINE",
"1337 1352 LINE",
"1284 1116 LINE",
"1488 1116 LINE",
"1581 1516 LINE",
"229 1516 LINE",
"137 1116 LINE",
"342 1116 LINE",
"395 1352 LINE",
"762 1352 LINE",
"490 172 LINE",
"350 172 LINE"
);
}
);
width = 1382;
},
{
anchors = (
{
name = top;
position = "{606, 1434}";
}
);
layerId = "f6e6aac4-f32e-46b3-99a1-e6d41dab8022";
paths = (
{
closed = 1;
nodes = (
"279 0 LINE",
"954 0 LINE",
"1018 274 LINE",
"849 274 LINE",
"1074 1241 LINE",
"1268 1241 LINE",
"1225 1055 LINE",
"1569 1055 LINE",
"1675 1516 LINE",
"250 1516 LINE",
"143 1055 LINE",
"487 1055 LINE",
"530 1241 LINE",
"724 1241 LINE",
"499 274 LINE",
"342 274 LINE"
);
}
);
width = 1368;
}
);
unicode = 0054;
},
{
color = (153,188,255,255);
glyphname = U;
layers = (
{
anchors = (
{
name = top;
position = "{1014, 1516}";
}
);
associatedMasterId = "f6e6aac4-f32e-46b3-99a1-e6d41dab8022";
layerId = "087800cf-c0cd-4c6e-bb98-b375108ebc92";
name = img;
width = 0;
},
{
anchors = (
{
name = top;
position = "{989, 1516}";
}
);
guideLines = (
{
position = "{0, 647}";
},
{
position = "{0, 422}";
},
{
angle = 90;
position = "{600, 0}";
},
{
angle = 90;
position = "{-181, 0}";
}
);
layerId = "608d70f7-2164-4884-8595-c4dfe8e6ed08";
paths = (
{
closed = 1;
nodes = (
"241 1343 LINE",
"385 1343 LINE",
"223 639 LINE",
"208 573 OFFCURVE",
"200 514 OFFCURVE",
"200 455 CURVE",
"194 152 OFFCURVE",
"413 -25 OFFCURVE",
"704 -25 CURVE SMOOTH",
"1034 -25 OFFCURVE",
"1275 164 OFFCURVE",
"1380 621 CURVE",
"1546 1343 LINE",
"1679 1343 LINE",
"1718 1516 LINE",
"1226 1516 LINE",
"1187 1343 LINE",
"1339 1343 LINE",
"1177 639 LINE SMOOTH",
"1097 293 OFFCURVE",
"944 176 OFFCURVE",
"722 176 CURVE SMOOTH",
"503 176 OFFCURVE",
"409 328 OFFCURVE",
"411 475 CURVE",
"411 541 OFFCURVE",
"421 592 OFFCURVE",
"432 639 CURVE SMOOTH",
"593 1343 LINE",
"733 1343 LINE",
"772 1516 LINE",
"280 1516 LINE"
);
}
);
width = 1581;
},
{
anchors = (
{
name = top;
position = "{1014, 1516}";
}
);
guideLines = (
{
position = "{0, 647}";
},
{
position = "{0, 422}";
},
{
angle = 90;
position = "{676, 0}";
},
{
angle = 90;
position = "{-104, 0}";
}
);
layerId = "f6e6aac4-f32e-46b3-99a1-e6d41dab8022";
paths = (
{
closed = 1;
nodes = (
"217 1241 LINE",
"367 1241 LINE",
"225 633 LINE",
"211 567 OFFCURVE",
"205 506 OFFCURVE",
"205 453 CURVE SMOOTH",
"205 152 OFFCURVE",
"420 -31 OFFCURVE",
"721 -31 CURVE SMOOTH",
"1087 -31 OFFCURVE",
"1315 145 OFFCURVE",
"1411 567 CURVE",
"1566 1241 LINE",
"1696 1241 LINE",
"1759 1516 LINE",
"1147 1516 LINE",
"1083 1241 LINE",
"1220 1241 LINE",
"1075 612 LINE SMOOTH",
"1018 367 OFFCURVE",
"926 285 OFFCURVE",
"772 285 CURVE SMOOTH",
"612 285 OFFCURVE",
"555 389 OFFCURVE",
"555 506 CURVE SMOOTH",
"555 541 OFFCURVE",
"559 575 OFFCURVE",
"567 612 CURVE SMOOTH",
"713 1241 LINE",
"829 1241 LINE",
"893 1516 LINE",
"281 1516 LINE"
);
}
);
width = 1534;
}
);
unicode = 0055;
},
{
color = (153,188,255,255);
glyphname = V;
layers = (
{
anchors = (
{
name = top;
position = "{625, 1434}";
}
);
associatedMasterId = "f6e6aac4-f32e-46b3-99a1-e6d41dab8022";
layerId = "087800cf-c0cd-4c6e-bb98-b375108ebc92";
name = img;
width = 0;
},
{
anchors = (
{
name = top;
position = "{618, 1434}";
}
);
layerId = "608d70f7-2164-4884-8595-c4dfe8e6ed08";
paths = (
{
closed = 1;
nodes = (
"1138 1343 LINE",
"1273 1343 LINE",
"628 174 LINE",
"529 1343 LINE",
"669 1343 LINE",
"708 1516 LINE",
"217 1516 LINE",
"178 1343 LINE",
"317 1343 LINE",
"446 0 LINE",
"751 0 LINE",
"1497 1343 LINE",
"1630 1343 LINE",
"1669 1516 LINE",
"1177 1516 LINE"
);
}
);
width = 1470;
},
{
anchors = (
{
name = top;
position = "{625, 1434}";
}
);
layerId = "f6e6aac4-f32e-46b3-99a1-e6d41dab8022";
paths = (
{
closed = 1;
nodes = (
"1051 1241 LINE",
"1168 1241 LINE",
"725 457 LINE",
"663 1241 LINE",
"776 1241 LINE",
"840 1516 LINE",
"227 1516 LINE",
"164 1241 LINE",
"319 1241 LINE",
"426 0 LINE",
"834 0 LINE",
"1543 1241 LINE",
"1663 1241 LINE",
"1726 1516 LINE",
"1114 1516 LINE"
);
}
);
width = 1399;
}
);
unicode = 0056;
},
{
color = (153,188,255,255);
glyphname = W;
layers = (
{
anchors = (
{
name = top;
position = "{1042, 1434}";
}
);
associatedMasterId = "f6e6aac4-f32e-46b3-99a1-e6d41dab8022";
layerId = "087800cf-c0cd-4c6e-bb98-b375108ebc92";
name = img;
width = 0;
},
{
anchors = (
{
name = top;
position = "{1069, 1434}";
}
);
layerId = "608d70f7-2164-4884-8595-c4dfe8e6ed08";
paths = (
{
closed = 1;
nodes = (
"1980 1343 LINE",
"2132 1343 LINE",
"1527 195 LINE",
"1478 1516 LINE",
"1265 1516 LINE",
"606 195 LINE",
"537 1343 LINE",
"669 1343 LINE",
"708 1516 LINE",
"217 1516 LINE",
"178 1343 LINE",
"332 1343 LINE",
"421 0 LINE",
"706 0 LINE",
"1292 1171 LINE",
"1345 0 LINE",
"1630 0 LINE",
"2333 1343 LINE",
"2471 1343 LINE",
"2510 1516 LINE",
"2019 1516 LINE"
);
}
);
width = 2271;
},
{
anchors = (
{
name = top;
position = "{1042, 1434}";
}
);
layerId = "f6e6aac4-f32e-46b3-99a1-e6d41dab8022";
paths = (
{
closed = 1;
nodes = (
"1851 1241 LINE",
"2008 1241 LINE",
"1591 416 LINE",
"1575 1516 LINE",
"1214 1516 LINE",
"684 412 LINE",
"645 1241 LINE",
"770 1241 LINE",
"834 1516 LINE",
"221 1516 LINE",
"158 1241 LINE",
"322 1241 LINE",
"391 0 LINE",
"801 0 LINE",
"1278 975 LINE",
"1286 0 LINE",
"1696 0 LINE",
"2345 1241 LINE",
"2464 1241 LINE",
"2527 1516 LINE",
"1915 1516 LINE"
);
}
);
width = 2046;
}
);
unicode = 0057;
},
{
color = (153,188,255,255);
glyphname = X;
layers = (
{
anchors = (
{
name = top;
position = "{737, 1434}";
}
);
associatedMasterId = "f6e6aac4-f32e-46b3-99a1-e6d41dab8022";
layerId = "087800cf-c0cd-4c6e-bb98-b375108ebc92";
name = img;
width = 0;
},
{
anchors = (
{
name = top;
position = "{569, 1434}";
}
);
guideLines = (
{
position = "{0, 723}";
},
{
angle = 90;
position = "{651, 0}";
},
{
angle = 90;
position = "{1306, 0}";
},
{
angle = 90;
position = "{-39, 0}";
}
);
layerId = "608d70f7-2164-4884-8595-c4dfe8e6ed08";
paths = (
{
closed = 1;
nodes = (
"1071 1343 LINE",
"1204 1343 LINE",
"822 941 LINE",
"629 1343 LINE",
"759 1343 LINE",
"800 1516 LINE",
"309 1516 LINE",
"268 1343 LINE",
"414 1343 LINE",
"682 793 LINE",
"92 172 LINE",
"-29 172 LINE",
"-68 0 LINE",
"423 0 LINE",
"462 172 LINE",
"344 172 LINE",
"768 618 LINE",
"986 172 LINE",
"849 172 LINE",
"811 0 LINE",
"1302 0 LINE",
"1341 172 LINE",
"1191 172 LINE",
"907 764 LINE",
"1458 1343 LINE",
"1562 1343 LINE",
"1603 1516 LINE",
"1112 1516 LINE"
);
}
);
width = 1487;
},
{
anchors = (
{
name = top;
position = "{737, 1434}";
}
);
guideLines = (
{
position = "{0, 723}";
},
{
angle = 90;
position = "{655, 0}";
},
{
angle = 90;
position = "{1475, 0}";
},
{
angle = 90;
position = "{129, 0}";
}
);
layerId = "f6e6aac4-f32e-46b3-99a1-e6d41dab8022";
paths = (
{
closed = 1;
nodes = (
"1145 1241 LINE",
"1245 1241 LINE",
"973 1002 LINE",
"817 1241 LINE",
"934 1241 LINE",
"997 1516 LINE",
"322 1516 LINE",
"258 1241 LINE",
"431 1241 LINE",
"728 786 LINE",
"144 274 LINE",
"23 274 LINE",
"-41 0 LINE",
"635 0 LINE",
"698 274 LINE",
"597 274 LINE",
"892 534 LINE",
"1062 274 LINE",
"944 274 LINE",
"881 0 LINE",
"1556 0 LINE",
"1620 274 LINE",
"1450 274 LINE",
"1138 750 LINE",
"1696 1241 LINE",
"1821 1241 LINE",
"1884 1516 LINE",
"1208 1516 LINE"
);
}
);
width = 1618;
}
);
unicode = 0058;
},
{
color = (153,188,255,255);
glyphname = Y;
layers = (
{
anchors = (
{
name = top;
position = "{980, 1516}";
}
);
associatedMasterId = "f6e6aac4-f32e-46b3-99a1-e6d41dab8022";
layerId = "087800cf-c0cd-4c6e-bb98-b375108ebc92";
name = img;
width = 0;
},
{
anchors = (
{
name = top;
position = "{881, 1516}";
}
);
guideLines = (
{
position = "{0, 625}";
},
{
angle = 90;
position = "{495, 0}";
}
);
layerId = "608d70f7-2164-4884-8595-c4dfe8e6ed08";
paths = (
{
closed = 1;
nodes = (
"178 1343 LINE",
"325 1343 LINE",
"584 691 LINE",
"464 172 LINE",
"323 172 LINE",
"284 0 LINE",
"776 0 LINE",
"815 172 LINE",
"674 172 LINE",
"794 687 LINE",
"1380 1343 LINE",
"1503 1343 LINE",
"1542 1516 LINE",
"1050 1516 LINE",
"1011 1343 LINE",
"1133 1343 LINE",
"722 870 LINE",
"547 1343 LINE",
"669 1343 LINE",
"708 1516 LINE",
"217 1516 LINE"
);
}
);
width = 1323;
},
{
anchors = (
{
name = top;
position = "{980, 1516}";
}
);
guideLines = (
{
position = "{0, 625}";
},
{
angle = 90;
position = "{791, 0}";
}
);
layerId = "f6e6aac4-f32e-46b3-99a1-e6d41dab8022";
paths = (
{
closed = 1;
nodes = (
"184 1241 LINE",
"318 1241 LINE",
"598 635 LINE",
"516 274 LINE",
"356 274 LINE",
"293 0 LINE",
"969 0 LINE",
"1032 274 LINE",
"862 274 LINE",
"941 615 LINE",
"1535 1241 LINE",
"1636 1241 LINE",
"1700 1516 LINE",
"1087 1516 LINE",
"1024 1241 LINE",
"1112 1241 LINE",
"825 913 LINE",
"692 1241 LINE",
"797 1241 LINE",
"860 1516 LINE",
"248 1516 LINE"
);
}
);
width = 1393;
}
);
unicode = 0059;
},
{
color = (153,188,255,255);
glyphname = Z;
layers = (
{
anchors = (
{
name = top;
position = "{884, 1516}";
}
);
associatedMasterId = "f6e6aac4-f32e-46b3-99a1-e6d41dab8022";
layerId = "087800cf-c0cd-4c6e-bb98-b375108ebc92";
name = img;
width = 0;
},
{
anchors = (
{
name = top;
position = "{831, 1516}";
}
);
layerId = "608d70f7-2164-4884-8595-c4dfe8e6ed08";
paths = (
{
closed = 1;
nodes = (
"1435 1516 LINE",
"333 1516 LINE",
"233 1081 LINE",
"440 1081 LINE",
"499 1339 LINE",
"1159 1339 LINE",
"24 231 LINE",
"-27 0 LINE",
"1083 0 LINE",
"1181 430 LINE",
"974 430 LINE",
"917 178 LINE",
"236 178 LINE",
"1388 1298 LINE"
);
}
);
width = 1298;
},
{
anchors = (
{
name = top;
position = "{884, 1516}";
}
);
layerId = "f6e6aac4-f32e-46b3-99a1-e6d41dab8022";
paths = (
{
closed = 1;
nodes = (
"1497 1516 LINE",
"334 1516 LINE",
"209 979 LINE",
"553 979 LINE",
"612 1241 LINE",
"1017 1241 LINE",
"61 313 LINE",
"-10 0 LINE",
"1165 0 LINE",
"1288 532 LINE",
"940 532 LINE",
"881 274 LINE",
"451 274 LINE",
"1425 1202 LINE"
);
}
);
width = 1272;
}
);
unicode = 005A;
},
{
color = (153,188,255,255);
glyphname = underscore;
layers = (
{
layerId = "608d70f7-2164-4884-8595-c4dfe8e6ed08";
paths = (
{
closed = 1;
nodes = (
"-117 -256 LINE",
"907 -256 LINE",
"931 -154 LINE",
"-93 -154 LINE"
);
}
);
width = 1049;
},
{
layerId = "f6e6aac4-f32e-46b3-99a1-e6d41dab8022";
paths = (
{
closed = 1;
nodes = (
"-82 -346 LINE",
"942 -346 LINE",
"1001 -90 LINE",
"-23 -90 LINE"
);
}
);
width = 1083;
}
);
unicode = 005F;
},
{
color = (153,188,255,255);
glyphname = a;
layers = (
{
anchors = (
{
name = top;
position = "{757, 1036}";
}
);
layerId = "608d70f7-2164-4884-8595-c4dfe8e6ed08";
paths = (
{
closed = 1;
nodes = (
"1009 1036 LINE",
"996 982 LINE",
"940 1030 OFFCURVE",
"847 1063 OFFCURVE",
"747 1063 CURVE SMOOTH",
"397 1063 OFFCURVE",
"106 793 OFFCURVE",
"106 406 CURVE SMOOTH",
"106 168 OFFCURVE",
"284 -18 OFFCURVE",
"512 -18 CURVE SMOOTH",
"607 -18 OFFCURVE",
"697 10 OFFCURVE",
"786 71 CURVE",
"770 0 LINE",
"1132 0 LINE",
"1171 172 LINE",
"1010 172 LINE",
"1210 1036 LINE"
);
},
{
closed = 1;
nodes = (
"413 154 OFFCURVE",
"313 256 OFFCURVE",
"313 426 CURVE SMOOTH",
"313 719 OFFCURVE",
"528 891 OFFCURVE",
"733 891 CURVE SMOOTH",
"850 891 OFFCURVE",
"923 854 OFFCURVE",
"957 810 CURVE",
"829 256 LINE",
"765 204 OFFCURVE",
"659 154 OFFCURVE",
"559 154 CURVE SMOOTH"
);
}
);
width = 1329;
},
{
anchors = (
{
name = top;
position = "{755, 1036}";
}
);
layerId = "f6e6aac4-f32e-46b3-99a1-e6d41dab8022";
paths = (
{
closed = 1;
nodes = (
"1008 1036 LINE",
"996 985 LINE",
"944 1027 OFFCURVE",
"842 1061 OFFCURVE",
"745 1061 CURVE SMOOTH",
"416 1061 OFFCURVE",
"102 823 OFFCURVE",
"102 438 CURVE SMOOTH",
"102 141 OFFCURVE",
"319 -16 OFFCURVE",
"535 -16 CURVE SMOOTH",
"647 -16 OFFCURVE",
"735 26 OFFCURVE",
"786 79 CURVE",
"768 0 LINE",
"1298 0 LINE",
"1362 274 LINE",
"1171 274 LINE",
"1348 1036 LINE"
);
},
{
closed = 1;
nodes = (
"526 293 OFFCURVE",
"440 358 OFFCURVE",
"440 485 CURVE SMOOTH",
"440 637 OFFCURVE",
"565 758 OFFCURVE",
"709 758 CURVE SMOOTH",
"796 758 OFFCURVE",
"882 717 OFFCURVE",
"917 643 CURVE",
"867 427 LINE",
"811 335 OFFCURVE",
"714 293 OFFCURVE",
"629 293 CURVE SMOOTH"
);
}
);
width = 1391;
}
);
unicode = 0061;
},
{
color = (153,188,255,255);
glyphname = b;
layers = (
{
anchors = (
{
name = top;
position = "{350, 1036}";
}
);
layerId = "608d70f7-2164-4884-8595-c4dfe8e6ed08";
paths = (
{
closed = 1;
nodes = (
"212 1384 LINE",
"404 1384 LINE",
"86 0 LINE",
"286 0 LINE",
"301 64 LINE",
"357 16 OFFCURVE",
"450 -18 OFFCURVE",
"552 -18 CURVE SMOOTH",
"903 -18 OFFCURVE",
"1193 252 OFFCURVE",
"1193 639 CURVE SMOOTH",
"1193 877 OFFCURVE",
"1015 1063 OFFCURVE",
"788 1063 CURVE SMOOTH",
"691 1063 OFFCURVE",
"600 1033 OFFCURVE",
"510 971 CURVE",
"645 1556 LINE",
"253 1556 LINE"
);
},
{
closed = 1;
nodes = (
"886 891 OFFCURVE",
"987 788 OFFCURVE",
"987 618 CURVE SMOOTH",
"987 326 OFFCURVE",
"772 154 OFFCURVE",
"567 154 CURVE SMOOTH",
"448 154 OFFCURVE",
"374 191 OFFCURVE",
"340 235 CURVE",
"467 784 LINE",
"546 850 OFFCURVE",
"647 891 OFFCURVE",
"741 891 CURVE SMOOTH"
);
}
);
width = 1272;
},
{
anchors = (
{
name = top;
position = "{461, 1036}";
}
);
layerId = "f6e6aac4-f32e-46b3-99a1-e6d41dab8022";
paths = (
{
closed = 1;
nodes = (
"201 1282 LINE",
"398 1282 LINE",
"102 0 LINE",
"442 0 LINE",
"455 57 LINE",
"508 16 OFFCURVE",
"608 -16 OFFCURVE",
"705 -16 CURVE SMOOTH",
"1061 -16 OFFCURVE",
"1348 240 OFFCURVE",
"1348 606 CURVE SMOOTH",
"1348 903 OFFCURVE",
"1141 1061 OFFCURVE",
"915 1061 CURVE SMOOTH",
"803 1061 OFFCURVE",
"716 1019 OFFCURVE",
"665 967 CURVE",
"801 1556 LINE",
"264 1556 LINE"
);
},
{
closed = 1;
nodes = (
"924 752 OFFCURVE",
"1010 686 OFFCURVE",
"1010 559 CURVE SMOOTH",
"1010 408 OFFCURVE",
"885 287 OFFCURVE",
"741 287 CURVE SMOOTH",
"654 287 OFFCURVE",
"570 326 OFFCURVE",
"534 399 CURVE",
"585 621 LINE",
"642 711 OFFCURVE",
"737 752 OFFCURVE",
"821 752 CURVE SMOOTH"
);
}
);
width = 1327;
}
);
unicode = 0062;
},
{
color = (153,188,255,255);
glyphname = c;
layers = (
{
anchors = (
{
name = bottom;
position = "{557, 0}";
},
{
name = top;
position = "{727, 1036}";
}
);
associatedMasterId = "f6e6aac4-f32e-46b3-99a1-e6d41dab8022";
layerId = "087800cf-c0cd-4c6e-bb98-b375108ebc92";
name = img;
width = 0;
},
{
anchors = (
{
name = bottom;
position = "{561, 0}";
},
{
name = top;
position = "{717, 1036}";
}
);
layerId = "608d70f7-2164-4884-8595-c4dfe8e6ed08";
paths = (
{
closed = 1;
nodes = (
"1130 731 LINE",
"1159 903 LINE",
"1034 903 LINE",
"950 1016 OFFCURVE",
"814 1067 OFFCURVE",
"679 1067 CURVE SMOOTH",
"395 1067 OFFCURVE",
"96 811 OFFCURVE",
"96 449 CURVE SMOOTH",
"96 182 OFFCURVE",
"294 -25 OFFCURVE",
"567 -25 CURVE SMOOTH",
"716 -25 OFFCURVE",
"878 29 OFFCURVE",
"983 176 CURVE",
"837 285 LINE",
"759 186 OFFCURVE",
"681 154 OFFCURVE",
"575 154 CURVE SMOOTH",
"430 154 OFFCURVE",
"305 260 OFFCURVE",
"305 461 CURVE SMOOTH",
"305 735 OFFCURVE",
"516 891 OFFCURVE",
"661 891 CURVE SMOOTH",
"776 891 OFFCURVE",
"878 838 OFFCURVE",
"921 731 CURVE"
);
}
);
width = 1155;
},
{
anchors = (
{
name = bottom;
position = "{557, 0}";
},
{
name = top;
position = "{727, 1036}";
}
);
layerId = "f6e6aac4-f32e-46b3-99a1-e6d41dab8022";
paths = (
{
closed = 1;
nodes = (
"1182 668 LINE",
"1245 942 LINE",
"1053 942 LINE",
"973 1018 OFFCURVE",
"865 1067 OFFCURVE",
"735 1067 CURVE SMOOTH",
"397 1067 OFFCURVE",
"102 817 OFFCURVE",
"102 436 CURVE SMOOTH",
"102 182 OFFCURVE",
"303 -25 OFFCURVE",
"571 -25 CURVE SMOOTH",
"821 -25 OFFCURVE",
"1022 104 OFFCURVE",
"1106 270 CURVE",
"834 418 LINE",
"786 336 OFFCURVE",
"715 279 OFFCURVE",
"604 279 CURVE SMOOTH",
"510 279 OFFCURVE",
"428 354 OFFCURVE",
"428 473 CURVE SMOOTH",
"428 633 OFFCURVE",
"551 762 OFFCURVE",
"700 762 CURVE SMOOTH",
"766 762 OFFCURVE",
"831 723 OFFCURVE",
"852 668 CURVE"
);
}
);
width = 1171;
}
);
unicode = 0063;
},
{
color = (153,188,255,255);
glyphname = d;
layers = (
{
anchors = (
{
name = top;
position = "{436, 1036}";
}
);
guideLines = (
{
position = "{0, 528}";
},
{
angle = 90;
position = "{464, 0}";
}
);
layerId = "608d70f7-2164-4884-8595-c4dfe8e6ed08";
paths = (
{
closed = 1;
nodes = (
"923 1384 LINE",
"1098 1384 LINE",
"1006 981 LINE",
"939 1034 OFFCURVE",
"843 1067 OFFCURVE",
"737 1067 CURVE SMOOTH",
"397 1067 OFFCURVE",
"116 793 OFFCURVE",
"116 426 CURVE SMOOTH",
"116 174 OFFCURVE",
"305 -20 OFFCURVE",
"540 -20 CURVE SMOOTH",
"637 -20 OFFCURVE",
"720 15 OFFCURVE",
"795 67 CURVE",
"780 0 LINE",
"1153 0 LINE",
"1191 172 LINE",
"1019 172 LINE",
"1339 1556 LINE",
"964 1556 LINE"
);
},
{
closed = 1;
nodes = (
"434 154 OFFCURVE",
"323 266 OFFCURVE",
"323 444 CURVE SMOOTH",
"323 717 OFFCURVE",
"524 891 OFFCURVE",
"724 891 CURVE SMOOTH",
"838 891 OFFCURVE",
"916 858 OFFCURVE",
"964 801 CURVE",
"841 264 LINE",
"767 193 OFFCURVE",
"671 154 OFFCURVE",
"587 154 CURVE SMOOTH"
);
}
);
width = 1346;
},
{
anchors = (
{
name = top;
position = "{485, 1036}";
}
);
guideLines = (
{
position = "{0, 528}";
},
{
angle = 90;
position = "{346, 0}";
}
);
layerId = "f6e6aac4-f32e-46b3-99a1-e6d41dab8022";
paths = (
{
closed = 1;
nodes = (
"856 1282 LINE",
"1063 1282 LINE",
"995 989 LINE",
"942 1032 OFFCURVE",
"835 1061 OFFCURVE",
"745 1061 CURVE SMOOTH",
"416 1061 OFFCURVE",
"102 823 OFFCURVE",
"102 438 CURVE SMOOTH",
"102 193 OFFCURVE",
"262 -18 OFFCURVE",
"535 -18 CURVE SMOOTH",
"649 -18 OFFCURVE",
"738 26 OFFCURVE",
"786 78 CURVE",
"768 0 LINE",
"1298 0 LINE",
"1362 274 LINE",
"1171 274 LINE",
"1466 1556 LINE",
"920 1556 LINE"
);
},
{
closed = 1;
nodes = (
"528 307 OFFCURVE",
"453 381 OFFCURVE",
"453 496 CURVE SMOOTH",
"453 647 OFFCURVE",
"571 764 OFFCURVE",
"715 764 CURVE SMOOTH",
"797 764 OFFCURVE",
"884 728 OFFCURVE",
"919 658 CURVE",
"867 433 LINE",
"810 354 OFFCURVE",
"719 307 OFFCURVE",
"627 307 CURVE SMOOTH"
);
}
);
width = 1405;
}
);
unicode = 0064;
},
{
color = (153,188,255,255);
glyphname = e;
layers = (
{
anchors = (
{
name = top;
position = "{727, 1036}";
}
);
associatedMasterId = "f6e6aac4-f32e-46b3-99a1-e6d41dab8022";
layerId = "087800cf-c0cd-4c6e-bb98-b375108ebc92";
name = img;
width = 0;
},
{
anchors = (
{
name = top;
position = "{740, 1036}";
}
);
guideLines = (
{
position = "{0, 772}";
},
{
position = "{0, 530}";
},
{
position = "{0, 672}";
},
{
angle = 90;
position = "{473, 0}";
},
{
angle = 90;
position = "{-119, 0}";
},
{
angle = 90;
position = "{-119, 0}";
}
);
layerId = "608d70f7-2164-4884-8595-c4dfe8e6ed08";
paths = (
{
closed = 1;
nodes = (
"1116 483 LINE",
"1126 537 OFFCURVE",
"1134 602 OFFCURVE",
"1134 670 CURVE SMOOTH",
"1134 874 OFFCURVE",
"980 1067 OFFCURVE",
"716 1067 CURVE SMOOTH",
"374 1067 OFFCURVE",
"116 788 OFFCURVE",
"116 444 CURVE SMOOTH",
"116 145 OFFCURVE",
"319 -31 OFFCURVE",
"575 -31 CURVE SMOOTH",
"755 -31 OFFCURVE",
"923 45 OFFCURVE",
"1013 164 CURVE",
"964 200 OFFCURVE",
"915 236 OFFCURVE",
"866 272 CURVE",
"800 190 OFFCURVE",
"698 145 OFFCURVE",
"591 145 CURVE SMOOTH",
"432 145 OFFCURVE",
"317 272 OFFCURVE",
"317 440 CURVE SMOOTH",
"317 452 OFFCURVE",
"318 465 OFFCURVE",
"319 483 CURVE"
);
},
{
closed = 1;
nodes = (
"841 897 OFFCURVE",
"946 811 OFFCURVE",
"942 645 CURVE",
"351 645 LINE",
"406 789 OFFCURVE",
"531 897 OFFCURVE",
"690 897 CURVE SMOOTH"
);
}
);
width = 1223;
},
{
anchors = (
{
name = top;
position = "{727, 1036}";
}
);
guideLines = (
{
position = "{0, 772}";
},
{
position = "{0, 530}";
},
{
position = "{0, 672}";
},
{
angle = 90;
position = "{547, 0}";
},
{
angle = 90;
position = "{-45, 0}";
},
{
angle = 90;
position = "{-45, 0}";
}
);
layerId = "f6e6aac4-f32e-46b3-99a1-e6d41dab8022";
paths = (
{
closed = 1;
nodes = (
"1167 440 LINE",
"1186 498 OFFCURVE",
"1198 584 OFFCURVE",
"1198 637 CURVE SMOOTH",
"1198 862 OFFCURVE",
"1004 1067 OFFCURVE",
"735 1067 CURVE SMOOTH",
"397 1067 OFFCURVE",
"102 813 OFFCURVE",
"102 432 CURVE SMOOTH",
"102 150 OFFCURVE",
"315 -27 OFFCURVE",
"575 -27 CURVE SMOOTH",
"776 -27 OFFCURVE",
"958 39 OFFCURVE",
"1092 182 CURVE",
"1019 246 OFFCURVE",
"945 311 OFFCURVE",
"872 375 CURVE",
"799 311 OFFCURVE",
"729 266 OFFCURVE",
"623 266 CURVE SMOOTH",
"537 266 OFFCURVE",
"482 299 OFFCURVE",
"453 351 CURVE SMOOTH",
"438 377 OFFCURVE",
"430 407 OFFCURVE",
"428 440 CURVE"
);
},
{
closed = 1;
nodes = (
"813 809 OFFCURVE",
"891 737 OFFCURVE",
"897 666 CURVE",
"464 666 LINE",
"501 757 OFFCURVE",
"596 809 OFFCURVE",
"702 809 CURVE SMOOTH"
);
}
);
width = 1178;
}
);
unicode = 0065;
},
{
color = (153,188,255,255);
glyphname = f;
layers = (
{
anchors = (
{
name = top;
position = "{116, 1036}";
}
);
guideLines = (
{
angle = 90;
position = "{946, 0}";
}
);
layerId = "608d70f7-2164-4884-8595-c4dfe8e6ed08";
paths = (
{
closed = 1;
nodes = (
"126 864 LINE",
"339 864 LINE",
"34 -471 LINE",
"237 -471 LINE",
"543 864 LINE",
"823 864 LINE",
"864 1036 LINE",
"582 1036 LINE",
"622 1208 LINE SMOOTH",
"655 1352 OFFCURVE",
"733 1405 OFFCURVE",
"839 1405 CURVE SMOOTH",
"909 1405 OFFCURVE",
"974 1384 OFFCURVE",
"1009 1362 CURVE",
"1112 1516 LINE",
"1064 1542 OFFCURVE",
"974 1577 OFFCURVE",
"847 1577 CURVE SMOOTH",
"636 1577 OFFCURVE",
"481 1475 OFFCURVE",
"421 1219 CURVE",
"379 1036 LINE",
"167 1036 LINE"
);
}
);
width = 811;
},
{
anchors = (
{
name = top;
position = "{258, 1036}";
}
);
guideLines = (
{
angle = 90;
position = "{1087, 0}";
}
);
layerId = "f6e6aac4-f32e-46b3-99a1-e6d41dab8022";
paths = (
{
closed = 1;
nodes = (
"115 743 LINE",
"315 743 LINE",
"31 -471 LINE",
"369 -471 LINE",
"652 743 LINE",
"874 743 LINE",
"942 1036 LINE",
"721 1036 LINE",
"752 1169 LINE SMOOTH",
"770 1247 OFFCURVE",
"829 1288 OFFCURVE",
"889 1288 CURVE SMOOTH",
"940 1288 OFFCURVE",
"963 1276 OFFCURVE",
"985 1253 CURVE",
"1169 1485 LINE",
"1147 1522 OFFCURVE",
"1049 1579 OFFCURVE",
"895 1579 CURVE SMOOTH",
"670 1579 OFFCURVE",
"483 1466 OFFCURVE",
"424 1206 CURVE",
"384 1036 LINE",
"182 1036 LINE"
);
}
);
width = 801;
}
);
unicode = 0066;
},
{
color = (153,188,255,255);
glyphname = g;
layers = (
{
layerId = "608d70f7-2164-4884-8595-c4dfe8e6ed08";
paths = (
{
closed = 1;
nodes = (
"778 45 LINE",
"716 -223 OFFCURVE",
"595 -295 OFFCURVE",
"403 -295 CURVE SMOOTH",
"278 -295 OFFCURVE",
"155 -244 OFFCURVE",
"92 -176 CURVE",
"-37 -322 LINE",
"63 -424 OFFCURVE",
"239 -471 OFFCURVE",
"387 -471 CURVE SMOOTH",
"708 -471 OFFCURVE",
"892 -334 OFFCURVE",
"972 12 CURVE SMOOTH",
"1210 1036 LINE",
"1007 1036 LINE",
"994 982 LINE",
"938 1030 OFFCURVE",
"845 1063 OFFCURVE",
"745 1063 CURVE SMOOTH",
"395 1063 OFFCURVE",
"104 793 OFFCURVE",
"104 406 CURVE SMOOTH",
"104 168 OFFCURVE",
"282 -18 OFFCURVE",
"509 -18 CURVE SMOOTH",
"612 -18 OFFCURVE",
"699 6 OFFCURVE",
"782 64 CURVE"
);
},
{
closed = 1;
nodes = (
"411 154 OFFCURVE",
"311 256 OFFCURVE",
"311 426 CURVE SMOOTH",
"311 719 OFFCURVE",
"526 891 OFFCURVE",
"731 891 CURVE SMOOTH",
"848 891 OFFCURVE",
"921 854 OFFCURVE",
"955 810 CURVE",
"827 257 LINE",
"750 193 OFFCURVE",
"658 154 OFFCURVE",
"557 154 CURVE SMOOTH"
);
}
);
width = 1278;
},
{
layerId = "f6e6aac4-f32e-46b3-99a1-e6d41dab8022";
paths = (
{
closed = 1;
nodes = (
"770 49 LINE",
"727 -133 OFFCURVE",
"598 -174 OFFCURVE",
"463 -174 CURVE SMOOTH",
"342 -174 OFFCURVE",
"236 -131 OFFCURVE",
"156 -74 CURVE",
"-20 -338 LINE",
"82 -418 OFFCURVE",
"238 -471 OFFCURVE",
"449 -471 CURVE SMOOTH",
"770 -471 OFFCURVE",
"1014 -365 OFFCURVE",
"1108 43 CURVE SMOOTH",
"1343 1061 LINE",
"1004 1061 LINE",
"987 989 LINE",
"939 1027 OFFCURVE",
"836 1061 OFFCURVE",
"737 1061 CURVE SMOOTH",
"375 1061 OFFCURVE",
"94 795 OFFCURVE",
"94 438 CURVE SMOOTH",
"94 150 OFFCURVE",
"315 0 OFFCURVE",
"526 0 CURVE SMOOTH",
"633 0 OFFCURVE",
"725 34 OFFCURVE",
"777 79 CURVE"
);
},
{
closed = 1;
nodes = (
"524 299 OFFCURVE",
"438 365 OFFCURVE",
"438 492 CURVE SMOOTH",
"438 643 OFFCURVE",
"563 764 OFFCURVE",
"707 764 CURVE SMOOTH",
"788 764 OFFCURVE",
"875 728 OFFCURVE",
"911 659 CURVE",
"857 427 LINE",
"801 339 OFFCURVE",
"710 299 OFFCURVE",
"627 299 CURVE SMOOTH"
);
}
);
width = 1303;
}
);
unicode = 0067;
},
{
color = (153,188,255,255);
glyphname = h;
layers = (
{
anchors = (
{
name = top;
position = "{391, 1036}";
}
);
layerId = "608d70f7-2164-4884-8595-c4dfe8e6ed08";
paths = (
{
closed = 1;
nodes = (
"788 0 LINE",
"1138 0 LINE",
"1177 172 LINE",
"1030 172 LINE",
"1144 666 LINE SMOOTH",
"1204 926 OFFCURVE",
"1062 1055 OFFCURVE",
"849 1055 CURVE SMOOTH",
"733 1055 OFFCURVE",
"620 1006 OFFCURVE",
"523 931 CURVE",
"667 1556 LINE",
"266 1556 LINE",
"225 1384 LINE",
"424 1384 LINE",
"106 0 LINE",
"309 0 LINE",
"487 773 LINE",
"574 836 OFFCURVE",
"674 879 OFFCURVE",
"763 879 CURVE SMOOTH",
"909 879 OFFCURVE",
"974 797 OFFCURVE",
"937 641 CURVE"
);
}
);
width = 1327;
},
{
anchors = (
{
name = top;
position = "{500, 1036}";
}
);
layerId = "f6e6aac4-f32e-46b3-99a1-e6d41dab8022";
paths = (
{
closed = 1;
nodes = (
"764 0 LINE",
"1296 0 LINE",
"1360 274 LINE",
"1169 274 LINE",
"1253 639 LINE SMOOTH",
"1315 905 OFFCURVE",
"1194 1067 OFFCURVE",
"961 1067 CURVE SMOOTH",
"852 1067 OFFCURVE",
"752 1021 OFFCURVE",
"663 952 CURVE",
"803 1556 LINE",
"266 1556 LINE",
"203 1282 LINE",
"398 1282 LINE",
"102 0 LINE",
"444 0 LINE",
"590 635 LINE",
"674 697 OFFCURVE",
"747 727 OFFCURVE",
"799 727 CURVE SMOOTH",
"872 727 OFFCURVE",
"915 659 OFFCURVE",
"893 557 CURVE"
);
}
);
width = 1370;
}
);
unicode = 0068;
},
{
color = (153,188,255,255);
glyphname = i;
layers = (
{
guideLines = (
{
angle = 77;
position = "{151, 0}";
}
);
layerId = "608d70f7-2164-4884-8595-c4dfe8e6ed08";
paths = (
{
closed = 1;
nodes = (
"161 864 LINE",
"347 864 LINE",
"147 0 LINE",
"516 0 LINE",
"555 172 LINE",
"389 172 LINE",
"589 1036 LINE",
"202 1036 LINE"
);
},
{
closed = 1;
nodes = (
"393 1329 OFFCURVE",
"452 1266 OFFCURVE",
"526 1266 CURVE SMOOTH",
"598 1266 OFFCURVE",
"657 1329 OFFCURVE",
"657 1401 CURVE SMOOTH",
"657 1473 OFFCURVE",
"598 1532 OFFCURVE",
"526 1532 CURVE SMOOTH",
"452 1532 OFFCURVE",
"393 1473 OFFCURVE",
"393 1401 CURVE SMOOTH"
);
}
);
width = 725;
},
{
guideLines = (
{
angle = 77;
position = "{-57, 0}";
}
);
layerId = "f6e6aac4-f32e-46b3-99a1-e6d41dab8022";
paths = (
{
closed = 1;
nodes = (
"143 762 LINE",
"334 762 LINE",
"158 0 LINE",
"690 0 LINE",
"754 274 LINE",
"563 274 LINE",
"739 1036 LINE",
"207 1036 LINE"
);
},
{
closed = 1;
nodes = (
"434 1272 OFFCURVE",
"512 1192 OFFCURVE",
"612 1192 CURVE SMOOTH",
"709 1192 OFFCURVE",
"788 1272 OFFCURVE",
"788 1370 CURVE SMOOTH",
"788 1468 OFFCURVE",
"709 1548 OFFCURVE",
"612 1548 CURVE SMOOTH",
"512 1548 OFFCURVE",
"434 1468 OFFCURVE",
"434 1370 CURVE SMOOTH"
);
}
);
width = 778;
}
);
unicode = 0069;
},
{
color = (153,188,255,255);
glyphname = j;
layers = (
{
anchors = (
{
name = top;
position = "{6, 1036}";
}
);
guideLines = (
{
angle = 77;
position = "{151, 0}";
}
);
layerId = "608d70f7-2164-4884-8595-c4dfe8e6ed08";
paths = (
{
closed = 1;
nodes = (
"145 864 LINE",
"349 864 LINE",
"135 -57 LINE",
"100 -211 OFFCURVE",
"26 -309 OFFCURVE",
"-93 -326 CURVE",
"-109 -471 LINE",
"114 -465 OFFCURVE",
"278 -319 OFFCURVE",
"333 -76 CURVE",
"591 1036 LINE",
"186 1036 LINE"
);
},
{
closed = 1;
nodes = (
"397 1329 OFFCURVE",
"456 1266 OFFCURVE",
"530 1266 CURVE SMOOTH",
"602 1266 OFFCURVE",
"661 1329 OFFCURVE",
"661 1401 CURVE SMOOTH",
"661 1473 OFFCURVE",
"602 1532 OFFCURVE",
"530 1532 CURVE SMOOTH",
"456 1532 OFFCURVE",
"397 1473 OFFCURVE",
"397 1401 CURVE SMOOTH"
);
}
);
width = 668;
},
{
anchors = (
{
name = top;
position = "{102, 1036}";
}
);
guideLines = (
{
angle = 77;
position = "{1651, 0}";
}
);
layerId = "f6e6aac4-f32e-46b3-99a1-e6d41dab8022";
paths = (
{
closed = 1;
nodes = (
"113 762 LINE",
"346 762 LINE",
"162 -33 LINE",
"137 -145 OFFCURVE",
"55 -205 OFFCURVE",
"-33 -205 CURVE",
"-72 -469 LINE",
"233 -469 OFFCURVE",
"428 -338 OFFCURVE",
"506 -2 CURVE SMOOTH",
"745 1036 LINE",
"176 1036 LINE"
);
},
{
closed = 1;
nodes = (
"414 1272 OFFCURVE",
"492 1192 OFFCURVE",
"592 1192 CURVE SMOOTH",
"688 1192 OFFCURVE",
"768 1272 OFFCURVE",
"768 1370 CURVE SMOOTH",
"768 1468 OFFCURVE",
"688 1548 OFFCURVE",
"592 1548 CURVE SMOOTH",
"492 1548 OFFCURVE",
"414 1468 OFFCURVE",
"414 1370 CURVE SMOOTH"
);
}
);
width = 707;
}
);
unicode = 006A;
},
{
color = (153,188,255,255);
glyphname = k;
layers = (
{
anchors = (
{
name = top;
position = "{323, 1036}";
}
);
guideLines = (
{
position = "{0, 336}";
},
{
angle = 90;
position = "{532, 0}";
},
{
angle = 90;
position = "{-195, 0}";
},
{
angle = 90;
position = "{-226, 0}";
}
);
layerId = "608d70f7-2164-4884-8595-c4dfe8e6ed08";
paths = (
{
closed = 1;
nodes = (
"239 1384 LINE",
"424 1384 LINE",
"106 0 LINE",
"309 0 LINE",
"417 469 LINE",
"538 469 LINE",
"849 0 LINE",
"1069 0 LINE",
"1107 170 LINE",
"983 170 LINE",
"733 535 LINE",
"1121 864 LINE",
"1228 864 LINE",
"1269 1036 LINE",
"933 1036 LINE",
"896 880 LINE",
"557 592 LINE",
"445 592 LINE",
"667 1556 LINE",
"280 1556 LINE"
);
}
);
width = 1255;
},
{
anchors = (
{
name = top;
position = "{469, 1036}";
}
);
guideLines = (
{
position = "{0, 336}";
},
{
angle = 90;
position = "{1079, 0}";
},
{
angle = 90;
position = "{-49, 0}";
},
{
angle = 90;
position = "{-195, 0}";
}
);
layerId = "f6e6aac4-f32e-46b3-99a1-e6d41dab8022";
paths = (
{
closed = 1;
nodes = (
"199 1282 LINE",
"398 1282 LINE",
"102 0 LINE",
"442 0 LINE",
"535 406 LINE",
"664 406 LINE",
"860 0 LINE",
"1161 0 LINE",
"1225 274 LINE",
"1069 274 LINE",
"934 539 LINE",
"1169 762 LINE",
"1309 762 LINE",
"1372 1036 LINE",
"915 1036 LINE",
"872 851 LINE",
"713 682 LINE",
"599 682 LINE",
"801 1556 LINE",
"262 1556 LINE"
);
}
);
width = 1311;
}
);
unicode = 006B;
},
{
color = (153,188,255,255);
glyphname = l;
layers = (
{
anchors = (
{
name = top;
position = "{26, 1036}";
}
);
guideLines = (
{
position = "{0, 1434}";
},
{
angle = 90;
position = "{-99, 0}";
}
);
layerId = "608d70f7-2164-4884-8595-c4dfe8e6ed08";
paths = (
{
closed = 1;
nodes = (
"225 1384 LINE",
"424 1384 LINE",
"106 0 LINE",
"481 0 LINE",
"520 172 LINE",
"348 172 LINE",
"667 1556 LINE",
"266 1556 LINE"
);
}
);
width = 694;
},
{
anchors = (
{
name = top;
position = "{154, 1036}";
}
);
guideLines = (
{
position = "{0, 1434}";
},
{
angle = 90;
position = "{164, 0}";
}
);
layerId = "f6e6aac4-f32e-46b3-99a1-e6d41dab8022";
paths = (
{
closed = 1;
nodes = (
"199 1282 LINE",
"398 1282 LINE",
"102 0 LINE",
"631 0 LINE",
"694 274 LINE",
"505 274 LINE",
"801 1556 LINE",
"262 1556 LINE"
);
}
);
width = 729;
}
);
unicode = 006C;
},
{
color = (153,188,255,255);
glyphname = m;
layers = (
{
anchors = (
{
name = top;
position = "{792, 1036}";
}
);
guideLines = (
{
position = "{0, 1026}";
},
{
angle = 90;
position = "{-66, 0}";
}
);
layerId = "608d70f7-2164-4884-8595-c4dfe8e6ed08";
paths = (
{
closed = 1;
nodes = (
"153 864 LINE",
"347 864 LINE",
"147 0 LINE",
"350 0 LINE",
"523 752 LINE",
"606 831 OFFCURVE",
"700 879 OFFCURVE",
"804 879 CURVE SMOOTH",
"950 879 OFFCURVE",
"1015 797 OFFCURVE",
"978 641 CURVE SMOOTH",
"829 0 LINE",
"1032 0 LINE",
"1205 753 LINE",
"1288 831 OFFCURVE",
"1382 879 OFFCURVE",
"1486 879 CURVE SMOOTH",
"1632 879 OFFCURVE",
"1697 797 OFFCURVE",
"1660 641 CURVE",
"1511 0 LINE",
"1863 0 LINE",
"1902 172 LINE",
"1753 172 LINE",
"1867 666 LINE",
"1927 926 OFFCURVE",
"1785 1055 OFFCURVE",
"1572 1055 CURVE SMOOTH",
"1419 1055 OFFCURVE",
"1281 983 OFFCURVE",
"1182 882 CURVE",
"1139 998 OFFCURVE",
"1032 1055 OFFCURVE",
"890 1055 CURVE SMOOTH",
"765 1055 OFFCURVE",
"650 1008 OFFCURVE",
"556 930 CURVE",
"581 1036 LINE",
"194 1036 LINE"
);
}
);
width = 2052;
},
{
anchors = (
{
name = top;
position = "{862, 1036}";
}
);
guideLines = (
{
position = "{0, 1026}";
},
{
angle = 90;
position = "{-279, 0}";
}
);
layerId = "f6e6aac4-f32e-46b3-99a1-e6d41dab8022";
paths = (
{
closed = 1;
nodes = (
"143 762 LINE",
"332 762 LINE",
"156 0 LINE",
"498 0 LINE",
"645 636 LINE",
"728 697 OFFCURVE",
"800 727 OFFCURVE",
"852 727 CURVE SMOOTH",
"926 727 OFFCURVE",
"969 659 OFFCURVE",
"946 557 CURVE SMOOTH",
"817 0 LINE",
"1159 0 LINE",
"1306 635 LINE",
"1389 697 OFFCURVE",
"1462 727 OFFCURVE",
"1513 727 CURVE SMOOTH",
"1587 727 OFFCURVE",
"1630 659 OFFCURVE",
"1608 557 CURVE",
"1479 0 LINE",
"2009 0 LINE",
"2073 274 LINE",
"1884 274 LINE",
"1968 639 LINE",
"2030 903 OFFCURVE",
"1907 1061 OFFCURVE",
"1675 1061 CURVE SMOOTH",
"1536 1061 OFFCURVE",
"1410 991 OFFCURVE",
"1303 886 CURVE",
"1262 998 OFFCURVE",
"1159 1061 OFFCURVE",
"1014 1061 CURVE SMOOTH",
"905 1061 OFFCURVE",
"806 1019 OFFCURVE",
"717 951 CURVE",
"733 1036 LINE",
"207 1036 LINE"
);
}
);
width = 2083;
}
);
unicode = 006D;
},
{
color = (153,188,255,255);
glyphname = n;
layers = (
{
anchors = (
{
name = top;
position = "{864, 1036}";
}
);
guideLines = (
{
position = "{0, 1135}";
},
{
position = "{0, 637}";
},
{
position = "{0, 1036}";
},
{
position = "{0, 336}";
},
{
angle = 90;
position = "{970, 0}";
},
{
angle = 90;
position = "{452, 0}";
},
{
angle = 90;
position = "{454, 0}";
},
{
angle = 77;
position = "{1228, 0}";
}
);
layerId = "608d70f7-2164-4884-8595-c4dfe8e6ed08";
paths = (
{
closed = 1;
nodes = (
"149 864 LINE",
"347 864 LINE",
"147 0 LINE",
"350 0 LINE",
"523 752 LINE",
"606 831 OFFCURVE",
"700 879 OFFCURVE",
"804 879 CURVE SMOOTH",
"950 879 OFFCURVE",
"1015 797 OFFCURVE",
"978 641 CURVE SMOOTH",
"829 0 LINE",
"1179 0 LINE",
"1218 172 LINE",
"1071 172 LINE",
"1185 666 LINE SMOOTH",
"1245 926 OFFCURVE",
"1103 1055 OFFCURVE",
"890 1055 CURVE SMOOTH",
"765 1055 OFFCURVE",
"650 1008 OFFCURVE",
"556 930 CURVE",
"581 1036 LINE",
"190 1036 LINE"
);
}
);
width = 1368;
},
{
anchors = (
{
name = top;
position = "{969, 1036}";
}
);
guideLines = (
{
position = "{0, 1135}";
},
{
position = "{0, 637}";
},
{
position = "{0, 1036}";
},
{
position = "{0, 336}";
},
{
angle = 90;
position = "{59, 0}";
},
{
angle = 90;
position = "{762, 0}";
},
{
angle = 90;
position = "{764, 0}";
},
{
angle = 77;
position = "{1411, 0}";
}
);
layerId = "f6e6aac4-f32e-46b3-99a1-e6d41dab8022";
paths = (
{
closed = 1;
nodes = (
"143 762 LINE",
"332 762 LINE",
"156 0 LINE",
"498 0 LINE",
"645 636 LINE",
"728 697 OFFCURVE",
"800 727 OFFCURVE",
"852 727 CURVE SMOOTH",
"926 727 OFFCURVE",
"969 659 OFFCURVE",
"946 557 CURVE SMOOTH",
"817 0 LINE",
"1348 0 LINE",
"1411 274 LINE",
"1222 274 LINE",
"1307 639 LINE SMOOTH",
"1368 903 OFFCURVE",
"1245 1061 OFFCURVE",
"1014 1061 CURVE SMOOTH",
"905 1061 OFFCURVE",
"806 1019 OFFCURVE",
"717 951 CURVE",
"733 1036 LINE",
"207 1036 LINE"
);
}
);
width = 1421;
}
);
unicode = 006E;
},
{
color = (153,188,255,255);
glyphname = o;
layers = (
{
anchors = (
{
name = bottom;
position = "{575, -236}";
},
{
name = top;
position = "{706, 1067}";
}
);
guideLines = (
{
position = "{0, -25}";
},
{
position = "{0, 1067}";
},
{
position = "{0, 768}";
},
{
position = "{0, 274}";
},
{
angle = 135;
position = "{-936, 0}";
},
{
angle = 90;
position = "{585, 0}";
},
{
angle = 135;
position = "{-754, 0}";
},
{
angle = 135;
position = "{-525, 0}";
},
{
angle = 90;
position = "{552, 0}";
}
);
layerId = "608d70f7-2164-4884-8595-c4dfe8e6ed08";
paths = (
{
closed = 1;
nodes = (
"75 182 OFFCURVE",
"276 -25 OFFCURVE",
"552 -25 CURVE SMOOTH",
"884 -25 OFFCURVE",
"1157 250 OFFCURVE",
"1157 598 CURVE SMOOTH",
"1157 860 OFFCURVE",
"952 1067 OFFCURVE",
"677 1067 CURVE SMOOTH",
"348 1067 OFFCURVE",
"75 793 OFFCURVE",
"75 449 CURVE SMOOTH"
);
},
{
closed = 1;
nodes = (
"284 715 OFFCURVE",
"468 891 OFFCURVE",
"665 891 CURVE SMOOTH",
"827 891 OFFCURVE",
"948 772 OFFCURVE",
"948 586 CURVE SMOOTH",
"948 330 OFFCURVE",
"761 152 OFFCURVE",
"565 152 CURVE SMOOTH",
"399 152 OFFCURVE",
"284 276 OFFCURVE",
"284 463 CURVE SMOOTH"
);
}
);
width = 1235;
},
{
anchors = (
{
name = bottom;
position = "{530, -236}";
},
{
name = top;
position = "{755, 1036}";
}
);
guideLines = (
{
position = "{0, -25}";
},
{
position = "{0, 893}";
},
{
position = "{0, 1067}";
},
{
position = "{0, 150}";
},
{
angle = 135;
position = "{-1481, 0}";
},
{
angle = 90;
position = "{827, 0}";
},
{
angle = 135;
position = "{-1290, 0}";
},
{
angle = 45;
position = "{-1956, 0}";
},
{
angle = 90;
position = "{571, 0}";
}
);
layerId = "f6e6aac4-f32e-46b3-99a1-e6d41dab8022";
paths = (
{
closed = 1;
nodes = (
"102 182 OFFCURVE",
"303 -25 OFFCURVE",
"571 -25 CURVE SMOOTH",
"928 -25 OFFCURVE",
"1202 240 OFFCURVE",
"1202 604 CURVE SMOOTH",
"1202 862 OFFCURVE",
"997 1067 OFFCURVE",
"735 1067 CURVE SMOOTH",
"397 1067 OFFCURVE",
"102 817 OFFCURVE",
"102 436 CURVE SMOOTH"
);
},
{
closed = 1;
nodes = (
"428 635 OFFCURVE",
"549 768 OFFCURVE",
"700 768 CURVE SMOOTH",
"795 768 OFFCURVE",
"877 702 OFFCURVE",
"877 567 CURVE SMOOTH",
"877 401 OFFCURVE",
"743 274 OFFCURVE",
"604 274 CURVE SMOOTH",
"502 274 OFFCURVE",
"428 356 OFFCURVE",
"428 473 CURVE SMOOTH"
);
}
);
width = 1182;
}
);
unicode = 006F;
},
{
color = (153,188,255,255);
glyphname = p;
layers = (
{
anchors = (
{
name = top;
position = "{565, 1036}";
}
);
guideLines = (
{
position = "{0, -664}";
},
{
angle = 90;
position = "{-205, 0}";
}
);
layerId = "608d70f7-2164-4884-8595-c4dfe8e6ed08";
paths = (
{
closed = 1;
nodes = (
"147 864 LINE",
"345 864 LINE",
"34 -471 LINE",
"411 -471 LINE",
"450 -299 LINE",
"279 -299 LINE",
"362 63 LINE",
"419 15 OFFCURVE",
"513 -18 OFFCURVE",
"614 -18 CURVE SMOOTH",
"964 -18 OFFCURVE",
"1255 252 OFFCURVE",
"1255 639 CURVE SMOOTH",
"1255 877 OFFCURVE",
"1077 1063 OFFCURVE",
"849 1063 CURVE SMOOTH",
"750 1063 OFFCURVE",
"659 1032 OFFCURVE",
"567 968 CURVE",
"581 1036 LINE",
"188 1036 LINE"
);
},
{
closed = 1;
nodes = (
"948 891 OFFCURVE",
"1048 788 OFFCURVE",
"1048 618 CURVE SMOOTH",
"1048 326 OFFCURVE",
"833 154 OFFCURVE",
"628 154 CURVE SMOOTH",
"508 154 OFFCURVE",
"436 192 OFFCURVE",
"402 236 CURVE",
"529 785 LINE",
"608 850 OFFCURVE",
"709 891 OFFCURVE",
"802 891 CURVE SMOOTH"
);
}
);
width = 1333;
},
{
anchors = (
{
name = top;
position = "{659, 1036}";
}
);
guideLines = (
{
position = "{0, -664}";
},
{
angle = 90;
position = "{315, 0}";
}
);
layerId = "f6e6aac4-f32e-46b3-99a1-e6d41dab8022";
paths = (
{
closed = 1;
nodes = (
"139 762 LINE",
"327 762 LINE",
"41 -471 LINE",
"582 -471 LINE",
"645 -197 LINE",
"444 -197 LINE",
"503 58 LINE",
"555 16 OFFCURVE",
"657 -16 OFFCURVE",
"754 -16 CURVE SMOOTH",
"1083 -16 OFFCURVE",
"1397 221 OFFCURVE",
"1397 606 CURVE SMOOTH",
"1397 903 OFFCURVE",
"1190 1061 OFFCURVE",
"965 1061 CURVE SMOOTH",
"850 1061 OFFCURVE",
"762 1018 OFFCURVE",
"712 962 CURVE",
"723 1036 LINE",
"203 1036 LINE"
);
},
{
closed = 1;
nodes = (
"973 752 OFFCURVE",
"1059 686 OFFCURVE",
"1059 559 CURVE SMOOTH",
"1059 408 OFFCURVE",
"934 287 OFFCURVE",
"791 287 CURVE SMOOTH",
"705 287 OFFCURVE",
"615 327 OFFCURVE",
"583 401 CURVE",
"634 621 LINE",
"691 711 OFFCURVE",
"786 752 OFFCURVE",
"870 752 CURVE SMOOTH"
);
}
);
width = 1366;
}
);
unicode = 0070;
},
{
color = (153,188,255,255);
glyphname = q;
layers = (
{
anchors = (
{
name = top;
position = "{448, 1036}";
}
);
guideLines = (
{
position = "{0, 1036}";
},
{
angle = 90;
position = "{-107, 0}";
}
);
layerId = "608d70f7-2164-4884-8595-c4dfe8e6ed08";
paths = (
{
closed = 1;
nodes = (
"651 -471 LINE",
"1032 -471 LINE",
"1071 -299 LINE",
"889 -299 LINE",
"1198 1036 LINE",
"1001 1036 LINE",
"986 983 LINE",
"929 1030 OFFCURVE",
"836 1063 OFFCURVE",
"737 1063 CURVE SMOOTH",
"387 1063 OFFCURVE",
"96 793 OFFCURVE",
"96 406 CURVE SMOOTH",
"96 168 OFFCURVE",
"274 -18 OFFCURVE",
"501 -18 CURVE SMOOTH",
"596 -18 OFFCURVE",
"686 10 OFFCURVE",
"775 70 CURVE"
);
},
{
closed = 1;
nodes = (
"403 154 OFFCURVE",
"303 256 OFFCURVE",
"303 426 CURVE SMOOTH",
"303 719 OFFCURVE",
"518 891 OFFCURVE",
"722 891 CURVE SMOOTH",
"838 891 OFFCURVE",
"910 855 OFFCURVE",
"945 812 CURVE",
"818 257 LINE",
"740 193 OFFCURVE",
"640 154 OFFCURVE",
"548 154 CURVE SMOOTH"
);
}
);
width = 1266;
},
{
anchors = (
{
name = top;
position = "{494, 1036}";
}
);
guideLines = (
{
position = "{0, 1036}";
},
{
angle = 90;
position = "{-242, 0}";
}
);
layerId = "f6e6aac4-f32e-46b3-99a1-e6d41dab8022";
paths = (
{
closed = 1;
nodes = (
"666 -471 LINE",
"1188 -471 LINE",
"1251 -197 LINE",
"1069 -197 LINE",
"1354 1036 LINE",
"1018 1036 LINE",
"1003 985 LINE",
"950 1029 OFFCURVE",
"842 1061 OFFCURVE",
"752 1061 CURVE SMOOTH",
"422 1061 OFFCURVE",
"109 823 OFFCURVE",
"109 438 CURVE SMOOTH",
"109 141 OFFCURVE",
"326 -16 OFFCURVE",
"541 -16 CURVE SMOOTH",
"654 -16 OFFCURVE",
"743 27 OFFCURVE",
"793 80 CURVE"
);
},
{
closed = 1;
nodes = (
"532 293 OFFCURVE",
"446 358 OFFCURVE",
"446 485 CURVE SMOOTH",
"446 637 OFFCURVE",
"571 758 OFFCURVE",
"715 758 CURVE SMOOTH",
"802 758 OFFCURVE",
"888 717 OFFCURVE",
"923 643 CURVE",
"873 425 LINE",
"816 334 OFFCURVE",
"720 293 OFFCURVE",
"635 293 CURVE SMOOTH"
);
}
);
width = 1317;
}
);
unicode = 0071;
},
{
color = (153,188,255,255);
glyphname = r;
layers = (
{
anchors = (
{
name = top;
position = "{165, 1036}";
}
);
guideLines = (
{
position = "{0, 1264}";
},
{
position = "{0, 532}";
},
{
position = "{0, 803}";
},
{
position = "{0, 1036}";
},
{
angle = 90;
position = "{784, 0}";
},
{
angle = 90;
position = "{735, 0}";
},
{
angle = 90;
position = "{0, 0}";
},
{
angle = 90;
position = "{-64, 0}";
}
);
layerId = "608d70f7-2164-4884-8595-c4dfe8e6ed08";
paths = (
{
closed = 1;
nodes = (
"1026 1030 LINE",
"983 1038 OFFCURVE",
"890 1044 OFFCURVE",
"827 1044 CURVE SMOOTH",
"722 1044 OFFCURVE",
"622 980 OFFCURVE",
"548 894 CURVE",
"581 1036 LINE",
"190 1036 LINE",
"149 864 LINE",
"347 864 LINE",
"147 0 LINE",
"522 0 LINE",
"561 172 LINE",
"389 172 LINE",
"509 692 LINE",
"567 800 OFFCURVE",
"657 872 OFFCURVE",
"786 872 CURVE",
"757 750 LINE",
"960 750 LINE"
);
}
);
width = 1032;
},
{
anchors = (
{
name = top;
position = "{313, 1036}";
}
);
guideLines = (
{
position = "{0, 1264}";
},
{
position = "{0, 532}";
},
{
position = "{0, 803}";
},
{
position = "{0, 1036}";
},
{
angle = 90;
position = "{584, 0}";
},
{
angle = 90;
position = "{535, 0}";
},
{
angle = 90;
position = "{-338, 0}";
},
{
angle = 90;
position = "{-410, 0}";
}
);
layerId = "f6e6aac4-f32e-46b3-99a1-e6d41dab8022";
paths = (
{
closed = 1;
nodes = (
"1247 1036 LINE",
"1185 1036 OFFCURVE",
"1052 1036 OFFCURVE",
"963 1036 CURVE SMOOTH",
"855 1036 OFFCURVE",
"774 998 OFFCURVE",
"717 945 CURVE",
"737 1036 LINE",
"207 1036 LINE",
"143 762 LINE",
"334 762 LINE",
"158 0 LINE",
"717 0 LINE",
"780 274 LINE",
"563 274 LINE",
"649 643 LINE",
"711 704 OFFCURVE",
"769 737 OFFCURVE",
"852 737 CURVE",
"827 633 LINE",
"1153 633 LINE"
);
}
);
width = 1145;
}
);
unicode = 0072;
},
{
color = (153,188,255,255);
glyphname = s;
layers = (
{
anchors = (
{
name = top;
position = "{581, 1036}";
}
);
guideLines = (
{
position = "{0, -27}";
},
{
position = "{0, 1079}";
},
{
angle = 90;
position = "{-80, 0}";
},
{
angle = 90;
position = "{-80, 0}";
}
);
layerId = "608d70f7-2164-4884-8595-c4dfe8e6ed08";
paths = (
{
closed = 1;
nodes = (
"954 748 LINE",
"968 805 OFFCURVE",
"981 863 OFFCURVE",
"995 920 CURVE",
"883 920 LINE",
"839 1002 OFFCURVE",
"731 1067 OFFCURVE",
"573 1067 CURVE SMOOTH",
"301 1067 OFFCURVE",
"163 932 OFFCURVE",
"163 735 CURVE SMOOTH",
"163 623 OFFCURVE",
"229 528 OFFCURVE",
"348 481 CURVE",
"409 459 OFFCURVE",
"471 436 OFFCURVE",
"532 414 CURVE SMOOTH",
"608 387 OFFCURVE",
"643 344 OFFCURVE",
"643 293 CURVE SMOOTH",
"643 186 OFFCURVE",
"550 127 OFFCURVE",
"436 127 CURVE SMOOTH",
"321 127 OFFCURVE",
"223 182 OFFCURVE",
"235 287 CURVE",
"212 287 OFFCURVE",
"188 287 OFFCURVE",
"165 287 CURVE",
"24 287 LINE",
"10 230 OFFCURVE",
"-3 172 OFFCURVE",
"-17 115 CURVE",
"89 115 LINE",
"137 18 OFFCURVE",
"269 -31 OFFCURVE",
"417 -31 CURVE SMOOTH",
"663 -31 OFFCURVE",
"839 88 OFFCURVE",
"839 317 CURVE SMOOTH",
"839 444 OFFCURVE",
"776 537 OFFCURVE",
"659 580 CURVE SMOOTH",
"595 603 OFFCURVE",
"530 625 OFFCURVE",
"466 649 CURVE SMOOTH",
"393 677 OFFCURVE",
"360 712 OFFCURVE",
"360 764 CURVE SMOOTH",
"360 825 OFFCURVE",
"400 869 OFFCURVE",
"458 892 CURVE SMOOTH",
"487 903 OFFCURVE",
"521 909 OFFCURVE",
"557 909 CURVE SMOOTH",
"665 909 OFFCURVE",
"745 852 OFFCURVE",
"747 748 CURVE"
);
}
);
width = 1012;
},
{
anchors = (
{
name = top;
position = "{659, 1036}";
}
);
guideLines = (
{
position = "{0, -27}";
},
{
position = "{0, 1079}";
},
{
angle = 90;
position = "{-47, 0}";
},
{
angle = 90;
position = "{-47, 0}";
}
);
layerId = "f6e6aac4-f32e-46b3-99a1-e6d41dab8022";
paths = (
{
closed = 1;
nodes = (
"1036 727 LINE",
"1057 818 OFFCURVE",
"1079 910 OFFCURVE",
"1100 1001 CURVE",
"890 1001 LINE",
"827 1038 OFFCURVE",
"737 1067 OFFCURVE",
"625 1067 CURVE SMOOTH",
"381 1067 OFFCURVE",
"164 952 OFFCURVE",
"164 727 CURVE SMOOTH",
"164 589 OFFCURVE",
"262 457 OFFCURVE",
"451 410 CURVE SMOOTH",
"495 399 OFFCURVE",
"538 388 OFFCURVE",
"582 377 CURVE SMOOTH",
"645 360 OFFCURVE",
"666 336 OFFCURVE",
"666 303 CURVE SMOOTH",
"666 248 OFFCURVE",
"608 211 OFFCURVE",
"516 211 CURVE SMOOTH",
"432 211 OFFCURVE",
"378 250 OFFCURVE",
"389 323 CURVE SMOOTH",
"390 329 OFFCURVE",
"392 334 OFFCURVE",
"393 340 CURVE",
"94 340 LINE",
"73 249 OFFCURVE",
"52 157 OFFCURVE",
"31 66 CURVE",
"196 66 LINE",
"254 3 OFFCURVE",
"357 -31 OFFCURVE",
"510 -31 CURVE SMOOTH",
"746 -31 OFFCURVE",
"991 79 OFFCURVE",
"991 352 CURVE SMOOTH",
"991 474 OFFCURVE",
"913 602 OFFCURVE",
"707 647 CURVE SMOOTH",
"652 659 OFFCURVE",
"598 670 OFFCURVE",
"543 682 CURVE SMOOTH",
"496 692 OFFCURVE",
"483 717 OFFCURVE",
"483 737 CURVE SMOOTH",
"483 788 OFFCURVE",
"543 813 OFFCURVE",
"616 813 CURVE SMOOTH",
"696 813 OFFCURVE",
"759 787 OFFCURVE",
"767 733 CURVE",
"767 731 OFFCURVE",
"766 729 OFFCURVE",
"766 727 CURVE"
);
}
);
width = 1018;
}
);
unicode = 0073;
},
{
color = (153,188,255,255);
glyphname = t;
layers = (
{
layerId = "608d70f7-2164-4884-8595-c4dfe8e6ed08";
paths = (
{
closed = 1;
nodes = (
"147 864 LINE",
"318 864 LINE",
"174 276 LINE",
"122 53 OFFCURVE",
"243 -25 OFFCURVE",
"411 -25 CURVE SMOOTH",
"491 -25 OFFCURVE",
"552 -4 OFFCURVE",
"622 29 CURVE",
"606 172 LINE",
"552 150 OFFCURVE",
"507 139 OFFCURVE",
"468 139 CURVE SMOOTH",
"399 139 OFFCURVE",
"366 162 OFFCURVE",
"366 221 CURVE SMOOTH",
"366 252 OFFCURVE",
"374 279 OFFCURVE",
"380 305 CURVE",
"512 864 LINE",
"731 864 LINE",
"772 1036 LINE",
"553 1036 LINE",
"632 1370 LINE",
"421 1284 LINE",
"360 1036 LINE",
"188 1036 LINE"
);
}
);
width = 799;
},
{
layerId = "f6e6aac4-f32e-46b3-99a1-e6d41dab8022";
paths = (
{
closed = 1;
nodes = (
"82 762 LINE",
"273 762 LINE",
"168 315 LINE",
"104 53 OFFCURVE",
"209 -25 OFFCURVE",
"401 -25 CURVE SMOOTH",
"522 -25 OFFCURVE",
"602 -6 OFFCURVE",
"686 27 CURVE",
"682 256 LINE",
"645 246 OFFCURVE",
"612 240 OFFCURVE",
"584 240 CURVE SMOOTH",
"549 240 OFFCURVE",
"518 254 OFFCURVE",
"518 307 CURVE SMOOTH",
"518 336 OFFCURVE",
"522 360 OFFCURVE",
"530 391 CURVE",
"617 762 LINE",
"809 762 LINE",
"872 1036 LINE",
"682 1036 LINE",
"780 1448 LINE",
"397 1284 LINE",
"338 1036 LINE",
"145 1036 LINE"
);
}
);
width = 811;
}
);
unicode = 0074;
},
{
color = (153,188,255,255);
glyphname = u;
layers = (
{
anchors = (
{
name = top;
position = "{701, 1036}";
}
);
layerId = "608d70f7-2164-4884-8595-c4dfe8e6ed08";
paths = (
{
closed = 1;
nodes = (
"804 864 LINE",
"940 864 LINE",
"808 298 LINE",
"742 195 OFFCURVE",
"641 150 OFFCURVE",
"563 150 CURVE SMOOTH",
"389 150 OFFCURVE",
"337 262 OFFCURVE",
"395 510 CURVE SMOOTH",
"518 1036 LINE",
"178 1036 LINE",
"137 864 LINE",
"277 864 LINE",
"182 451 LINE",
"131 233 OFFCURVE",
"186 125 OFFCURVE",
"253 59 CURVE",
"307 8 OFFCURVE",
"393 -18 OFFCURVE",
"483 -18 CURVE SMOOTH",
"568 -18 OFFCURVE",
"689 17 OFFCURVE",
"773 105 CURVE",
"749 0 LINE",
"1097 0 LINE",
"1136 172 LINE",
"981 172 LINE",
"1181 1036 LINE",
"845 1036 LINE"
);
}
);
width = 1290;
},
{
anchors = (
{
name = top;
position = "{800, 1036}";
}
);
layerId = "f6e6aac4-f32e-46b3-99a1-e6d41dab8022";
paths = (
{
closed = 1;
nodes = (
"782 762 LINE",
"940 762 LINE",
"846 355 LINE",
"797 300 OFFCURVE",
"731 264 OFFCURVE",
"666 264 CURVE SMOOTH",
"561 264 OFFCURVE",
"500 336 OFFCURVE",
"526 451 CURVE SMOOTH",
"662 1036 LINE",
"174 1036 LINE",
"111 762 LINE",
"278 762 LINE",
"201 426 LINE",
"162 260 OFFCURVE",
"203 147 OFFCURVE",
"279 72 CURVE",
"338 12 OFFCURVE",
"426 -12 OFFCURVE",
"522 -12 CURVE SMOOTH",
"637 -12 OFFCURVE",
"721 22 OFFCURVE",
"793 81 CURVE",
"774 0 LINE",
"1274 0 LINE",
"1337 274 LINE",
"1146 274 LINE",
"1323 1036 LINE",
"846 1036 LINE"
);
}
);
width = 1356;
}
);
unicode = 0075;
},
{
color = (153,188,255,255);
glyphname = v;
layers = (
{
anchors = (
{
name = top;
position = "{274, 1036}";
}
);
guideLines = (
{
position = "{0, 969}";
},
{
angle = 90;
position = "{-95, 0}";
}
);
layerId = "608d70f7-2164-4884-8595-c4dfe8e6ed08";
paths = (
{
closed = 1;
nodes = (
"96 864 LINE",
"194 864 LINE",
"309 -16 LINE",
"485 -16 LINE",
"1080 864 LINE",
"1159 864 LINE",
"1200 1036 LINE",
"821 1036 LINE",
"780 864 LINE",
"865 864 LINE",
"457 225 LINE",
"396 864 LINE",
"475 864 LINE",
"516 1036 LINE",
"137 1036 LINE"
);
}
);
width = 1165;
},
{
anchors = (
{
name = top;
position = "{729, 1036}";
}
);
guideLines = (
{
position = "{0, 969}";
},
{
angle = 90;
position = "{-68, 0}";
}
);
layerId = "f6e6aac4-f32e-46b3-99a1-e6d41dab8022";
paths = (
{
closed = 1;
nodes = (
"41 762 LINE",
"156 762 LINE",
"297 0 LINE",
"635 0 LINE",
"1127 762 LINE",
"1223 762 LINE",
"1286 1036 LINE",
"774 1036 LINE",
"711 762 LINE",
"799 762 LINE",
"541 341 LINE",
"472 762 LINE",
"553 762 LINE",
"616 1036 LINE",
"104 1036 LINE"
);
}
);
width = 1133;
}
);
unicode = 0076;
},
{
color = (153,188,255,255);
glyphname = w;
layers = (
{
anchors = (
{
name = top;
position = "{563, 1036}";
}
);
guideLines = (
{
position = "{0, 1710}";
},
{
position = "{0, -170}";
},
{
position = "{0, 301}";
},
{
position = "{0, 969}";
},
{
angle = 90;
position = "{-1395, 0}";
},
{
angle = 90;
position = "{-76, 0}";
},
{
angle = 90;
position = "{-76, 0}";
},
{
angle = 90;
position = "{-76, 0}";
}
);
layerId = "608d70f7-2164-4884-8595-c4dfe8e6ed08";
paths = (
{
closed = 1;
nodes = (
"96 864 LINE",
"199 864 LINE",
"274 -16 LINE",
"471 -16 LINE",
"884 778 LINE",
"888 778 LINE",
"925 -16 LINE",
"1122 -16 LINE",
"1604 864 LINE",
"1693 864 LINE",
"1734 1036 LINE",
"1355 1036 LINE",
"1314 864 LINE",
"1411 864 LINE",
"1077 240 LINE",
"1036 1036 LINE",
"843 1036 LINE",
"428 240 LINE",
"395 864 LINE",
"475 864 LINE",
"516 1036 LINE",
"137 1036 LINE"
);
}
);
width = 1669;
},
{
anchors = (
{
name = top;
position = "{932, 1036}";
}
);
guideLines = (
{
position = "{0, 1710}";
},
{
position = "{0, -170}";
},
{
position = "{0, 301}";
},
{
position = "{0, 969}";
},
{
angle = 90;
position = "{-1272, 0}";
},
{
angle = 90;
position = "{-49, 0}";
},
{
angle = 90;
position = "{-49, 0}";
},
{
angle = 90;
position = "{-49, 0}";
}
);
layerId = "f6e6aac4-f32e-46b3-99a1-e6d41dab8022";
paths = (
{
closed = 1;
nodes = (
"31 762 LINE",
"133 762 LINE",
"215 0 LINE",
"539 0 LINE",
"899 614 LINE",
"903 614 LINE",
"969 0 LINE",
"1305 0 LINE",
"1764 762 LINE",
"1860 762 LINE",
"1923 1036 LINE",
"1411 1036 LINE",
"1348 762 LINE",
"1440 762 LINE",
"1235 406 LINE",
"1174 1036 LINE",
"840 1036 LINE",
"500 446 LINE",
"476 762 LINE",
"543 762 LINE",
"606 1036 LINE",
"94 1036 LINE"
);
}
);
width = 1780;
}
);
unicode = 0077;
},
{
color = (153,188,255,255);
glyphname = x;
layers = (
{
anchors = (
{
name = top;
position = "{331, 1036}";
}
);
guideLines = (
{
position = "{0, 1036}";
},
{
angle = 90;
position = "{794, 0}";
},
{
angle = 90;
position = "{-60, 0}";
},
{
angle = 90;
position = "{364, 0}";
},
{
angle = 90;
position = "{489, 0}";
}
);
layerId = "608d70f7-2164-4884-8595-c4dfe8e6ed08";
paths = (
{
closed = 1;
nodes = (
"585 0 LINE",
"964 0 LINE",
"1003 172 LINE",
"908 172 LINE",
"674 523 LINE",
"1048 864 LINE",
"1122 864 LINE",
"1163 1036 LINE",
"784 1036 LINE",
"743 864 LINE",
"816 864 LINE",
"591 642 LINE",
"454 864 LINE",
"520 864 LINE",
"561 1036 LINE",
"182 1036 LINE",
"141 864 LINE",
"249 864 LINE",
"476 537 LINE",
"87 172 LINE",
"2 172 LINE",
"-37 0 LINE",
"342 0 LINE",
"380 172 LINE",
"316 172 LINE",
"553 410 LINE",
"699 172 LINE",
"624 172 LINE"
);
}
);
width = 1137;
},
{
anchors = (
{
name = top;
position = "{442, 1036}";
}
);
guideLines = (
{
position = "{0, 1036}";
},
{
angle = 90;
position = "{1059, 0}";
},
{
angle = 90;
position = "{-80, 0}";
},
{
angle = 90;
position = "{371, 0}";
},
{
angle = 90;
position = "{496, 0}";
}
);
layerId = "f6e6aac4-f32e-46b3-99a1-e6d41dab8022";
paths = (
{
closed = 1;
nodes = (
"614 0 LINE",
"1112 0 LINE",
"1176 274 LINE",
"1069 274 LINE",
"880 516 LINE",
"1185 762 LINE",
"1286 762 LINE",
"1350 1036 LINE",
"838 1036 LINE",
"774 762 LINE",
"837 762 LINE",
"701 658 LINE",
"612 762 LINE",
"692 762 LINE",
"756 1036 LINE",
"244 1036 LINE",
"180 762 LINE",
"302 762 LINE",
"477 538 LINE",
"149 274 LINE",
"74 274 LINE",
"10 0 LINE",
"508 0 LINE",
"571 274 LINE",
"497 274 LINE",
"654 392 LINE",
"751 274 LINE",
"678 274 LINE"
);
}
);
width = 1237;
}
);
unicode = 0078;
},
{
color = (153,188,255,255);
glyphname = y;
layers = (
{
anchors = (
{
name = top;
position = "{672, 1036}";
}
);
layerId = "608d70f7-2164-4884-8595-c4dfe8e6ed08";
paths = (
{
closed = 1;
nodes = (
"110 864 LINE",
"208 864 LINE",
"322 -9 LINE",
"137 -299 LINE",
"36 -299 LINE",
"-7 -471 LINE",
"403 -471 LINE",
"446 -299 LINE",
"345 -299 LINE",
"1087 864 LINE",
"1173 864 LINE",
"1214 1036 LINE",
"835 1036 LINE",
"794 864 LINE",
"879 864 LINE",
"472 227 LINE",
"410 864 LINE",
"489 864 LINE",
"530 1036 LINE",
"151 1036 LINE"
);
}
);
width = 1180;
},
{
anchors = (
{
name = top;
position = "{687, 1036}";
}
);
layerId = "f6e6aac4-f32e-46b3-99a1-e6d41dab8022";
paths = (
{
closed = 1;
nodes = (
"43 762 LINE",
"148 762 LINE",
"315 3 LINE",
"189 -197 LINE",
"53 -197 LINE",
"-20 -471 LINE",
"553 -471 LINE",
"627 -197 LINE",
"502 -197 LINE",
"1136 762 LINE",
"1217 762 LINE",
"1280 1036 LINE",
"768 1036 LINE",
"705 762 LINE",
"790 762 LINE",
"544 369 LINE",
"478 762 LINE",
"555 762 LINE",
"618 1036 LINE",
"106 1036 LINE"
);
}
);
width = 1126;
}
);
unicode = 0079;
},
{
color = (153,188,255,255);
glyphname = z;
layers = (
{
anchors = (
{
name = top;
position = "{631, 1036}";
}
);
associatedMasterId = "f6e6aac4-f32e-46b3-99a1-e6d41dab8022";
layerId = "087800cf-c0cd-4c6e-bb98-b375108ebc92";
name = img;
width = 0;
},
{
anchors = (
{
name = top;
position = "{622, 1036}";
}
);
guideLines = (
{
position = "{0, -639}";
},
{
angle = 90;
position = "{-111, 0}";
}
);
layerId = "608d70f7-2164-4884-8595-c4dfe8e6ed08";
paths = (
{
closed = 1;
nodes = (
"-17 0 LINE",
"804 0 LINE",
"882 338 LINE",
"686 338 LINE",
"645 160 LINE",
"279 160 LINE",
"993 915 LINE",
"1019 1036 LINE",
"229 1036 LINE",
"157 729 LINE",
"354 729 LINE",
"389 877 LINE",
"726 877 LINE",
"8 117 LINE"
);
}
);
width = 995;
},
{
anchors = (
{
name = top;
position = "{631, 1036}";
}
);
guideLines = (
{
position = "{0, -639}";
},
{
angle = 90;
position = "{-14, 0}";
}
);
layerId = "f6e6aac4-f32e-46b3-99a1-e6d41dab8022";
paths = (
{
closed = 1;
nodes = (
"41 0 LINE",
"956 0 LINE",
"1059 451 LINE",
"799 451 LINE",
"756 268 LINE",
"534 268 LINE",
"1112 856 LINE",
"1153 1036 LINE",
"246 1036 LINE",
"150 614 LINE",
"410 614 LINE",
"446 770 LINE",
"652 770 LINE",
"78 164 LINE"
);
}
);
width = 1092;
}
);
unicode = 007A;
},
{
color = (153,188,255,255);
glyphname = comma;
layers = (
{
layerId = "608d70f7-2164-4884-8595-c4dfe8e6ed08";
paths = (
{
closed = 1;
nodes = (
"-27 -287 LINE",
"120 -342 LINE",
"380 197 LINE",
"157 283 LINE"
);
}
);
width = 530;
},
{
layerId = "f6e6aac4-f32e-46b3-99a1-e6d41dab8022";
paths = (
{
closed = 1;
nodes = (
"0 -287 LINE",
"205 -365 LINE",
"489 176 LINE",
"184 283 LINE"
);
}
);
width = 551;
}
);
unicode = 002C;
},
{
color = (153,188,255,255);
glyphname = hyphen;
layers = (
{
layerId = "608d70f7-2164-4884-8595-c4dfe8e6ed08";
paths = (
{
closed = 1;
nodes = (
"708 496 LINE",
"747 668 LINE",
"176 668 LINE",
"137 496 LINE"
);
}
);
width = 856;
},
{
layerId = "f6e6aac4-f32e-46b3-99a1-e6d41dab8022";
paths = (
{
closed = 1;
nodes = (
"770 449 LINE",
"834 723 LINE",
"207 723 LINE",
"143 449 LINE"
);
}
);
width = 831;
}
);
unicode = 002D;
},
{
color = (166,255,153,255);
glyphname = zero;
layers = (
{
layerId = "608d70f7-2164-4884-8595-c4dfe8e6ed08";
paths = (
{
closed = 1;
nodes = (
"1071 -18 OFFCURVE",
"1368 565 OFFCURVE",
"1368 1024 CURVE SMOOTH",
"1368 1303 OFFCURVE",
"1239 1540 OFFCURVE",
"918 1540 CURVE SMOOTH",
"430 1540 OFFCURVE",
"143 934 OFFCURVE",
"143 492 CURVE SMOOTH",
"143 203 OFFCURVE",
"279 -18 OFFCURVE",
"594 -18 CURVE SMOOTH"
);
},
{
closed = 1;
nodes = (
"418 166 OFFCURVE",
"352 317 OFFCURVE",
"352 504 CURVE SMOOTH",
"352 819 OFFCURVE",
"586 1362 OFFCURVE",
"895 1362 CURVE SMOOTH",
"1094 1362 OFFCURVE",
"1159 1198 OFFCURVE",
"1159 1008 CURVE SMOOTH",
"1159 682 OFFCURVE",
"928 166 OFFCURVE",
"616 166 CURVE SMOOTH"
);
}
);
width = 1409;
},
{
layerId = "f6e6aac4-f32e-46b3-99a1-e6d41dab8022";
paths = (
{
closed = 1;
nodes = (
"1069 -14 OFFCURVE",
"1360 530 OFFCURVE",
"1360 1006 CURVE SMOOTH",
"1360 1300 OFFCURVE",
"1237 1534 OFFCURVE",
"911 1534 CURVE SMOOTH",
"381 1534 OFFCURVE",
"102 954 OFFCURVE",
"102 512 CURVE SMOOTH",
"102 213 OFFCURVE",
"229 -14 OFFCURVE",
"551 -14 CURVE SMOOTH"
);
},
{
closed = 1;
nodes = (
"473 293 OFFCURVE",
"426 401 OFFCURVE",
"426 547 CURVE SMOOTH",
"426 811 OFFCURVE",
"604 1231 OFFCURVE",
"842 1231 CURVE SMOOTH",
"989 1231 OFFCURVE",
"1036 1120 OFFCURVE",
"1036 977 CURVE SMOOTH",
"1036 707 OFFCURVE",
"860 293 OFFCURVE",
"623 293 CURVE SMOOTH"
);
}
);
width = 1360;
}
);
unicode = 0030;
},
{
color = (166,255,153,255);
glyphname = one;
layers = (
{
layerId = "608d70f7-2164-4884-8595-c4dfe8e6ed08";
paths = (
{
closed = 1;
nodes = (
"143 0 LINE",
"635 0 LINE",
"674 172 LINE",
"524 172 LINE",
"844 1559 LINE",
"764 1559 LINE",
"287 1323 LINE",
"240 1114 LINE",
"583 1281 LINE",
"329 172 LINE",
"182 172 LINE"
);
}
);
width = 844;
},
{
layerId = "f6e6aac4-f32e-46b3-99a1-e6d41dab8022";
paths = (
{
closed = 1;
nodes = (
"20 0 LINE",
"696 0 LINE",
"760 274 LINE",
"588 274 LINE",
"874 1518 LINE",
"729 1520 LINE",
"256 1274 LINE",
"174 926 LINE",
"440 1066 LINE",
"258 274 LINE",
"84 274 LINE"
);
}
);
width = 813;
}
);
unicode = 0031;
},
{
color = (166,255,153,255);
glyphname = two;
layers = (
{
layerId = "608d70f7-2164-4884-8595-c4dfe8e6ed08";
paths = (
{
closed = 1;
nodes = (
"-20 0 LINE",
"872 0 LINE",
"911 172 LINE",
"290 172 LINE",
"891 733 LINE SMOOTH",
"1098 928 OFFCURVE",
"1143 1026 OFFCURVE",
"1143 1182 CURVE SMOOTH",
"1143 1380 OFFCURVE",
"989 1542 OFFCURVE",
"762 1542 CURVE SMOOTH",
"516 1542 OFFCURVE",
"287 1378 OFFCURVE",
"223 1102 CURVE",
"430 1102 LINE",
"473 1264 OFFCURVE",
"594 1352 OFFCURVE",
"731 1352 CURVE SMOOTH",
"862 1352 OFFCURVE",
"944 1266 OFFCURVE",
"944 1157 CURVE SMOOTH",
"944 1014 OFFCURVE",
"799 891 OFFCURVE",
"694 793 CURVE",
"14 154 LINE"
);
}
);
width = 1143;
},
{
layerId = "f6e6aac4-f32e-46b3-99a1-e6d41dab8022";
paths = (
{
closed = 1;
nodes = (
"-41 0 LINE",
"948 0 LINE",
"1020 307 LINE",
"523 307 LINE",
"1038 752 LINE SMOOTH",
"1178 872 OFFCURVE",
"1219 991 OFFCURVE",
"1219 1126 CURVE SMOOTH",
"1219 1352 OFFCURVE",
"1042 1540 OFFCURVE",
"780 1540 CURVE SMOOTH",
"483 1540 OFFCURVE",
"264 1360 OFFCURVE",
"193 1044 CURVE",
"522 1044 LINE",
"551 1151 OFFCURVE",
"606 1241 OFFCURVE",
"737 1241 CURVE SMOOTH",
"831 1241 OFFCURVE",
"879 1178 OFFCURVE",
"879 1110 CURVE SMOOTH",
"879 1010 OFFCURVE",
"817 934 OFFCURVE",
"672 817 CURVE",
"18 260 LINE"
);
}
);
width = 1137;
}
);
unicode = 0032;
},
{
color = (166,255,153,255);
glyphname = three;
layers = (
{
layerId = "608d70f7-2164-4884-8595-c4dfe8e6ed08";
paths = (
{
closed = 1;
nodes = (
"938 1004 OFFCURVE",
"799 872 OFFCURVE",
"598 872 CURVE SMOOTH",
"524 872 LINE",
"489 715 LINE",
"578 715 LINE SMOOTH",
"711 715 OFFCURVE",
"805 627 OFFCURVE",
"805 496 CURVE SMOOTH",
"805 301 OFFCURVE",
"662 141 OFFCURVE",
"465 141 CURVE SMOOTH",
"313 141 OFFCURVE",
"225 244 OFFCURVE",
"223 371 CURVE",
"23 371 LINE",
"20 330 OFFCURVE",
"25 293 OFFCURVE",
"33 258 CURVE",
"68 82 OFFCURVE",
"250 -31 OFFCURVE",
"440 -31 CURVE SMOOTH",
"770 -31 OFFCURVE",
"1012 203 OFFCURVE",
"1012 514 CURVE SMOOTH",
"1012 644 OFFCURVE",
"946 748 OFFCURVE",
"857 790 CURVE",
"1066 864 OFFCURVE",
"1145 1019 OFFCURVE",
"1145 1182 CURVE SMOOTH",
"1145 1405 OFFCURVE",
"965 1546 OFFCURVE",
"731 1546 CURVE SMOOTH",
"469 1546 OFFCURVE",
"256 1393 OFFCURVE",
"215 1149 CURVE",
"416 1147 LINE",
"422 1171 OFFCURVE",
"422 1169 OFFCURVE",
"426 1182 CURVE SMOOTH",
"457 1280 OFFCURVE",
"549 1374 OFFCURVE",
"713 1374 CURVE SMOOTH",
"846 1374 OFFCURVE",
"938 1266 OFFCURVE",
"938 1151 CURVE SMOOTH"
);
}
);
width = 1124;
},
{
layerId = "f6e6aac4-f32e-46b3-99a1-e6d41dab8022";
paths = (
{
closed = 1;
nodes = (
"907 1010 OFFCURVE",
"819 924 OFFCURVE",
"680 924 CURVE SMOOTH",
"539 924 LINE",
"475 651 LINE",
"614 651 LINE SMOOTH",
"725 651 OFFCURVE",
"786 598 OFFCURVE",
"786 502 CURVE SMOOTH",
"786 381 OFFCURVE",
"666 283 OFFCURVE",
"537 283 CURVE SMOOTH",
"434 283 OFFCURVE",
"373 348 OFFCURVE",
"397 487 CURVE",
"55 487 LINE",
"47 457 OFFCURVE",
"49 434 OFFCURVE",
"47 416 CURVE",
"10 178 OFFCURVE",
"184 -18 OFFCURVE",
"463 -18 CURVE SMOOTH",
"848 -18 OFFCURVE",
"1145 233 OFFCURVE",
"1145 547 CURVE SMOOTH",
"1145 655 OFFCURVE",
"1101 751 OFFCURVE",
"1038 795 CURVE",
"1176 864 OFFCURVE",
"1266 989 OFFCURVE",
"1266 1174 CURVE SMOOTH",
"1266 1378 OFFCURVE",
"1077 1550 OFFCURVE",
"819 1550 CURVE SMOOTH",
"487 1550 OFFCURVE",
"248 1346 OFFCURVE",
"193 1065 CURVE",
"551 1063 LINE",
"553 1077 OFFCURVE",
"555 1083 OFFCURVE",
"559 1098 CURVE SMOOTH",
"578 1180 OFFCURVE",
"651 1251 OFFCURVE",
"750 1251 CURVE SMOOTH",
"852 1251 OFFCURVE",
"907 1180 OFFCURVE",
"907 1108 CURVE SMOOTH"
);
}
);
width = 1204;
}
);
unicode = 0033;
},
{
color = (166,255,153,255);
glyphname = four;
layers = (
{
layerId = "608d70f7-2164-4884-8595-c4dfe8e6ed08";
paths = (
{
closed = 1;
nodes = (
"20 438 LINE",
"650 438 LINE",
"588 172 LINE",
"438 172 LINE",
"399 0 LINE",
"891 0 LINE",
"930 172 LINE",
"785 172 LINE",
"847 438 LINE",
"1071 438 LINE",
"1112 610 LINE",
"887 610 LINE",
"948 874 LINE",
"748 860 LINE",
"690 610 LINE",
"298 610 LINE",
"1042 1516 LINE",
"811 1516 LINE",
"59 596 LINE"
);
}
);
width = 1153;
},
{
layerId = "f6e6aac4-f32e-46b3-99a1-e6d41dab8022";
paths = (
{
closed = 1;
nodes = (
"20 414 LINE",
"689 414 LINE",
"656 274 LINE",
"481 274 LINE",
"418 0 LINE",
"1094 0 LINE",
"1157 274 LINE",
"970 274 LINE",
"1003 414 LINE",
"1214 414 LINE",
"1272 668 LINE",
"1061 668 LINE",
"1130 965 LINE",
"815 961 LINE",
"747 668 LINE",
"449 668 LINE",
"1176 1516 LINE",
"813 1516 LINE",
"76 670 LINE"
);
}
);
width = 1251;
}
);
unicode = 0034;
},
{
color = (166,255,153,255);
glyphname = five;
layers = (
{
layerId = "608d70f7-2164-4884-8595-c4dfe8e6ed08";
paths = (
{
closed = 1;
nodes = (
"516 1343 LINE",
"1192 1343 LINE",
"1233 1516 LINE",
"369 1516 LINE",
"184 729 LINE",
"338 700 LINE",
"412 762 OFFCURVE",
"514 803 OFFCURVE",
"621 803 CURVE SMOOTH",
"780 803 OFFCURVE",
"887 688 OFFCURVE",
"887 539 CURVE SMOOTH",
"887 287 OFFCURVE",
"686 147 OFFCURVE",
"500 147 CURVE SMOOTH",
"328 147 OFFCURVE",
"233 256 OFFCURVE",
"203 375 CURVE",
"20 297 LINE",
"59 111 OFFCURVE",
"233 -31 OFFCURVE",
"481 -31 CURVE SMOOTH",
"780 -31 OFFCURVE",
"1090 168 OFFCURVE",
"1090 551 CURVE SMOOTH",
"1090 805 OFFCURVE",
"903 973 OFFCURVE",
"659 973 CURVE SMOOTH",
"562 973 OFFCURVE",
"490 952 OFFCURVE",
"415 910 CURVE"
);
}
);
width = 1192;
},
{
layerId = "f6e6aac4-f32e-46b3-99a1-e6d41dab8022";
paths = (
{
closed = 1;
nodes = (
"565 1210 LINE",
"1214 1210 LINE",
"1286 1516 LINE",
"324 1516 LINE",
"137 709 LINE",
"395 659 LINE",
"469 690 OFFCURVE",
"526 707 OFFCURVE",
"612 707 CURVE SMOOTH",
"729 707 OFFCURVE",
"799 623 OFFCURVE",
"799 530 CURVE SMOOTH",
"799 391 OFFCURVE",
"686 260 OFFCURVE",
"530 260 CURVE SMOOTH",
"416 260 OFFCURVE",
"340 336 OFFCURVE",
"352 461 CURVE",
"23 377 LINE",
"10 123 OFFCURVE",
"215 -31 OFFCURVE",
"459 -31 CURVE SMOOTH",
"829 -31 OFFCURVE",
"1128 217 OFFCURVE",
"1128 588 CURVE SMOOTH",
"1128 834 OFFCURVE",
"940 969 OFFCURVE",
"709 969 CURVE SMOOTH",
"626 969 OFFCURVE",
"560 956 OFFCURVE",
"502 937 CURVE"
);
}
);
width = 1163;
}
);
unicode = 0035;
},
{
color = (166,255,153,255);
glyphname = six;
layers = (
{
guideLines = (
{
position = "{0, 997}";
},
{
angle = 90;
position = "{0, 0}";
}
);
layerId = "608d70f7-2164-4884-8595-c4dfe8e6ed08";
paths = (
{
closed = 1;
nodes = (
"827 1516 LINE",
"348 919 LINE SMOOTH",
"184 714 OFFCURVE",
"124 563 OFFCURVE",
"124 416 CURVE SMOOTH",
"124 185 OFFCURVE",
"301 -10 OFFCURVE",
"581 -10 CURVE SMOOTH",
"893 -10 OFFCURVE",
"1184 217 OFFCURVE",
"1184 567 CURVE SMOOTH",
"1184 808 OFFCURVE",
"998 994 OFFCURVE",
"742 994 CURVE SMOOTH",
"713 994 OFFCURVE",
"676 992 OFFCURVE",
"626 977 CURVE",
"1071 1516 LINE"
);
},
{
closed = 1;
nodes = (
"850 839 OFFCURVE",
"984 734 OFFCURVE",
"984 562 CURVE SMOOTH",
"984 316 OFFCURVE",
"800 158 OFFCURVE",
"603 158 CURVE SMOOTH",
"428 158 OFFCURVE",
"324 275 OFFCURVE",
"324 426 CURVE SMOOTH",
"324 484 OFFCURVE",
"332 540 OFFCURVE",
"350 593 CURVE",
"428 760 OFFCURVE",
"543 839 OFFCURVE",
"703 839 CURVE SMOOTH"
);
}
);
width = 1253;
},
{
guideLines = (
{
position = "{0, 997}";
},
{
angle = 90;
position = "{-1, 0}";
}
);
layerId = "f6e6aac4-f32e-46b3-99a1-e6d41dab8022";
paths = (
{
closed = 1;
nodes = (
"755 1516 LINE",
"227 846 LINE SMOOTH",
"143 739 OFFCURVE",
"61 600 OFFCURVE",
"61 439 CURVE SMOOTH",
"61 254 OFFCURVE",
"164 -10 OFFCURVE",
"534 -10 CURVE SMOOTH",
"838 -10 OFFCURVE",
"1110 240 OFFCURVE",
"1110 545 CURVE SMOOTH",
"1110 758 OFFCURVE",
"958 975 OFFCURVE",
"711 975 CURVE SMOOTH",
"708 975 OFFCURVE",
"704 975 OFFCURVE",
"698 975 CURVE",
"1142 1516 LINE"
);
},
{
closed = 1;
nodes = (
"727 719 OFFCURVE",
"793 647 OFFCURVE",
"793 537 CURVE SMOOTH",
"793 385 OFFCURVE",
"670 267 OFFCURVE",
"535 267 CURVE SMOOTH",
"410 267 OFFCURVE",
"352 357 OFFCURVE",
"352 453 CURVE SMOOTH",
"352 519 OFFCURVE",
"376 571 OFFCURVE",
"404 613 CURVE",
"456 683 OFFCURVE",
"522 719 OFFCURVE",
"596 719 CURVE SMOOTH"
);
}
);
width = 1133;
}
);
unicode = 0036;
},
{
color = (166,255,153,255);
glyphname = seven;
layers = (
{
layerId = "608d70f7-2164-4884-8595-c4dfe8e6ed08";
paths = (
{
closed = 1;
nodes = (
"61 0 LINE",
"553 0 LINE",
"592 172 LINE",
"446 172 LINE",
"684 579 OFFCURVE",
"1002 1020 OFFCURVE",
"1260 1366 CURVE",
"1294 1516 LINE",
"293 1516 LINE",
"221 1206 LINE",
"416 1206 LINE",
"448 1343 LINE",
"1021 1343 LINE",
"811 1053 OFFCURVE",
"484 594 OFFCURVE",
"238 172 CURVE",
"100 172 LINE"
);
}
);
width = 1212;
},
{
layerId = "f6e6aac4-f32e-46b3-99a1-e6d41dab8022";
paths = (
{
closed = 1;
nodes = (
"80 0 LINE",
"756 0 LINE",
"819 274 LINE",
"662 274 LINE",
"894 617 OFFCURVE",
"1146 969 OFFCURVE",
"1374 1290 CURVE",
"1427 1516 LINE",
"279 1516 LINE",
"166 1032 LINE",
"494 1032 LINE",
"534 1204 LINE",
"925 1204 LINE",
"738 930 OFFCURVE",
"504 590 OFFCURVE",
"293 274 CURVE",
"143 274 LINE"
);
}
);
width = 1243;
}
);
unicode = 0037;
},
{
color = (166,255,153,255);
glyphname = eight;
layers = (
{
layerId = "608d70f7-2164-4884-8595-c4dfe8e6ed08";
paths = (
{
closed = 1;
nodes = (
"571 1544 OFFCURVE",
"330 1341 OFFCURVE",
"330 1092 CURVE SMOOTH",
"330 999 OFFCURVE",
"370 911 OFFCURVE",
"436 847 CURVE",
"242 764 OFFCURVE",
"102 589 OFFCURVE",
"102 383 CURVE SMOOTH",
"102 168 OFFCURVE",
"258 -16 OFFCURVE",
"518 -16 CURVE SMOOTH",
"856 -16 OFFCURVE",
"1104 217 OFFCURVE",
"1104 506 CURVE SMOOTH",
"1104 625 OFFCURVE",
"1045 736 OFFCURVE",
"952 809 CURVE",
"1099 888 OFFCURVE",
"1206 1031 OFFCURVE",
"1206 1196 CURVE SMOOTH",
"1206 1393 OFFCURVE",
"1053 1544 OFFCURVE",
"844 1544 CURVE SMOOTH"
);
},
{
closed = 1;
nodes = (
"297 575 OFFCURVE",
"469 727 OFFCURVE",
"670 727 CURVE SMOOTH",
"813 727 OFFCURVE",
"911 625 OFFCURVE",
"911 496 CURVE SMOOTH",
"911 324 OFFCURVE",
"768 164 OFFCURVE",
"541 164 CURVE SMOOTH",
"389 164 OFFCURVE",
"297 258 OFFCURVE",
"297 399 CURVE SMOOTH"
);
},
{
closed = 1;
nodes = (
"512 1245 OFFCURVE",
"659 1376 OFFCURVE",
"823 1376 CURVE SMOOTH",
"946 1376 OFFCURVE",
"1022 1294 OFFCURVE",
"1022 1180 CURVE SMOOTH",
"1022 1030 OFFCURVE",
"866 903 OFFCURVE",
"715 903 CURVE SMOOTH",
"592 903 OFFCURVE",
"512 989 OFFCURVE",
"512 1098 CURVE SMOOTH"
);
}
);
width = 1247;
},
{
layerId = "f6e6aac4-f32e-46b3-99a1-e6d41dab8022";
paths = (
{
closed = 1;
nodes = (
"522 1544 OFFCURVE",
"248 1319 OFFCURVE",
"248 1042 CURVE SMOOTH",
"248 957 OFFCURVE",
"283 873 OFFCURVE",
"344 807 CURVE",
"179 716 OFFCURVE",
"61 568 OFFCURVE",
"61 393 CURVE SMOOTH",
"61 178 OFFCURVE",
"238 -27 OFFCURVE",
"516 -27 CURVE SMOOTH",
"883 -27 OFFCURVE",
"1163 221 OFFCURVE",
"1163 500 CURVE SMOOTH",
"1163 605 OFFCURVE",
"1114 705 OFFCURVE",
"1034 779 CURVE",
"1177 865 OFFCURVE",
"1278 998 OFFCURVE",
"1278 1149 CURVE SMOOTH",
"1278 1397 OFFCURVE",
"1104 1544 OFFCURVE",
"860 1544 CURVE SMOOTH"
);
},
{
closed = 1;
nodes = (
"371 555 OFFCURVE",
"508 662 OFFCURVE",
"657 662 CURVE SMOOTH",
"772 662 OFFCURVE",
"850 588 OFFCURVE",
"850 496 CURVE SMOOTH",
"850 375 OFFCURVE",
"711 262 OFFCURVE",
"565 262 CURVE SMOOTH",
"449 262 OFFCURVE",
"371 340 OFFCURVE",
"371 432 CURVE SMOOTH"
);
},
{
closed = 1;
nodes = (
"551 1157 OFFCURVE",
"668 1255 OFFCURVE",
"795 1255 CURVE SMOOTH",
"891 1255 OFFCURVE",
"958 1188 OFFCURVE",
"958 1108 CURVE SMOOTH",
"958 1006 OFFCURVE",
"838 913 OFFCURVE",
"715 913 CURVE SMOOTH",
"616 913 OFFCURVE",
"551 977 OFFCURVE",
"551 1055 CURVE SMOOTH"
);
}
);
width = 1196;
}
);
unicode = 0038;
},
{
color = (166,255,153,255);
glyphname = nine;
layers = (
{
layerId = "608d70f7-2164-4884-8595-c4dfe8e6ed08";
paths = (
{
closed = 1;
nodes = (
"539 0 LINE",
"1020 601 LINE SMOOTH",
"1184 807 OFFCURVE",
"1244 957 OFFCURVE",
"1244 1104 CURVE SMOOTH",
"1244 1335 OFFCURVE",
"1067 1530 OFFCURVE",
"787 1530 CURVE SMOOTH",
"475 1530 OFFCURVE",
"184 1303 OFFCURVE",
"184 953 CURVE SMOOTH",
"184 712 OFFCURVE",
"370 526 OFFCURVE",
"626 526 CURVE SMOOTH",
"654 526 OFFCURVE",
"692 527 OFFCURVE",
"742 543 CURVE",
"295 0 LINE"
);
},
{
closed = 1;
nodes = (
"518 681 OFFCURVE",
"384 786 OFFCURVE",
"384 958 CURVE SMOOTH",
"384 1204 OFFCURVE",
"568 1362 OFFCURVE",
"765 1362 CURVE SMOOTH",
"940 1362 OFFCURVE",
"1044 1245 OFFCURVE",
"1044 1094 CURVE SMOOTH",
"1044 1037 OFFCURVE",
"1037 982 OFFCURVE",
"1019 929 CURVE",
"941 760 OFFCURVE",
"825 681 OFFCURVE",
"665 681 CURVE SMOOTH"
);
}
);
width = 1294;
},
{
layerId = "f6e6aac4-f32e-46b3-99a1-e6d41dab8022";
paths = (
{
closed = 1;
nodes = (
"479 0 LINE",
"1010 678 LINE SMOOTH",
"1094 786 OFFCURVE",
"1176 924 OFFCURVE",
"1176 1085 CURVE SMOOTH",
"1176 1270 OFFCURVE",
"1073 1534 OFFCURVE",
"703 1534 CURVE SMOOTH",
"399 1534 OFFCURVE",
"127 1284 OFFCURVE",
"127 979 CURVE SMOOTH",
"127 766 OFFCURVE",
"279 549 OFFCURVE",
"526 549 CURVE SMOOTH",
"529 549 OFFCURVE",
"534 549 OFFCURVE",
"540 549 CURVE",
"92 0 LINE"
);
},
{
closed = 1;
nodes = (
"510 805 OFFCURVE",
"444 877 OFFCURVE",
"444 987 CURVE SMOOTH",
"444 1139 OFFCURVE",
"567 1257 OFFCURVE",
"702 1257 CURVE SMOOTH",
"827 1257 OFFCURVE",
"885 1167 OFFCURVE",
"885 1071 CURVE SMOOTH",
"885 1004 OFFCURVE",
"861 952 OFFCURVE",
"833 911 CURVE",
"780 840 OFFCURVE",
"715 805 OFFCURVE",
"641 805 CURVE SMOOTH"
);
}
);
width = 1118;
}
);
unicode = 0039;
},
{
color = (153,188,255,255);
glyphname = exclam;
layers = (
{
components = (
{
alignment = -1;
name = dotaccent;
transform = "{1, 0, 0, 1, -33, -1282}";
}
);
layerId = "608d70f7-2164-4884-8595-c4dfe8e6ed08";
paths = (
{
closed = 1;
nodes = (
"284 410 LINE",
"462 410 LINE",
"774 1577 LINE",
"514 1577 LINE"
);
}
);
width = 842;
},
{
components = (
{
alignment = -1;
name = dotaccent;
transform = "{1, 0, 0, 1, 144, -1225}";
}
);
layerId = "f6e6aac4-f32e-46b3-99a1-e6d41dab8022";
paths = (
{
closed = 1;
nodes = (
"329 516 LINE",
"622 516 LINE",
"908 1577 LINE",
"533 1577 LINE"
);
}
);
width = 866;
}
);
unicode = 0021;
},
{
color = (166,255,153,255);
glyphname = percent;
layers = (
{
layerId = "608d70f7-2164-4884-8595-c4dfe8e6ed08";
paths = (
{
closed = 1;
nodes = (
"160 965 OFFCURVE",
"276 834 OFFCURVE",
"446 834 CURVE SMOOTH",
"684 834 OFFCURVE",
"862 1020 OFFCURVE",
"862 1223 CURVE SMOOTH",
"862 1366 OFFCURVE",
"741 1499 OFFCURVE",
"575 1499 CURVE SMOOTH",
"346 1499 OFFCURVE",
"160 1319 OFFCURVE",
"160 1108 CURVE SMOOTH"
);
},
{
closed = 1;
nodes = (
"631 1335 OFFCURVE",
"686 1278 OFFCURVE",
"686 1200 CURVE SMOOTH",
"686 1090 OFFCURVE",
"579 995 OFFCURVE",
"471 995 CURVE SMOOTH",
"387 995 OFFCURVE",
"334 1055 OFFCURVE",
"334 1137 CURVE SMOOTH",
"334 1247 OFFCURVE",
"442 1335 OFFCURVE",
"551 1335 CURVE SMOOTH"
);
},
{
closed = 1;
nodes = (
"20 -16 LINE",
"246 -16 LINE",
"1646 1540 LINE",
"1421 1540 LINE"
);
},
{
closed = 1;
nodes = (
"844 108 OFFCURVE",
"960 -25 OFFCURVE",
"1130 -25 CURVE SMOOTH",
"1370 -25 OFFCURVE",
"1546 163 OFFCURVE",
"1546 366 CURVE SMOOTH",
"1546 510 OFFCURVE",
"1425 641 OFFCURVE",
"1259 641 CURVE SMOOTH",
"1030 641 OFFCURVE",
"844 462 OFFCURVE",
"844 252 CURVE SMOOTH"
);
},
{
closed = 1;
nodes = (
"1315 477 OFFCURVE",
"1370 419 OFFCURVE",
"1370 342 CURVE SMOOTH",
"1370 231 OFFCURVE",
"1263 137 OFFCURVE",
"1155 137 CURVE SMOOTH",
"1071 137 OFFCURVE",
"1020 196 OFFCURVE",
"1020 278 CURVE SMOOTH",
"1020 389 OFFCURVE",
"1126 477 OFFCURVE",
"1235 477 CURVE SMOOTH"
);
}
);
width = 1671;
},
{
layerId = "f6e6aac4-f32e-46b3-99a1-e6d41dab8022";
paths = (
{
closed = 1;
nodes = (
"168 936 OFFCURVE",
"305 774 OFFCURVE",
"510 774 CURVE SMOOTH",
"784 774 OFFCURVE",
"991 989 OFFCURVE",
"991 1225 CURVE SMOOTH",
"991 1403 OFFCURVE",
"852 1561 OFFCURVE",
"649 1561 CURVE SMOOTH",
"383 1561 OFFCURVE",
"168 1354 OFFCURVE",
"168 1108 CURVE SMOOTH"
);
},
{
closed = 1;
nodes = (
"668 1284 OFFCURVE",
"705 1249 OFFCURVE",
"705 1192 CURVE SMOOTH",
"705 1112 OFFCURVE",
"629 1049 OFFCURVE",
"553 1049 CURVE SMOOTH",
"494 1049 OFFCURVE",
"461 1092 OFFCURVE",
"461 1145 CURVE SMOOTH",
"461 1227 OFFCURVE",
"528 1284 OFFCURVE",
"606 1284 CURVE SMOOTH"
);
},
{
closed = 1;
nodes = (
"164 -16 LINE",
"547 -16 LINE",
"1948 1540 LINE",
"1565 1540 LINE"
);
},
{
closed = 1;
nodes = (
"1107 131 OFFCURVE",
"1246 -25 OFFCURVE",
"1449 -25 CURVE SMOOTH",
"1727 -25 OFFCURVE",
"1930 184 OFFCURVE",
"1930 423 CURVE SMOOTH",
"1930 602 OFFCURVE",
"1793 761 OFFCURVE",
"1590 761 CURVE SMOOTH",
"1322 761 OFFCURVE",
"1107 546 OFFCURVE",
"1107 305 CURVE SMOOTH"
);
},
{
closed = 1;
nodes = (
"1605 485 OFFCURVE",
"1643 450 OFFCURVE",
"1643 393 CURVE SMOOTH",
"1643 313 OFFCURVE",
"1570 249 OFFCURVE",
"1494 249 CURVE SMOOTH",
"1435 249 OFFCURVE",
"1400 292 OFFCURVE",
"1400 341 CURVE SMOOTH",
"1400 428 OFFCURVE",
"1467 485 OFFCURVE",
"1545 485 CURVE SMOOTH"
);
}
);
width = 1927;
}
);
unicode = 0025;
},
{
color = (153,188,255,255);
glyphname = ampersand;
layers = (
{
layerId = "608d70f7-2164-4884-8595-c4dfe8e6ed08";
paths = (
{
closed = 1;
nodes = (
"1028 51 OFFCURVE",
"974 122 OFFCURVE",
"921 193 CURVE",
"791 60 OFFCURVE",
"633 -31 OFFCURVE",
"448 -31 CURVE SMOOTH",
"233 -31 OFFCURVE",
"75 141 OFFCURVE",
"75 356 CURVE SMOOTH",
"75 578 OFFCURVE",
"261 745 OFFCURVE",
"450 821 CURVE",
"400 890 OFFCURVE",
"323 981 OFFCURVE",
"323 1130 CURVE SMOOTH",
"323 1364 OFFCURVE",
"524 1544 OFFCURVE",
"772 1544 CURVE SMOOTH",
"962 1544 OFFCURVE",
"1112 1393 OFFCURVE",
"1112 1225 CURVE SMOOTH",
"1112 1040 OFFCURVE",
"1026 950 OFFCURVE",
"870 852 CURVE SMOOTH",
"821 819 OFFCURVE",
"769 791 OFFCURVE",
"715 765 CURVE",
"790 669 OFFCURVE",
"866 573 OFFCURVE",
"941 477 CURVE",
"1004 576 OFFCURVE",
"1052 678 OFFCURVE",
"1083 756 CURVE",
"1263 756 LINE",
"1212 622 OFFCURVE",
"1140 474 OFFCURVE",
"1047 343 CURVE",
"1112 261 OFFCURVE",
"1176 178 OFFCURVE",
"1241 96 CURVE",
"1188 57 OFFCURVE",
"1134 19 OFFCURVE",
"1081 -20 CURVE"
);
},
{
closed = 1;
nodes = (
"344 610 OFFCURVE",
"249 487 OFFCURVE",
"249 362 CURVE SMOOTH",
"249 233 OFFCURVE",
"339 137 OFFCURVE",
"473 137 CURVE SMOOTH",
"609 137 OFFCURVE",
"727 215 OFFCURVE",
"824 322 CURVE",
"732 445 OFFCURVE",
"639 569 OFFCURVE",
"547 692 CURVE SMOOTH",
"517 680 OFFCURVE",
"487 669 OFFCURVE",
"458 657 CURVE"
);
},
{
closed = 1;
nodes = (
"890 1065 OFFCURVE",
"935 1128 OFFCURVE",
"935 1200 CURVE SMOOTH",
"935 1298 OFFCURVE",
"856 1382 OFFCURVE",
"755 1382 CURVE SMOOTH",
"608 1382 OFFCURVE",
"493 1274 OFFCURVE",
"493 1139 CURVE SMOOTH",
"493 1049 OFFCURVE",
"541 986 OFFCURVE",
"616 891 CURVE",
"697 926 OFFCURVE",
"774 964 OFFCURVE",
"839 1020 CURVE SMOOTH"
);
}
);
width = 1382;
},
{
layerId = "f6e6aac4-f32e-46b3-99a1-e6d41dab8022";
paths = (
{
closed = 1;
nodes = (
"975 -4 OFFCURVE",
"934 52 OFFCURVE",
"893 107 CURVE",
"775 25 OFFCURVE",
"631 -25 OFFCURVE",
"459 -25 CURVE SMOOTH",
"217 -25 OFFCURVE",
"41 165 OFFCURVE",
"41 385 CURVE SMOOTH",
"41 576 OFFCURVE",
"156 716 OFFCURVE",
"365 820 CURVE",
"309 898 OFFCURVE",
"276 978 OFFCURVE",
"276 1085 CURVE SMOOTH",
"276 1358 OFFCURVE",
"471 1544 OFFCURVE",
"756 1544 CURVE SMOOTH",
"981 1544 OFFCURVE",
"1141 1370 OFFCURVE",
"1141 1196 CURVE SMOOTH",
"1141 1006 OFFCURVE",
"1032 905 OFFCURVE",
"872 805 CURVE SMOOTH",
"847 789 OFFCURVE",
"822 775 OFFCURVE",
"796 760 CURVE",
"840 704 OFFCURVE",
"885 647 OFFCURVE",
"929 591 CURVE",
"959 650 OFFCURVE",
"981 709 OFFCURVE",
"995 764 CURVE",
"1286 764 LINE",
"1256 619 OFFCURVE",
"1202 473 OFFCURVE",
"1120 347 CURVE",
"1175 277 OFFCURVE",
"1231 207 OFFCURVE",
"1286 137 CURVE",
"1196 72 OFFCURVE",
"1106 6 OFFCURVE",
"1016 -59 CURVE"
);
},
{
closed = 1;
nodes = (
"419 556 OFFCURVE",
"358 503 OFFCURVE",
"358 408 CURVE SMOOTH",
"358 336 OFFCURVE",
"410 270 OFFCURVE",
"500 270 CURVE SMOOTH",
"580 270 OFFCURVE",
"654 298 OFFCURVE",
"719 342 CURVE",
"664 417 OFFCURVE",
"608 491 OFFCURVE",
"553 566 CURVE SMOOTH",
"542 581 OFFCURVE",
"531 596 OFFCURVE",
"520 611 CURVE"
);
},
{
closed = 1;
nodes = (
"821 1063 OFFCURVE",
"848 1106 OFFCURVE",
"848 1169 CURVE SMOOTH",
"848 1229 OFFCURVE",
"807 1278 OFFCURVE",
"743 1278 CURVE SMOOTH",
"651 1278 OFFCURVE",
"571 1208 OFFCURVE",
"571 1110 CURVE SMOOTH",
"571 1067 OFFCURVE",
"586 1022 OFFCURVE",
"640 959 CURVE",
"685 981 OFFCURVE",
"726 1002 OFFCURVE",
"758 1022 CURVE SMOOTH"
);
}
);
width = 1300;
}
);
unicode = 0026;
},
{
color = (153,188,255,255);
glyphname = quotesingle;
layers = (
{
layerId = "608d70f7-2164-4884-8595-c4dfe8e6ed08";
paths = (
{
closed = 1;
nodes = (
"404 1581 LINE",
"221 1569 LINE",
"150 1059 LINE",
"275 1059 LINE"
);
}
);
width = 414;
},
{
layerId = "f6e6aac4-f32e-46b3-99a1-e6d41dab8022";
paths = (
{
closed = 1;
nodes = (
"606 1593 LINE",
"317 1577 LINE",
"246 1059 LINE",
"465 1059 LINE"
);
}
);
width = 483;
}
);
unicode = 0027;
},
{
color = (153,188,255,255);
glyphname = quotedbl;
layers = (
{
associatedMasterId = "f6e6aac4-f32e-46b3-99a1-e6d41dab8022";
layerId = "087800cf-c0cd-4c6e-bb98-b375108ebc92";
name = img;
width = 0;
},
{
layerId = "608d70f7-2164-4884-8595-c4dfe8e6ed08";
paths = (
{
closed = 1;
nodes = (
"417 1581 LINE",
"234 1569 LINE",
"163 1059 LINE",
"288 1059 LINE"
);
},
{
closed = 1;
nodes = (
"703 1581 LINE",
"521 1569 LINE",
"450 1059 LINE",
"574 1059 LINE"
);
}
);
width = 745;
},
{
layerId = "f6e6aac4-f32e-46b3-99a1-e6d41dab8022";
paths = (
{
closed = 1;
nodes = (
"606 1593 LINE",
"317 1577 LINE",
"246 1059 LINE",
"465 1059 LINE"
);
},
{
closed = 1;
nodes = (
"1036 1593 LINE",
"748 1577 LINE",
"676 1059 LINE",
"895 1059 LINE"
);
}
);
width = 913;
}
);
unicode = 0022;
},
{
color = (153,188,255,255);
glyphname = parenleft;
layers = (
{
layerId = "608d70f7-2164-4884-8595-c4dfe8e6ed08";
paths = (
{
closed = 1;
nodes = (
"595 -258 LINE",
"493 -80 OFFCURVE",
"442 160 OFFCURVE",
"442 406 CURVE SMOOTH",
"442 856 OFFCURVE",
"667 1253 OFFCURVE",
"1024 1602 CURVE",
"913 1712 LINE",
"507 1325 OFFCURVE",
"239 911 OFFCURVE",
"239 397 CURVE SMOOTH",
"239 121 OFFCURVE",
"311 -160 OFFCURVE",
"432 -369 CURVE"
);
}
);
width = 825;
},
{
layerId = "f6e6aac4-f32e-46b3-99a1-e6d41dab8022";
paths = (
{
closed = 1;
nodes = (
"639 -307 LINE",
"547 -129 OFFCURVE",
"496 137 OFFCURVE",
"496 367 CURVE SMOOTH",
"496 823 OFFCURVE",
"733 1249 OFFCURVE",
"1079 1597 CURVE",
"872 1769 LINE",
"424 1341 OFFCURVE",
"164 852 OFFCURVE",
"164 328 CURVE SMOOTH",
"164 53 OFFCURVE",
"229 -252 OFFCURVE",
"354 -467 CURVE"
);
}
);
width = 874;
}
);
unicode = 0028;
},
{
color = (153,188,255,255);
glyphname = parenright;
layers = (
{
layerId = "608d70f7-2164-4884-8595-c4dfe8e6ed08";
paths = (
{
closed = 1;
nodes = (
"319 1602 LINE",
"421 1423 OFFCURVE",
"473 1184 OFFCURVE",
"473 938 CURVE SMOOTH",
"473 487 OFFCURVE",
"247 90 OFFCURVE",
"-109 -258 CURVE",
"2 -369 LINE",
"407 18 OFFCURVE",
"675 432 OFFCURVE",
"675 946 CURVE SMOOTH",
"675 1223 OFFCURVE",
"604 1503 OFFCURVE",
"483 1712 CURVE"
);
}
);
width = 948;
},
{
layerId = "f6e6aac4-f32e-46b3-99a1-e6d41dab8022";
paths = (
{
closed = 1;
nodes = (
"338 1610 LINE",
"430 1432 OFFCURVE",
"481 1165 OFFCURVE",
"481 936 CURVE SMOOTH",
"481 479 OFFCURVE",
"244 53 OFFCURVE",
"-102 -295 CURVE",
"104 -467 LINE",
"553 -39 OFFCURVE",
"813 451 OFFCURVE",
"813 975 CURVE SMOOTH",
"813 1249 OFFCURVE",
"748 1554 OFFCURVE",
"623 1769 CURVE"
);
}
);
width = 874;
}
);
unicode = 0029;
},
{
color = (153,188,255,255);
glyphname = asterisk;
layers = (
{
layerId = "608d70f7-2164-4884-8595-c4dfe8e6ed08";
paths = (
{
closed = 1;
nodes = (
"593 1546 LINE",
"447 1546 LINE",
"392 1303 LINE",
"167 1382 LINE",
"101 1260 LINE",
"326 1182 LINE",
"136 983 LINE",
"245 901 LINE",
"429 1095 LINE",
"527 893 LINE",
"652 963 LINE",
"551 1165 LINE",
"808 1241 LINE",
"796 1378 LINE",
"536 1300 LINE"
);
}
);
width = 808;
},
{
layerId = "f6e6aac4-f32e-46b3-99a1-e6d41dab8022";
paths = (
{
closed = 1;
nodes = (
"764 1616 LINE",
"500 1616 LINE",
"444 1372 LINE",
"236 1446 LINE",
"102 1204 LINE",
"310 1132 LINE",
"129 940 LINE",
"315 770 LINE",
"500 965 LINE",
"592 774 LINE",
"829 922 LINE",
"735 1114 LINE",
"983 1188 LINE",
"961 1444 LINE",
"708 1368 LINE"
);
}
);
width = 983;
}
);
unicode = 002A;
},
{
color = (153,188,255,255);
glyphname = plus;
layers = (
{
layerId = "608d70f7-2164-4884-8595-c4dfe8e6ed08";
paths = (
{
closed = 1;
nodes = (
"101 614 LINE",
"517 614 LINE",
"419 186 LINE",
"613 186 LINE",
"711 614 LINE",
"1127 614 LINE",
"1166 786 LINE",
"751 786 LINE",
"849 1210 LINE",
"654 1210 LINE",
"556 786 LINE",
"140 786 LINE"
);
}
);
width = 1270;
},
{
layerId = "f6e6aac4-f32e-46b3-99a1-e6d41dab8022";
paths = (
{
closed = 1;
nodes = (
"102 449 LINE",
"468 449 LINE",
"381 72 LINE",
"678 72 LINE",
"765 449 LINE",
"1133 449 LINE",
"1196 723 LINE",
"829 723 LINE",
"915 1096 LINE",
"618 1096 LINE",
"532 723 LINE",
"166 723 LINE"
);
}
);
width = 1237;
}
);
unicode = 002B;
},
{
color = (153,188,255,255);
glyphname = slash;
layers = (
{
layerId = "608d70f7-2164-4884-8595-c4dfe8e6ed08";
paths = (
{
closed = 1;
nodes = (
"-78 0 LINE",
"120 0 LINE",
"937 1556 LINE",
"739 1556 LINE"
);
}
);
width = 862;
},
{
layerId = "f6e6aac4-f32e-46b3-99a1-e6d41dab8022";
paths = (
{
closed = 1;
nodes = (
"31 0 LINE",
"313 0 LINE",
"1137 1556 LINE",
"860 1556 LINE"
);
}
);
width = 983;
}
);
unicode = 002F;
},
{
color = (153,188,255,255);
glyphname = at;
layers = (
{
layerId = "608d70f7-2164-4884-8595-c4dfe8e6ed08";
paths = (
{
closed = 1;
nodes = (
"1497 956 LINE",
"1476 865 LINE",
"1408 919 OFFCURVE",
"1318 950 OFFCURVE",
"1216 950 CURVE SMOOTH",
"911 950 OFFCURVE",
"624 717 OFFCURVE",
"624 408 CURVE SMOOTH",
"624 195 OFFCURVE",
"782 8 OFFCURVE",
"1019 8 CURVE SMOOTH",
"1141 8 OFFCURVE",
"1257 50 OFFCURVE",
"1353 120 CURVE",
"1383 38 OFFCURVE",
"1456 -16 OFFCURVE",
"1585 -16 CURVE SMOOTH",
"1937 -16 OFFCURVE",
"2170 328 OFFCURVE",
"2170 690 CURVE SMOOTH",
"2170 1126 OFFCURVE",
"1841 1491 OFFCURVE",
"1327 1491 CURVE SMOOTH",
"692 1491 OFFCURVE",
"98 997 OFFCURVE",
"98 328 CURVE SMOOTH",
"98 -127 OFFCURVE",
"444 -506 OFFCURVE",
"919 -506 CURVE SMOOTH",
"1107 -506 OFFCURVE",
"1277 -453 OFFCURVE",
"1447 -362 CURVE",
"1390 -205 LINE",
"1251 -279 OFFCURVE",
"1095 -322 OFFCURVE",
"942 -322 CURVE SMOOTH",
"552 -322 OFFCURVE",
"296 -31 OFFCURVE",
"296 340 CURVE SMOOTH",
"296 887 OFFCURVE",
"796 1307 OFFCURVE",
"1316 1307 CURVE SMOOTH",
"1712 1307 OFFCURVE",
"1974 1042 OFFCURVE",
"1974 674 CURVE SMOOTH",
"1974 416 OFFCURVE",
"1830 150 OFFCURVE",
"1607 150 CURVE SMOOTH",
"1523 150 OFFCURVE",
"1515 211 OFFCURVE",
"1527 293 CURVE",
"1681 956 LINE"
);
},
{
closed = 1;
nodes = (
"905 193 OFFCURVE",
"819 295 OFFCURVE",
"819 424 CURVE SMOOTH",
"819 604 OFFCURVE",
"995 770 OFFCURVE",
"1187 770 CURVE SMOOTH",
"1306 770 OFFCURVE",
"1392 712 OFFCURVE",
"1420 624 CURVE",
"1356 352 LINE",
"1290 259 OFFCURVE",
"1181 193 OFFCURVE",
"1056 193 CURVE SMOOTH"
);
}
);
width = 2351;
},
{
layerId = "f6e6aac4-f32e-46b3-99a1-e6d41dab8022";
paths = (
{
closed = 1;
nodes = (
"1391 956 LINE",
"1379 904 LINE",
"1320 942 OFFCURVE",
"1251 969 OFFCURVE",
"1153 969 CURVE SMOOTH",
"889 969 OFFCURVE",
"569 764 OFFCURVE",
"569 393 CURVE SMOOTH",
"569 172 OFFCURVE",
"729 -16 OFFCURVE",
"981 -16 CURVE SMOOTH",
"1087 -16 OFFCURVE",
"1193 22 OFFCURVE",
"1278 92 CURVE",
"1322 22 OFFCURVE",
"1401 -18 OFFCURVE",
"1509 -18 CURVE SMOOTH",
"1866 -18 OFFCURVE",
"2099 305 OFFCURVE",
"2099 680 CURVE SMOOTH",
"2099 1092 OFFCURVE",
"1769 1448 OFFCURVE",
"1280 1448 CURVE SMOOTH",
"635 1448 OFFCURVE",
"123 969 OFFCURVE",
"123 346 CURVE SMOOTH",
"123 -109 OFFCURVE",
"453 -463 OFFCURVE",
"907 -463 CURVE SMOOTH",
"1085 -463 OFFCURVE",
"1262 -406 OFFCURVE",
"1448 -307 CURVE",
"1364 -80 LINE",
"1223 -154 OFFCURVE",
"1079 -199 OFFCURVE",
"948 -199 CURVE SMOOTH",
"618 -199 OFFCURVE",
"399 27 OFFCURVE",
"399 371 CURVE SMOOTH",
"399 831 OFFCURVE",
"797 1184 OFFCURVE",
"1266 1184 CURVE SMOOTH",
"1604 1184 OFFCURVE",
"1827 940 OFFCURVE",
"1827 647 CURVE SMOOTH",
"1827 563 OFFCURVE",
"1769 211 OFFCURVE",
"1573 211 CURVE SMOOTH",
"1528 211 OFFCURVE",
"1513 252 OFFCURVE",
"1528 309 CURVE",
"1677 956 LINE"
);
},
{
closed = 1;
nodes = (
"946 276 OFFCURVE",
"879 338 OFFCURVE",
"879 434 CURVE SMOOTH",
"879 569 OFFCURVE",
"1008 686 OFFCURVE",
"1135 686 CURVE SMOOTH",
"1215 686 OFFCURVE",
"1279 633 OFFCURVE",
"1297 556 CURVE",
"1259 394 LINE",
"1201 320 OFFCURVE",
"1120 276 OFFCURVE",
"1042 276 CURVE SMOOTH"
);
}
);
width = 2140;
}
);
unicode = 0040;
},
{
color = (153,188,255,255);
glyphname = bracketleft;
layers = (
{
layerId = "608d70f7-2164-4884-8595-c4dfe8e6ed08";
paths = (
{
closed = 1;
nodes = (
"22 -213 LINE",
"446 -213 LINE",
"481 -61 LINE",
"262 -61 LINE",
"636 1569 LINE",
"856 1569 LINE",
"890 1720 LINE",
"466 1720 LINE"
);
}
);
width = 762;
},
{
layerId = "f6e6aac4-f32e-46b3-99a1-e6d41dab8022";
paths = (
{
closed = 1;
nodes = (
"-41 -289 LINE",
"526 -289 LINE",
"584 -41 LINE",
"360 -41 LINE",
"737 1589 LINE",
"961 1589 LINE",
"1018 1835 LINE",
"451 1835 LINE"
);
}
);
width = 772;
}
);
unicode = 005B;
},
{
color = (153,188,255,255);
glyphname = backslash;
layers = (
{
layerId = "608d70f7-2164-4884-8595-c4dfe8e6ed08";
paths = (
{
closed = 1;
nodes = (
"435 -25 LINE",
"597 -25 LINE",
"263 1581 LINE",
"101 1581 LINE"
);
}
);
width = 700;
},
{
layerId = "f6e6aac4-f32e-46b3-99a1-e6d41dab8022";
paths = (
{
closed = 1;
nodes = (
"342 -88 LINE",
"584 -88 LINE",
"399 1589 LINE",
"164 1589 LINE"
);
}
);
width = 829;
}
);
unicode = 005C;
},
{
color = (153,188,255,255);
glyphname = bracketright;
layers = (
{
layerId = "608d70f7-2164-4884-8595-c4dfe8e6ed08";
paths = (
{
closed = 1;
nodes = (
"179 -61 LINE",
"-40 -61 LINE",
"-75 -213 LINE",
"349 -213 LINE",
"793 1720 LINE",
"369 1720 LINE",
"334 1569 LINE",
"554 1569 LINE"
);
}
);
width = 762;
},
{
layerId = "f6e6aac4-f32e-46b3-99a1-e6d41dab8022";
paths = (
{
closed = 1;
nodes = (
"35 -41 LINE",
"-188 -41 LINE",
"-246 -289 LINE",
"322 -289 LINE",
"813 1835 LINE",
"246 1835 LINE",
"188 1589 LINE",
"412 1589 LINE"
);
}
);
width = 711;
}
);
unicode = 005D;
},
{
color = (153,188,255,255);
glyphname = bullet;
layers = (
{
layerId = "608d70f7-2164-4884-8595-c4dfe8e6ed08";
paths = (
{
closed = 1;
nodes = (
"219 399 OFFCURVE",
"333 287 OFFCURVE",
"477 287 CURVE SMOOTH",
"620 287 OFFCURVE",
"737 399 OFFCURVE",
"737 545 CURVE SMOOTH",
"737 690 OFFCURVE",
"620 803 OFFCURVE",
"477 803 CURVE SMOOTH",
"333 803 OFFCURVE",
"219 688 OFFCURVE",
"219 545 CURVE SMOOTH"
);
}
);
width = 989;
},
{
layerId = "f6e6aac4-f32e-46b3-99a1-e6d41dab8022";
paths = (
{
closed = 1;
nodes = (
"307 338 OFFCURVE",
"481 164 OFFCURVE",
"696 164 CURVE SMOOTH",
"911 164 OFFCURVE",
"1085 338 OFFCURVE",
"1085 553 CURVE SMOOTH",
"1085 768 OFFCURVE",
"911 942 OFFCURVE",
"696 942 CURVE SMOOTH",
"481 942 OFFCURVE",
"307 768 OFFCURVE",
"307 553 CURVE SMOOTH"
);
}
);
width = 1270;
}
);
unicode = 2022;
},
{
color = (153,188,255,255);
glyphname = paragraph;
layers = (
{
layerId = "608d70f7-2164-4884-8595-c4dfe8e6ed08";
paths = (
{
closed = 1;
nodes = (
"272 -369 LINE",
"458 -369 LINE",
"853 1343 LINE",
"1076 1343 LINE",
"681 -369 LINE",
"868 -369 LINE",
"1263 1343 LINE",
"1357 1343 LINE",
"1398 1516 LINE",
"780 1516 LINE SMOOTH",
"423 1516 OFFCURVE",
"178 1333 OFFCURVE",
"178 1028 CURVE SMOOTH",
"178 848 OFFCURVE",
"309 718 OFFCURVE",
"519 702 CURVE"
);
}
);
width = 1343;
},
{
layerId = "f6e6aac4-f32e-46b3-99a1-e6d41dab8022";
paths = (
{
closed = 1;
nodes = (
"276 -362 LINE",
"569 -362 LINE",
"940 1241 LINE",
"1112 1241 LINE",
"741 -362 LINE",
"1034 -362 LINE",
"1405 1241 LINE",
"1546 1241 LINE",
"1610 1516 LINE",
"926 1516 LINE SMOOTH",
"516 1516 OFFCURVE",
"205 1243 OFFCURVE",
"205 913 CURVE SMOOTH",
"205 712 OFFCURVE",
"324 583 OFFCURVE",
"483 533 CURVE"
);
}
);
width = 1446;
}
);
unicode = 00B6;
},
{
color = (153,188,255,255);
glyphname = germandbls;
layers = (
{
layerId = "608d70f7-2164-4884-8595-c4dfe8e6ed08";
paths = (
{
closed = 1;
nodes = (
"-48 0 LINE",
"350 0 LINE",
"616 1157 LINE",
"649 1294 OFFCURVE",
"753 1391 OFFCURVE",
"882 1391 CURVE SMOOTH",
"1005 1391 OFFCURVE",
"1079 1313 OFFCURVE",
"1079 1206 CURVE SMOOTH",
"1079 1071 OFFCURVE",
"962 985 OFFCURVE",
"843 985 CURVE SMOOTH",
"768 985 LINE",
"724 799 LINE",
"804 799 LINE SMOOTH",
"937 799 OFFCURVE",
"1052 696 OFFCURVE",
"1052 543 CURVE SMOOTH",
"1052 330 OFFCURVE",
"856 174 OFFCURVE",
"657 174 CURVE SMOOTH",
"630 174 OFFCURVE",
"610 176 OFFCURVE",
"583 182 CURVE",
"540 -2 LINE",
"567 -6 OFFCURVE",
"608 -8 OFFCURVE",
"634 -8 CURVE SMOOTH",
"974 -8 OFFCURVE",
"1253 221 OFFCURVE",
"1253 563 CURVE SMOOTH",
"1253 705 OFFCURVE",
"1181 819 OFFCURVE",
"1089 891 CURVE",
"1177 954 OFFCURVE",
"1280 1049 OFFCURVE",
"1280 1217 CURVE SMOOTH",
"1280 1421 OFFCURVE",
"1130 1577 OFFCURVE",
"907 1577 CURVE SMOOTH",
"647 1577 OFFCURVE",
"475 1425 OFFCURVE",
"419 1180 CURVE",
"186 172 LINE",
"-9 172 LINE"
);
}
);
width = 1348;
},
{
layerId = "f6e6aac4-f32e-46b3-99a1-e6d41dab8022";
paths = (
{
closed = 1;
nodes = (
"20 0 LINE",
"551 0 LINE",
"811 1124 LINE",
"836 1229 OFFCURVE",
"915 1298 OFFCURVE",
"1010 1298 CURVE SMOOTH",
"1100 1298 OFFCURVE",
"1149 1237 OFFCURVE",
"1149 1157 CURVE SMOOTH",
"1149 1063 OFFCURVE",
"1077 979 OFFCURVE",
"983 979 CURVE SMOOTH",
"909 979 LINE",
"844 690 LINE",
"911 690 LINE SMOOTH",
"1012 690 OFFCURVE",
"1077 614 OFFCURVE",
"1077 522 CURVE SMOOTH",
"1077 385 OFFCURVE",
"948 276 OFFCURVE",
"815 276 CURVE SMOOTH",
"795 276 OFFCURVE",
"768 279 OFFCURVE",
"750 283 CURVE",
"682 -6 LINE",
"707 -10 OFFCURVE",
"752 -12 OFFCURVE",
"778 -12 CURVE SMOOTH",
"1133 -12 OFFCURVE",
"1419 186 OFFCURVE",
"1419 563 CURVE SMOOTH",
"1419 696 OFFCURVE",
"1360 813 OFFCURVE",
"1264 885 CURVE",
"1360 938 OFFCURVE",
"1458 1038 OFFCURVE",
"1458 1214 CURVE SMOOTH",
"1458 1407 OFFCURVE",
"1292 1577 OFFCURVE",
"1042 1577 CURVE SMOOTH",
"760 1577 OFFCURVE",
"535 1409 OFFCURVE",
"481 1180 CURVE",
"272 274 LINE",
"84 274 LINE"
);
}
);
width = 1479;
}
);
unicode = 00DF;
},
{
color = (153,188,255,255);
glyphname = registered;
layers = (
{
layerId = "608d70f7-2164-4884-8595-c4dfe8e6ed08";
paths = (
{
closed = 1;
nodes = (
"50 356 OFFCURVE",
"431 -25 OFFCURVE",
"906 -25 CURVE SMOOTH",
"1379 -25 OFFCURVE",
"1764 356 OFFCURVE",
"1764 831 CURVE SMOOTH",
"1764 1305 OFFCURVE",
"1379 1686 OFFCURVE",
"906 1686 CURVE SMOOTH",
"431 1686 OFFCURVE",
"50 1305 OFFCURVE",
"50 831 CURVE SMOOTH"
);
},
{
closed = 1;
nodes = (
"230 1208 OFFCURVE",
"529 1507 OFFCURVE",
"906 1507 CURVE SMOOTH",
"1283 1507 OFFCURVE",
"1582 1208 OFFCURVE",
"1582 831 CURVE SMOOTH",
"1582 453 OFFCURVE",
"1283 154 OFFCURVE",
"906 154 CURVE SMOOTH",
"529 154 OFFCURVE",
"230 453 OFFCURVE",
"230 831 CURVE SMOOTH"
);
},
{
closed = 1;
nodes = (
"502 360 LINE",
"881 360 LINE",
"881 518 LINE",
"789 518 LINE",
"789 772 LINE",
"857 772 LINE SMOOTH",
"961 772 OFFCURVE",
"1031 725 OFFCURVE",
"1049 614 CURVE",
"1100 360 LINE",
"1356 360 LINE",
"1354 518 LINE",
"1272 518 LINE",
"1232 686 LINE",
"1216 755 OFFCURVE",
"1181 803 OFFCURVE",
"1140 826 CURVE",
"1244 871 OFFCURVE",
"1299 940 OFFCURVE",
"1299 1071 CURVE SMOOTH",
"1299 1227 OFFCURVE",
"1176 1346 OFFCURVE",
"982 1346 CURVE SMOOTH",
"498 1346 LINE",
"498 1188 LINE",
"601 1188 LINE",
"601 518 LINE",
"502 518 LINE"
);
},
{
closed = 1;
nodes = (
"924 1188 LINE",
"1039 1188 OFFCURVE",
"1094 1139 OFFCURVE",
"1094 1057 CURVE SMOOTH",
"1094 967 OFFCURVE",
"1031 928 OFFCURVE",
"933 928 CURVE SMOOTH",
"789 928 LINE",
"789 1188 LINE"
);
}
);
width = 1689;
},
{
layerId = "f6e6aac4-f32e-46b3-99a1-e6d41dab8022";
paths = (
{
closed = 1;
nodes = (
"123 270 OFFCURVE",
"539 -145 OFFCURVE",
"1059 -145 CURVE SMOOTH",
"1575 -145 OFFCURVE",
"1997 270 OFFCURVE",
"1997 791 CURVE SMOOTH",
"1997 1309 OFFCURVE",
"1575 1724 OFFCURVE",
"1059 1724 CURVE SMOOTH",
"539 1724 OFFCURVE",
"123 1309 OFFCURVE",
"123 791 CURVE SMOOTH"
);
},
{
closed = 1;
nodes = (
"371 1176 OFFCURVE",
"674 1479 OFFCURVE",
"1059 1479 CURVE SMOOTH",
"1444 1479 OFFCURVE",
"1747 1176 OFFCURVE",
"1747 791 CURVE SMOOTH",
"1747 403 OFFCURVE",
"1444 100 OFFCURVE",
"1059 100 CURVE SMOOTH",
"674 100 OFFCURVE",
"371 403 OFFCURVE",
"371 791 CURVE SMOOTH"
);
},
{
closed = 1;
nodes = (
"600 317 LINE",
"1057 317 LINE",
"1057 535 LINE",
"975 535 LINE",
"975 659 LINE",
"1042 659 LINE SMOOTH",
"1153 659 OFFCURVE",
"1161 616 OFFCURVE",
"1169 506 CURVE",
"1186 317 LINE",
"1526 317 LINE",
"1524 535 LINE",
"1448 535 LINE",
"1427 618 LINE",
"1411 700 OFFCURVE",
"1374 741 OFFCURVE",
"1326 761 CURVE",
"1446 811 OFFCURVE",
"1489 877 OFFCURVE",
"1489 1004 CURVE SMOOTH",
"1489 1130 OFFCURVE",
"1378 1282 OFFCURVE",
"1163 1282 CURVE SMOOTH",
"604 1282 LINE",
"604 1065 LINE",
"709 1065 LINE",
"709 535 LINE",
"600 535 LINE"
);
},
{
closed = 1;
nodes = (
"1053 1065 LINE",
"1141 1065 OFFCURVE",
"1196 1028 OFFCURVE",
"1196 969 CURVE SMOOTH",
"1196 901 OFFCURVE",
"1139 877 OFFCURVE",
"1042 877 CURVE SMOOTH",
"975 877 LINE",
"975 1065 LINE"
);
}
);
width = 1874;
}
);
unicode = 00AE;
},
{
color = (153,188,255,255);
glyphname = copyright;
layers = (
{
layerId = "608d70f7-2164-4884-8595-c4dfe8e6ed08";
paths = (
{
closed = 1;
nodes = (
"50 356 OFFCURVE",
"431 -25 OFFCURVE",
"906 -25 CURVE SMOOTH",
"1379 -25 OFFCURVE",
"1764 356 OFFCURVE",
"1764 831 CURVE SMOOTH",
"1764 1305 OFFCURVE",
"1379 1686 OFFCURVE",
"906 1686 CURVE SMOOTH",
"431 1686 OFFCURVE",
"50 1305 OFFCURVE",
"50 831 CURVE SMOOTH"
);
},
{
closed = 1;
nodes = (
"230 1208 OFFCURVE",
"529 1507 OFFCURVE",
"906 1507 CURVE SMOOTH",
"1283 1507 OFFCURVE",
"1582 1208 OFFCURVE",
"1582 831 CURVE SMOOTH",
"1582 453 OFFCURVE",
"1283 154 OFFCURVE",
"906 154 CURVE SMOOTH",
"529 154 OFFCURVE",
"230 453 OFFCURVE",
"230 831 CURVE SMOOTH"
);
},
{
closed = 1;
nodes = (
"1279 1190 LINE",
"1203 1264 OFFCURVE",
"1080 1337 OFFCURVE",
"926 1337 CURVE SMOOTH",
"648 1337 OFFCURVE",
"425 1112 OFFCURVE",
"425 834 CURVE SMOOTH",
"425 555 OFFCURVE",
"648 332 OFFCURVE",
"926 332 CURVE SMOOTH",
"1055 332 OFFCURVE",
"1191 397 OFFCURVE",
"1252 477 CURVE",
"1119 606 LINE",
"1078 559 OFFCURVE",
"1000 526 OFFCURVE",
"926 526 CURVE SMOOTH",
"756 526 OFFCURVE",
"619 664 OFFCURVE",
"619 834 CURVE SMOOTH",
"619 1006 OFFCURVE",
"756 1147 OFFCURVE",
"926 1147 CURVE SMOOTH",
"1000 1147 OFFCURVE",
"1092 1110 OFFCURVE",
"1137 1059 CURVE"
);
}
);
width = 1689;
},
{
layerId = "f6e6aac4-f32e-46b3-99a1-e6d41dab8022";
paths = (
{
closed = 1;
nodes = (
"123 356 OFFCURVE",
"504 -25 OFFCURVE",
"979 -25 CURVE SMOOTH",
"1452 -25 OFFCURVE",
"1837 356 OFFCURVE",
"1837 831 CURVE SMOOTH",
"1837 1305 OFFCURVE",
"1452 1686 OFFCURVE",
"979 1686 CURVE SMOOTH",
"504 1686 OFFCURVE",
"123 1305 OFFCURVE",
"123 831 CURVE SMOOTH"
);
},
{
closed = 1;
nodes = (
"338 1190 OFFCURVE",
"621 1473 OFFCURVE",
"979 1473 CURVE SMOOTH",
"1337 1473 OFFCURVE",
"1620 1190 OFFCURVE",
"1620 831 CURVE SMOOTH",
"1620 471 OFFCURVE",
"1337 188 OFFCURVE",
"979 188 CURVE SMOOTH",
"621 188 OFFCURVE",
"338 471 OFFCURVE",
"338 831 CURVE SMOOTH"
);
},
{
closed = 1;
nodes = (
"1374 1178 LINE",
"1280 1280 OFFCURVE",
"1145 1343 OFFCURVE",
"991 1343 CURVE SMOOTH",
"709 1343 OFFCURVE",
"479 1116 OFFCURVE",
"479 831 CURVE SMOOTH",
"479 547 OFFCURVE",
"709 319 OFFCURVE",
"991 319 CURVE SMOOTH",
"1143 319 OFFCURVE",
"1278 383 OFFCURVE",
"1372 485 CURVE",
"1186 670 LINE",
"1141 612 OFFCURVE",
"1069 580 OFFCURVE",
"991 580 CURVE SMOOTH",
"852 580 OFFCURVE",
"741 692 OFFCURVE",
"741 831 CURVE SMOOTH",
"741 971 OFFCURVE",
"852 1083 OFFCURVE",
"991 1083 CURVE SMOOTH",
"1071 1083 OFFCURVE",
"1143 1047 OFFCURVE",
"1188 989 CURVE"
);
}
);
width = 1714;
}
);
unicode = 00A9;
},
{
color = (153,188,255,255);
glyphname = guillemotleft;
layers = (
{
layerId = "608d70f7-2164-4884-8595-c4dfe8e6ed08";
paths = (
{
closed = 1;
nodes = (
"673 545 LINE",
"804 172 LINE",
"618 172 LINE",
"512 469 LINE",
"479 567 LINE",
"798 958 LINE",
"995 958 LINE"
);
},
{
closed = 1;
nodes = (
"249 545 LINE",
"380 172 LINE",
"194 172 LINE",
"86 469 LINE",
"55 567 LINE",
"374 958 LINE",
"571 958 LINE"
);
}
);
width = 981;
},
{
layerId = "f6e6aac4-f32e-46b3-99a1-e6d41dab8022";
paths = (
{
closed = 1;
nodes = (
"846 555 LINE",
"963 156 LINE",
"739 156 LINE",
"563 535 LINE",
"582 608 LINE",
"911 969 LINE",
"1151 969 LINE"
);
},
{
closed = 1;
nodes = (
"406 555 LINE",
"522 156 LINE",
"299 156 LINE",
"123 535 LINE",
"141 608 LINE",
"471 969 LINE",
"711 969 LINE"
);
}
);
width = 1069;
}
);
unicode = 00AB;
},
{
color = (153,188,255,255);
glyphname = guillemotright;
layers = (
{
layerId = "608d70f7-2164-4884-8595-c4dfe8e6ed08";
paths = (
{
closed = 1;
nodes = (
"335 586 LINE",
"204 958 LINE",
"391 958 LINE",
"497 662 LINE",
"530 563 LINE",
"210 172 LINE",
"14 172 LINE"
);
},
{
closed = 1;
nodes = (
"759 586 LINE",
"628 958 LINE",
"815 958 LINE",
"923 662 LINE",
"954 563 LINE",
"634 172 LINE",
"438 172 LINE"
);
}
);
width = 981;
},
{
layerId = "f6e6aac4-f32e-46b3-99a1-e6d41dab8022";
paths = (
{
closed = 1;
nodes = (
"346 569 LINE",
"229 969 LINE",
"453 969 LINE",
"629 590 LINE",
"610 516 LINE",
"281 156 LINE",
"41 156 LINE"
);
},
{
closed = 1;
nodes = (
"786 569 LINE",
"670 969 LINE",
"893 969 LINE",
"1069 590 LINE",
"1051 516 LINE",
"721 156 LINE",
"481 156 LINE"
);
}
);
width = 1069;
}
);
unicode = 00BB;
},
{
color = (153,249,255,255);
glyphname = endash;
layers = (
{
layerId = "608d70f7-2164-4884-8595-c4dfe8e6ed08";
paths = (
{
closed = 1;
nodes = (
"74 479 LINE",
"1098 479 LINE",
"1137 651 LINE",
"113 651 LINE"
);
}
);
width = 1167;
},
{
layerId = "f6e6aac4-f32e-46b3-99a1-e6d41dab8022";
paths = (
{
closed = 1;
nodes = (
"332 459 LINE",
"1356 459 LINE",
"1419 733 LINE",
"395 733 LINE"
);
}
);
width = 1393;
}
);
unicode = 2013;
},
{
color = (153,249,255,255);
glyphname = emdash;
layers = (
{
layerId = "608d70f7-2164-4884-8595-c4dfe8e6ed08";
paths = (
{
closed = 1;
nodes = (
"49 479 LINE",
"2087 479 LINE",
"2126 651 LINE",
"88 651 LINE"
);
}
);
width = 2179;
},
{
layerId = "f6e6aac4-f32e-46b3-99a1-e6d41dab8022";
paths = (
{
closed = 1;
nodes = (
"434 459 LINE",
"2277 459 LINE",
"2341 733 LINE",
"498 733 LINE"
);
}
);
width = 2396;
}
);
unicode = 2014;
},
{
color = (153,188,255,255);
glyphname = quotedblleft;
layers = (
{
layerId = "608d70f7-2164-4884-8595-c4dfe8e6ed08";
paths = (
{
closed = 1;
nodes = (
"608 1059 LINE",
"790 979 LINE",
"1054 1497 LINE",
"927 1561 LINE"
);
},
{
closed = 1;
nodes = (
"178 1059 LINE",
"360 981 LINE",
"628 1497 LINE",
"499 1563 LINE"
);
}
);
width = 918;
},
{
layerId = "f6e6aac4-f32e-46b3-99a1-e6d41dab8022";
paths = (
{
closed = 1;
nodes = (
"692 1096 LINE",
"963 989 LINE",
"1260 1573 LINE",
"1051 1657 LINE"
);
},
{
closed = 1;
nodes = (
"205 1106 LINE",
"475 999 LINE",
"797 1571 LINE",
"588 1663 LINE"
);
}
);
width = 1096;
}
);
unicode = 201C;
},
{
color = (153,188,255,255);
glyphname = quotedblright;
layers = (
{
layerId = "608d70f7-2164-4884-8595-c4dfe8e6ed08";
paths = (
{
closed = 1;
nodes = (
"606 1483 LINE",
"421 1563 LINE",
"157 1044 LINE",
"282 979 LINE"
);
},
{
closed = 1;
nodes = (
"1034 1483 LINE",
"849 1561 LINE",
"585 1044 LINE",
"710 979 LINE"
);
}
);
width = 918;
},
{
layerId = "f6e6aac4-f32e-46b3-99a1-e6d41dab8022";
paths = (
{
closed = 1;
nodes = (
"834 1556 LINE",
"563 1663 LINE",
"266 1079 LINE",
"475 995 LINE"
);
},
{
closed = 1;
nodes = (
"1321 1546 LINE",
"1051 1653 LINE",
"729 1081 LINE",
"938 989 LINE"
);
}
);
width = 1096;
}
);
unicode = 201D;
},
{
color = (153,188,255,255);
glyphname = quoteleft;
layers = (
{
layerId = "608d70f7-2164-4884-8595-c4dfe8e6ed08";
paths = (
{
closed = 1;
nodes = (
"178 1059 LINE",
"360 979 LINE",
"624 1497 LINE",
"497 1561 LINE"
);
}
);
width = 487;
},
{
layerId = "f6e6aac4-f32e-46b3-99a1-e6d41dab8022";
paths = (
{
closed = 1;
nodes = (
"205 1096 LINE",
"475 989 LINE",
"772 1573 LINE",
"563 1657 LINE"
);
}
);
width = 608;
}
);
unicode = 2018;
},
{
color = (153,249,255,255);
glyphname = quoteright;
layers = (
{
layerId = "608d70f7-2164-4884-8595-c4dfe8e6ed08";
paths = (
{
closed = 1;
nodes = (
"175 1044 LINE",
"300 979 LINE",
"624 1483 LINE",
"439 1563 LINE"
);
}
);
width = 509;
},
{
layerId = "f6e6aac4-f32e-46b3-99a1-e6d41dab8022";
paths = (
{
closed = 1;
nodes = (
"266 1079 LINE",
"475 995 LINE",
"834 1556 LINE",
"563 1663 LINE"
);
}
);
width = 608;
}
);
unicode = 2019;
},
{
color = (153,249,255,255);
glyphname = guilsinglleft;
layers = (
{
layerId = "608d70f7-2164-4884-8595-c4dfe8e6ed08";
paths = (
{
closed = 1;
nodes = (
"264 545 LINE",
"395 172 LINE",
"209 172 LINE",
"103 469 LINE",
"70 567 LINE",
"389 958 LINE",
"586 958 LINE"
);
}
);
width = 557;
},
{
layerId = "f6e6aac4-f32e-46b3-99a1-e6d41dab8022";
paths = (
{
closed = 1;
nodes = (
"406 555 LINE",
"522 156 LINE",
"299 156 LINE",
"123 535 LINE",
"141 608 LINE",
"471 969 LINE",
"711 969 LINE"
);
}
);
width = 629;
}
);
unicode = 2039;
},
{
color = (153,249,255,255);
glyphname = guilsinglright;
layers = (
{
layerId = "608d70f7-2164-4884-8595-c4dfe8e6ed08";
paths = (
{
closed = 1;
nodes = (
"350 586 LINE",
"219 958 LINE",
"406 958 LINE",
"512 662 LINE",
"545 563 LINE",
"225 172 LINE",
"29 172 LINE"
);
}
);
width = 539;
},
{
layerId = "f6e6aac4-f32e-46b3-99a1-e6d41dab8022";
paths = (
{
closed = 1;
nodes = (
"346 569 LINE",
"229 969 LINE",
"453 969 LINE",
"629 590 LINE",
"610 516 LINE",
"281 156 LINE",
"41 156 LINE"
);
}
);
width = 629;
}
);
unicode = 203A;
},
{
color = (153,188,255,255);
glyphname = plusminus;
layers = (
{
associatedMasterId = "f6e6aac4-f32e-46b3-99a1-e6d41dab8022";
layerId = "087800cf-c0cd-4c6e-bb98-b375108ebc92";
name = img;
width = 0;
},
{
layerId = "608d70f7-2164-4884-8595-c4dfe8e6ed08";
paths = (
{
closed = 1;
nodes = (
"483 649 LINE",
"411 334 LINE",
"593 334 LINE",
"617 439 OFFCURVE",
"642 544 OFFCURVE",
"666 649 CURVE",
"1087 649 LINE",
"1101 710 OFFCURVE",
"1116 770 OFFCURVE",
"1130 831 CURVE",
"708 831 LINE",
"731 932 OFFCURVE",
"755 1034 OFFCURVE",
"778 1135 CURVE",
"595 1135 LINE",
"572 1034 OFFCURVE",
"548 932 OFFCURVE",
"525 831 CURVE",
"106 831 LINE",
"92 770 OFFCURVE",
"77 710 OFFCURVE",
"63 649 CURVE"
);
},
{
closed = 1;
nodes = (
"954 70 LINE",
"967 127 OFFCURVE",
"980 185 OFFCURVE",
"993 242 CURVE",
"-31 242 LINE",
"-44 185 OFFCURVE",
"-57 127 OFFCURVE",
"-70 70 CURVE"
);
}
);
width = 1105;
},
{
layerId = "f6e6aac4-f32e-46b3-99a1-e6d41dab8022";
paths = (
{
closed = 1;
nodes = (
"528 743 LINE",
"483 545 LINE",
"780 545 LINE",
"795 611 OFFCURVE",
"810 677 OFFCURVE",
"825 743 CURVE",
"1190 743 LINE",
"1212 842 OFFCURVE",
"1235 941 OFFCURVE",
"1257 1040 CURVE",
"893 1040 LINE",
"909 1111 OFFCURVE",
"926 1182 OFFCURVE",
"942 1253 CURVE",
"645 1253 LINE",
"629 1182 OFFCURVE",
"612 1111 OFFCURVE",
"596 1040 CURVE",
"233 1040 LINE",
"211 941 OFFCURVE",
"188 842 OFFCURVE",
"166 743 CURVE"
);
},
{
closed = 1;
nodes = (
"1065 205 LINE",
"1086 296 OFFCURVE",
"1107 388 OFFCURVE",
"1128 479 CURVE",
"104 479 LINE",
"83 388 OFFCURVE",
"62 296 OFFCURVE",
"41 205 CURVE"
);
}
);
width = 1298;
}
);
unicode = 00B1;
},
{
color = (153,249,255,255);
glyphname = minus;
layers = (
{
layerId = "608d70f7-2164-4884-8595-c4dfe8e6ed08";
paths = (
{
closed = 1;
nodes = (
"1069 614 LINE",
"1108 786 LINE",
"162 786 LINE",
"123 614 LINE"
);
}
);
width = 1149;
},
{
layerId = "f6e6aac4-f32e-46b3-99a1-e6d41dab8022";
paths = (
{
closed = 1;
nodes = (
"1036 489 LINE",
"1100 764 LINE",
"125 764 LINE",
"61 489 LINE"
);
}
);
width = 1059;
}
);
unicode = 2212;
},
{
color = (153,188,255,255);
glyphname = numbersign;
layers = (
{
layerId = "608d70f7-2164-4884-8595-c4dfe8e6ed08";
paths = (
{
closed = 1;
nodes = (
"284 1012 LINE",
"540 1012 LINE",
"347 561 LINE",
"126 561 LINE",
"34 389 LINE",
"273 389 LINE",
"106 0 LINE",
"313 0 LINE",
"478 389 LINE",
"835 389 LINE",
"669 0 LINE",
"872 0 LINE",
"1037 389 LINE",
"1265 389 LINE",
"1353 561 LINE",
"1110 561 LINE",
"1302 1012 LINE",
"1511 1012 LINE",
"1601 1184 LINE",
"1375 1184 LINE",
"1509 1497 LINE",
"1308 1497 LINE",
"1174 1184 LINE",
"816 1184 LINE",
"950 1497 LINE",
"749 1497 LINE",
"614 1184 LINE",
"374 1184 LINE"
);
},
{
closed = 1;
nodes = (
"743 1012 LINE",
"1101 1012 LINE",
"908 561 LINE",
"551 561 LINE"
);
}
);
width = 1455;
},
{
layerId = "f6e6aac4-f32e-46b3-99a1-e6d41dab8022";
paths = (
{
closed = 1;
nodes = (
"416 924 LINE",
"621 924 LINE",
"465 561 LINE",
"266 561 LINE",
"143 287 LINE",
"348 287 LINE",
"225 0 LINE",
"557 0 LINE",
"678 287 LINE",
"996 287 LINE",
"874 0 LINE",
"1202 0 LINE",
"1324 287 LINE",
"1522 287 LINE",
"1645 561 LINE",
"1440 561 LINE",
"1595 924 LINE",
"1794 924 LINE",
"1917 1198 LINE",
"1711 1198 LINE",
"1839 1497 LINE",
"1513 1497 LINE",
"1385 1198 LINE",
"1065 1198 LINE",
"1192 1497 LINE",
"866 1497 LINE",
"738 1198 LINE",
"539 1198 LINE"
);
},
{
closed = 1;
nodes = (
"949 924 LINE",
"1268 924 LINE",
"1113 561 LINE",
"795 561 LINE"
);
}
);
width = 1835;
}
);
unicode = 0023;
},
{
color = (153,188,255,255);
glyphname = less;
layers = (
{
layerId = "608d70f7-2164-4884-8595-c4dfe8e6ed08";
paths = (
{
closed = 1;
nodes = (
"-7 508 LINE",
"704 203 LINE",
"741 367 LINE",
"220 570 LINE",
"831 762 LINE",
"876 948 LINE",
"26 653 LINE"
);
}
);
width = 1067;
},
{
layerId = "f6e6aac4-f32e-46b3-99a1-e6d41dab8022";
paths = (
{
closed = 1;
nodes = (
"102 465 LINE",
"788 180 LINE",
"846 434 LINE",
"453 564 LINE",
"903 688 LINE",
"971 975 LINE",
"158 705 LINE"
);
}
);
width = 971;
}
);
unicode = 003C;
},
{
color = (153,188,255,255);
glyphname = equal;
layers = (
{
layerId = "608d70f7-2164-4884-8595-c4dfe8e6ed08";
paths = (
{
closed = 1;
nodes = (
"130 336 LINE",
"880 336 LINE",
"919 508 LINE",
"169 508 LINE"
);
},
{
closed = 1;
nodes = (
"214 705 LINE",
"964 705 LINE",
"1003 877 LINE",
"253 877 LINE"
);
}
);
width = 1053;
},
{
layerId = "f6e6aac4-f32e-46b3-99a1-e6d41dab8022";
paths = (
{
closed = 1;
nodes = (
"102 252 LINE",
"975 252 LINE",
"1038 526 LINE",
"166 526 LINE"
);
},
{
closed = 1;
nodes = (
"217 750 LINE",
"1090 750 LINE",
"1153 1024 LINE",
"281 1024 LINE"
);
}
);
width = 1176;
}
);
unicode = 003D;
},
{
color = (153,188,255,255);
glyphname = greater;
layers = (
{
layerId = "608d70f7-2164-4884-8595-c4dfe8e6ed08";
paths = (
{
closed = 1;
nodes = (
"815 643 LINE",
"104 948 LINE",
"67 784 LINE",
"588 581 LINE",
"-23 389 LINE",
"-68 203 LINE",
"782 498 LINE"
);
}
);
width = 1067;
},
{
layerId = "f6e6aac4-f32e-46b3-99a1-e6d41dab8022";
paths = (
{
closed = 1;
nodes = (
"909 690 LINE",
"223 975 LINE",
"166 721 LINE",
"558 590 LINE",
"109 467 LINE",
"41 180 LINE",
"854 451 LINE"
);
}
);
width = 971;
}
);
unicode = 003E;
},
{
color = (153,188,255,255);
glyphname = question;
layers = (
{
components = (
{
alignment = -1;
name = dotaccent;
transform = "{1, 0, 0, 1, 4, -1276}";
}
);
layerId = "608d70f7-2164-4884-8595-c4dfe8e6ed08";
paths = (
{
closed = 1;
nodes = (
"497 414 LINE",
"559 680 OFFCURVE",
"620 698 OFFCURVE",
"815 813 CURVE",
"999 926 OFFCURVE",
"1101 1038 OFFCURVE",
"1101 1229 CURVE SMOOTH",
"1101 1397 OFFCURVE",
"964 1569 OFFCURVE",
"710 1569 CURVE SMOOTH",
"454 1569 OFFCURVE",
"260 1407 OFFCURVE",
"198 1155 CURVE",
"405 1137 LINE",
"440 1278 OFFCURVE",
"538 1378 OFFCURVE",
"686 1378 CURVE SMOOTH",
"813 1378 OFFCURVE",
"890 1300 OFFCURVE",
"890 1204 CURVE SMOOTH",
"890 1059 OFFCURVE",
"794 1008 OFFCURVE",
"606 887 CURVE SMOOTH",
"409 760 OFFCURVE",
"356 692 OFFCURVE",
"299 414 CURVE"
);
}
);
width = 1128;
},
{
components = (
{
alignment = -1;
name = dotaccent;
transform = "{1, 0, 0, 1, 137, -1225}";
}
);
layerId = "f6e6aac4-f32e-46b3-99a1-e6d41dab8022";
paths = (
{
closed = 1;
nodes = (
"625 471 LINE",
"664 633 OFFCURVE",
"762 664 OFFCURVE",
"913 762 CURVE",
"1106 885 OFFCURVE",
"1147 1018 OFFCURVE",
"1147 1178 CURVE SMOOTH",
"1147 1395 OFFCURVE",
"963 1552 OFFCURVE",
"729 1552 CURVE SMOOTH",
"455 1552 OFFCURVE",
"266 1405 OFFCURVE",
"205 1118 CURVE",
"535 1085 LINE",
"561 1219 OFFCURVE",
"633 1249 OFFCURVE",
"690 1249 CURVE SMOOTH",
"745 1249 OFFCURVE",
"791 1204 OFFCURVE",
"791 1139 CURVE SMOOTH",
"791 1059 OFFCURVE",
"766 987 OFFCURVE",
"633 899 CURVE",
"446 778 OFFCURVE",
"354 723 OFFCURVE",
"305 471 CURVE"
);
}
);
width = 1085;
}
);
unicode = 003F;
},
{
color = (166,255,153,255);
glyphname = dollar;
layers = (
{
guideLines = (
{
angle = 77;
position = "{623, 0}";
}
);
layerId = "608d70f7-2164-4884-8595-c4dfe8e6ed08";
paths = (
{
closed = 1;
nodes = (
"581 -181 LINE",
"658 153 LINE",
"892 181 OFFCURVE",
"1046 313 OFFCURVE",
"1046 504 CURVE SMOOTH",
"1046 632 OFFCURVE",
"973 711 OFFCURVE",
"822 757 CURVE",
"771 772 OFFCURVE",
"720 790 OFFCURVE",
"669 806 CURVE SMOOTH",
"600 827 OFFCURVE",
"513 843 OFFCURVE",
"513 929 CURVE SMOOTH",
"513 1025 OFFCURVE",
"614 1094 OFFCURVE",
"776 1094 CURVE SMOOTH",
"894 1094 OFFCURVE",
"991 1040 OFFCURVE",
"966 945 CURVE SMOOTH",
"966 945 OFFCURVE",
"967 945 OFFCURVE",
"967 945 CURVE",
"965 937 OFFCURVE",
"964 931 OFFCURVE",
"962 925 CURVE",
"1187 925 LINE",
"1199 971 OFFCURVE",
"1210 1016 OFFCURVE",
"1222 1062 CURVE",
"1140 1062 LINE",
"1115 1144 OFFCURVE",
"1032 1210 OFFCURVE",
"908 1235 CURVE",
"983 1559 LINE",
"787 1559 LINE",
"713 1242 LINE",
"472 1219 OFFCURVE",
"325 1092 OFFCURVE",
"325 907 CURVE SMOOTH",
"325 781 OFFCURVE",
"405 695 OFFCURVE",
"545 657 CURVE SMOOTH",
"678 616 OFFCURVE",
"850 594 OFFCURVE",
"850 479 CURVE SMOOTH",
"850 376 OFFCURVE",
"743 302 OFFCURVE",
"592 302 CURVE SMOOTH",
"448 302 OFFCURVE",
"367 349 OFFCURVE",
"375 438 CURVE",
"380 459 OFFCURVE",
"386 479 OFFCURVE",
"391 500 CURVE",
"158 500 LINE",
"146 454 OFFCURVE",
"135 409 OFFCURVE",
"123 363 CURVE",
"203 363 LINE",
"217 261 OFFCURVE",
"294 178 OFFCURVE",
"461 154 CURVE",
"384 -181 LINE"
);
}
);
width = 1278;
},
{
guideLines = (
{
angle = 77;
position = "{732, 0}";
}
);
layerId = "f6e6aac4-f32e-46b3-99a1-e6d41dab8022";
paths = (
{
closed = 1;
nodes = (
"690 -187 LINE",
"765 138 LINE",
"998 177 OFFCURVE",
"1158 313 OFFCURVE",
"1158 531 CURVE SMOOTH",
"1158 682 OFFCURVE",
"1086 758 OFFCURVE",
"918 811 CURVE",
"880 824 OFFCURVE",
"842 836 OFFCURVE",
"803 849 CURVE SMOOTH",
"741 869 OFFCURVE",
"669 894 OFFCURVE",
"669 941 CURVE SMOOTH",
"669 997 OFFCURVE",
"739 1012 OFFCURVE",
"817 1012 CURVE SMOOTH",
"902 1012 OFFCURVE",
"963 971 OFFCURVE",
"950 901 CURVE SMOOTH",
"949 897 OFFCURVE",
"948 892 OFFCURVE",
"947 888 CURVE",
"947 872 OFFCURVE",
"939 854 OFFCURVE",
"936 839 CURVE",
"1263 839 LINE",
"1282 917 OFFCURVE",
"1300 994 OFFCURVE",
"1319 1072 CURVE",
"1221 1072 LINE",
"1222 1137 OFFCURVE",
"1147 1207 OFFCURVE",
"1023 1241 CURVE",
"1097 1558 LINE",
"765 1558 LINE",
"693 1250 LINE",
"485 1219 OFFCURVE",
"342 1119 OFFCURVE",
"342 909 CURVE SMOOTH",
"342 774 OFFCURVE",
"439 666 OFFCURVE",
"556 628 CURVE SMOOTH",
"660 594 OFFCURVE",
"814 568 OFFCURVE",
"814 474 CURVE SMOOTH",
"814 422 OFFCURVE",
"760 382 OFFCURVE",
"659 382 CURVE SMOOTH",
"553 382 OFFCURVE",
"513 435 OFFCURVE",
"522 498 CURVE",
"527 520 OFFCURVE",
"532 542 OFFCURVE",
"537 564 CURVE",
"212 564 LINE",
"193 486 OFFCURVE",
"175 408 OFFCURVE",
"156 330 CURVE",
"253 330 LINE",
"271 244 OFFCURVE",
"341 184 OFFCURVE",
"437 152 CURVE",
"358 -187 LINE"
);
}
);
width = 1292;
}
);
unicode = 0024;
},
{
color = (153,188,255,255);
glyphname = braceleft;
layers = (
{
layerId = "608d70f7-2164-4884-8595-c4dfe8e6ed08";
paths = (
{
closed = 1;
nodes = (
"78 670 OFFCURVE",
"110 649 OFFCURVE",
"129 615 CURVE",
"158 564 OFFCURVE",
"160 483 OFFCURVE",
"141 403 CURVE SMOOTH",
"112 279 OFFCURVE",
"84 154 OFFCURVE",
"55 31 CURVE SMOOTH",
"15 -137 OFFCURVE",
"102 -233 OFFCURVE",
"206 -233 CURVE SMOOTH",
"229 -233 OFFCURVE",
"252 -233 OFFCURVE",
"275 -233 CURVE SMOOTH",
"298 -233 OFFCURVE",
"321 -233 OFFCURVE",
"344 -233 CURVE",
"353 -191 OFFCURVE",
"363 -148 OFFCURVE",
"372 -106 CURVE SMOOTH",
"349 -106 OFFCURVE",
"326 -106 OFFCURVE",
"303 -106 CURVE",
"267 -106 OFFCURVE",
"247 -88 OFFCURVE",
"240 -54 CURVE",
"233 -20 OFFCURVE",
"239 29 OFFCURVE",
"253 92 CURVE",
"279 208 OFFCURVE",
"306 324 OFFCURVE",
"333 440 CURVE SMOOTH",
"348 506 OFFCURVE",
"349 559 OFFCURVE",
"339 603 CURVE SMOOTH",
"324 668 OFFCURVE",
"285 710 OFFCURVE",
"233 731 CURVE",
"234 732 OFFCURVE",
"234 734 OFFCURVE",
"235 735 CURVE",
"336 770 OFFCURVE",
"433 862 OFFCURVE",
"471 1026 CURVE SMOOTH",
"498 1142 OFFCURVE",
"523 1258 OFFCURVE",
"550 1374 CURVE SMOOTH",
"579 1499 OFFCURVE",
"618 1573 OFFCURVE",
"690 1573 CURVE",
"713 1573 OFFCURVE",
"736 1573 OFFCURVE",
"759 1573 CURVE SMOOTH",
"769 1615 OFFCURVE",
"778 1658 OFFCURVE",
"788 1700 CURVE",
"742 1700 OFFCURVE",
"697 1700 OFFCURVE",
"651 1700 CURVE SMOOTH",
"545 1700 OFFCURVE",
"419 1604 OFFCURVE",
"380 1436 CURVE SMOOTH",
"351 1312 OFFCURVE",
"322 1187 OFFCURVE",
"294 1063 CURVE SMOOTH",
"264 930 OFFCURVE",
"176 797 OFFCURVE",
"65 797 CURVE",
"55 755 OFFCURVE",
"44 712 OFFCURVE",
"34 670 CURVE"
);
}
);
width = 713;
},
{
layerId = "f6e6aac4-f32e-46b3-99a1-e6d41dab8022";
paths = (
{
closed = 1;
nodes = (
"238 608 OFFCURVE",
"346 643 OFFCURVE",
"326 477 CURVE",
"314 424 OFFCURVE",
"302 372 OFFCURVE",
"290 319 CURVE SMOOTH",
"266 213 OFFCURVE",
"241 107 OFFCURVE",
"217 2 CURVE SMOOTH",
"168 -215 OFFCURVE",
"217 -312 OFFCURVE",
"349 -338 CURVE SMOOTH",
"375 -343 OFFCURVE",
"405 -346 OFFCURVE",
"438 -346 CURVE SMOOTH",
"563 -346 OFFCURVE",
"635 -338 OFFCURVE",
"635 -338 CURVE",
"647 -283 OFFCURVE",
"660 -229 OFFCURVE",
"672 -174 CURVE SMOOTH",
"685 -119 OFFCURVE",
"698 -65 OFFCURVE",
"711 -10 CURVE",
"586 -4 OFFCURVE",
"571 16 OFFCURVE",
"602 154 CURVE",
"602 154 OFFCURVE",
"602 154 OFFCURVE",
"602 154 CURVE",
"619 228 OFFCURVE",
"637 302 OFFCURVE",
"654 376 CURVE SMOOTH",
"665 425 OFFCURVE",
"676 475 OFFCURVE",
"688 524 CURVE SMOOTH",
"707 607 OFFCURVE",
"708 684 OFFCURVE",
"622 725 CURVE",
"622 725 OFFCURVE",
"622 725 OFFCURVE",
"622 725 CURVE",
"727 769 OFFCURVE",
"758 826 OFFCURVE",
"778 913 CURVE SMOOTH",
"809 1050 OFFCURVE",
"841 1186 OFFCURVE",
"872 1323 CURVE SMOOTH",
"899 1442 OFFCURVE",
"928 1473 OFFCURVE",
"1053 1477 CURVE",
"1064 1528 OFFCURVE",
"1076 1579 OFFCURVE",
"1087 1630 CURVE SMOOTH",
"1099 1681 OFFCURVE",
"1112 1733 OFFCURVE",
"1124 1784 CURVE",
"1124 1784 OFFCURVE",
"1057 1792 OFFCURVE",
"932 1792 CURVE SMOOTH",
"761 1792 OFFCURVE",
"647 1727 OFFCURVE",
"579 1545 CURVE SMOOTH",
"524 1395 OFFCURVE",
"495 1207 OFFCURVE",
"457 1042 CURVE SMOOTH",
"399 791 OFFCURVE",
"313 840 OFFCURVE",
"168 817 CURVE",
"153 754 OFFCURVE",
"138 690 OFFCURVE",
"123 627 CURVE"
);
}
);
width = 817;
}
);
unicode = 007B;
},
{
color = (153,188,255,255);
glyphname = bar;
layers = (
{
layerId = "608d70f7-2164-4884-8595-c4dfe8e6ed08";
paths = (
{
closed = 1;
nodes = (
"-68 -270 LINE",
"108 -270 LINE",
"569 1726 LINE",
"393 1726 LINE"
);
}
);
width = 519;
},
{
layerId = "f6e6aac4-f32e-46b3-99a1-e6d41dab8022";
paths = (
{
closed = 1;
nodes = (
"61 -270 LINE",
"334 -270 LINE",
"795 1729 LINE",
"522 1729 LINE"
);
}
);
width = 631;
}
);
unicode = 007C;
},
{
color = (153,188,255,255);
glyphname = braceright;
layers = (
{
layerId = "608d70f7-2164-4884-8595-c4dfe8e6ed08";
paths = (
{
closed = 1;
nodes = (
"-60 -191 OFFCURVE",
"-51 -148 OFFCURVE",
"-41 -106 CURVE",
"-18 -106 OFFCURVE",
"5 -106 OFFCURVE",
"28 -106 CURVE SMOOTH",
"100 -106 OFFCURVE",
"139 -33 OFFCURVE",
"168 92 CURVE",
"195 208 OFFCURVE",
"221 324 OFFCURVE",
"248 440 CURVE",
"286 604 OFFCURVE",
"381 696 OFFCURVE",
"483 731 CURVE",
"484 732 OFFCURVE",
"484 734 OFFCURVE",
"485 735 CURVE",
"433 756 OFFCURVE",
"394 798 OFFCURVE",
"379 863 CURVE",
"369 907 OFFCURVE",
"369 960 OFFCURVE",
"385 1026 CURVE SMOOTH",
"413 1142 OFFCURVE",
"439 1257 OFFCURVE",
"465 1374 CURVE SMOOTH",
"493 1499 OFFCURVE",
"487 1573 OFFCURVE",
"415 1573 CURVE",
"392 1573 OFFCURVE",
"369 1573 OFFCURVE",
"346 1573 CURVE SMOOTH",
"355 1615 OFFCURVE",
"365 1658 OFFCURVE",
"374 1700 CURVE",
"397 1700 OFFCURVE",
"420 1700 OFFCURVE",
"443 1700 CURVE SMOOTH",
"466 1700 OFFCURVE",
"489 1700 OFFCURVE",
"512 1700 CURVE SMOOTH",
"600 1700 OFFCURVE",
"671 1626 OFFCURVE",
"671 1501 CURVE SMOOTH",
"671 1477 OFFCURVE",
"651 1386 OFFCURVE",
"645 1362 CURVE SMOOTH",
"622 1262 OFFCURVE",
"600 1163 OFFCURVE",
"577 1063 CURVE SMOOTH",
"547 930 OFFCURVE",
"573 797 OFFCURVE",
"684 797 CURVE",
"674 755 OFFCURVE",
"663 712 OFFCURVE",
"653 670 CURVE",
"541 670 OFFCURVE",
"454 536 OFFCURVE",
"424 403 CURVE SMOOTH",
"395 279 OFFCURVE",
"369 155 OFFCURVE",
"338 31 CURVE",
"299 -137 OFFCURVE",
"172 -233 OFFCURVE",
"67 -233 CURVE SMOOTH",
"21 -233 OFFCURVE",
"-24 -233 OFFCURVE",
"-70 -233 CURVE"
);
}
);
width = 734;
},
{
layerId = "f6e6aac4-f32e-46b3-99a1-e6d41dab8022";
paths = (
{
closed = 1;
nodes = (
"-78 -228 OFFCURVE",
"-53 -119 OFFCURVE",
"-27 -10 CURVE",
"4 -9 OFFCURVE",
"29 -6 OFFCURVE",
"50 -1 CURVE SMOOTH",
"112 14 OFFCURVE",
"133 50 OFFCURVE",
"156 154 CURVE",
"185 277 OFFCURVE",
"213 401 OFFCURVE",
"242 524 CURVE",
"260 607 OFFCURVE",
"295 684 OFFCURVE",
"398 724 CURVE",
"398 724 OFFCURVE",
"398 724 OFFCURVE",
"398 724 CURVE",
"315 768 OFFCURVE",
"311 825 OFFCURVE",
"332 913 CURVE",
"342 959 OFFCURVE",
"353 1004 OFFCURVE",
"363 1050 CURVE SMOOTH",
"384 1141 OFFCURVE",
"405 1232 OFFCURVE",
"426 1323 CURVE SMOOTH",
"453 1442 OFFCURVE",
"440 1473 OFFCURVE",
"315 1477 CURVE",
"327 1528 OFFCURVE",
"338 1579 OFFCURVE",
"350 1630 CURVE SMOOTH",
"362 1681 OFFCURVE",
"375 1733 OFFCURVE",
"387 1784 CURVE",
"387 1784 OFFCURVE",
"459 1792 OFFCURVE",
"584 1792 CURVE SMOOTH",
"617 1792 OFFCURVE",
"647 1789 OFFCURVE",
"674 1784 CURVE SMOOTH",
"780 1763 OFFCURVE",
"832 1697 OFFCURVE",
"823 1561 CURVE SMOOTH",
"821 1526 OFFCURVE",
"813 1487 OFFCURVE",
"803 1444 CURVE SMOOTH",
"778 1337 OFFCURVE",
"754 1229 OFFCURVE",
"729 1122 CURVE SMOOTH",
"651 780 OFFCURVE",
"735 844 OFFCURVE",
"897 817 CURVE",
"882 754 OFFCURVE",
"867 690 OFFCURVE",
"852 627 CURVE",
"706 604 OFFCURVE",
"621 654 OFFCURVE",
"562 398 CURVE SMOOTH",
"524 233 OFFCURVE",
"493 18 OFFCURVE",
"436 -115 CURVE",
"369 -285 OFFCURVE",
"256 -346 OFFCURVE",
"90 -346 CURVE SMOOTH",
"-35 -346 OFFCURVE",
"-102 -338 OFFCURVE",
"-102 -338 CURVE"
);
}
);
width = 938;
}
);
unicode = 007D;
},
{
color = (153,188,255,255);
glyphname = asciitilde;
layers = (
{
layerId = "608d70f7-2164-4884-8595-c4dfe8e6ed08";
paths = (
{
closed = 1;
nodes = (
"63 369 LINE",
"153 479 OFFCURVE",
"221 520 OFFCURVE",
"278 520 CURVE SMOOTH",
"378 520 OFFCURVE",
"524 377 OFFCURVE",
"679 377 CURVE SMOOTH",
"798 377 OFFCURVE",
"892 442 OFFCURVE",
"976 553 CURVE",
"929 668 LINE",
"839 557 OFFCURVE",
"772 516 OFFCURVE",
"714 516 CURVE SMOOTH",
"614 516 OFFCURVE",
"466 659 OFFCURVE",
"311 659 CURVE SMOOTH",
"192 659 OFFCURVE",
"100 594 OFFCURVE",
"14 483 CURVE"
);
}
);
width = 1188;
},
{
layerId = "f6e6aac4-f32e-46b3-99a1-e6d41dab8022";
paths = (
{
closed = 1;
nodes = (
"225 444 LINE",
"256 532 OFFCURVE",
"317 590 OFFCURVE",
"387 590 CURVE SMOOTH",
"502 590 OFFCURVE",
"606 449 OFFCURVE",
"788 449 CURVE SMOOTH",
"979 449 OFFCURVE",
"1100 588 OFFCURVE",
"1137 760 CURVE",
"973 827 LINE",
"940 737 OFFCURVE",
"893 694 OFFCURVE",
"817 694 CURVE SMOOTH",
"711 694 OFFCURVE",
"569 840 OFFCURVE",
"418 840 CURVE SMOOTH",
"231 840 OFFCURVE",
"104 682 OFFCURVE",
"61 512 CURVE"
);
}
);
width = 1157;
}
);
unicode = 007E;
},
{
color = (153,188,255,255);
glyphname = sterling;
layers = (
{
layerId = "608d70f7-2164-4884-8595-c4dfe8e6ed08";
paths = (
{
closed = 1;
nodes = (
"310 657 LINE",
"312 642 OFFCURVE",
"313 628 OFFCURVE",
"315 614 CURVE SMOOTH",
"334 432 OFFCURVE",
"265 261 OFFCURVE",
"81 168 CURVE",
"-29 168 LINE",
"-42 112 OFFCURVE",
"-55 56 OFFCURVE",
"-68 0 CURVE",
"731 0 LINE",
"744 56 OFFCURVE",
"757 112 OFFCURVE",
"770 168 CURVE",
"287 168 LINE",
"424 250 OFFCURVE",
"503 375 OFFCURVE",
"503 506 CURVE SMOOTH",
"503 548 OFFCURVE",
"500 601 OFFCURVE",
"496 657 CURVE",
"731 657 LINE",
"742 706 OFFCURVE",
"752 754 OFFCURVE",
"763 803 CURVE",
"485 803 LINE",
"479 870 OFFCURVE",
"475 947 OFFCURVE",
"474 997 CURVE SMOOTH",
"470 1149 OFFCURVE",
"527 1290 OFFCURVE",
"704 1290 CURVE SMOOTH",
"806 1290 OFFCURVE",
"841 1192 OFFCURVE",
"819 1090 CURVE",
"874 1093 OFFCURVE",
"930 1097 OFFCURVE",
"985 1100 CURVE",
"1040 1303 OFFCURVE",
"917 1454 OFFCURVE",
"716 1454 CURVE SMOOTH",
"682 1454 OFFCURVE",
"650 1451 OFFCURVE",
"620 1445 CURVE SMOOTH",
"408 1405 OFFCURVE",
"276 1232 OFFCURVE",
"276 977 CURVE SMOOTH",
"276 919 OFFCURVE",
"281 860 OFFCURVE",
"289 803 CURVE",
"90 803 LINE",
"79 754 OFFCURVE",
"68 706 OFFCURVE",
"57 657 CURVE"
);
}
);
width = 1006;
},
{
layerId = "f6e6aac4-f32e-46b3-99a1-e6d41dab8022";
paths = (
{
closed = 1;
nodes = (
"335 584 LINE",
"339 557 OFFCURVE",
"341 532 OFFCURVE",
"342 510 CURVE SMOOTH",
"347 439 OFFCURVE",
"321 345 OFFCURVE",
"286 274 CURVE",
"125 274 LINE",
"104 183 OFFCURVE",
"82 91 OFFCURVE",
"61 0 CURVE",
"961 0 LINE",
"982 91 OFFCURVE",
"1003 183 OFFCURVE",
"1024 274 CURVE",
"604 274 LINE",
"654 344 OFFCURVE",
"689 426 OFFCURVE",
"704 506 CURVE SMOOTH",
"709 533 OFFCURVE",
"712 559 OFFCURVE",
"712 584 CURVE",
"883 584 LINE",
"902 666 OFFCURVE",
"921 747 OFFCURVE",
"940 829 CURVE",
"673 829 LINE",
"668 869 OFFCURVE",
"666 922 OFFCURVE",
"666 961 CURVE SMOOTH",
"666 1109 OFFCURVE",
"738 1165 OFFCURVE",
"817 1165 CURVE SMOOTH",
"881 1165 OFFCURVE",
"930 1112 OFFCURVE",
"909 1006 CURVE",
"1018 1010 OFFCURVE",
"1126 1014 OFFCURVE",
"1235 1018 CURVE",
"1267 1274 OFFCURVE",
"1152 1419 OFFCURVE",
"932 1451 CURVE SMOOTH",
"901 1456 OFFCURVE",
"867 1458 OFFCURVE",
"831 1458 CURVE SMOOTH",
"555 1458 OFFCURVE",
"307 1263 OFFCURVE",
"307 874 CURVE SMOOTH",
"307 859 OFFCURVE",
"307 844 OFFCURVE",
"308 829 CURVE",
"209 829 LINE",
"190 747 OFFCURVE",
"171 666 OFFCURVE",
"152 584 CURVE"
);
}
);
width = 1180;
}
);
unicode = 00A3;
},
{
color = (166,255,153,255);
glyphname = cent;
layers = (
{
associatedMasterId = "f6e6aac4-f32e-46b3-99a1-e6d41dab8022";
components = (
{
alignment = -1;
name = c;
}
);
layerId = "087800cf-c0cd-4c6e-bb98-b375108ebc92";
name = img;
width = 0;
},
{
components = (
{
alignment = -1;
name = c;
transform = "{1, 0, 0, 1, 10, 0}";
}
);
layerId = "608d70f7-2164-4884-8595-c4dfe8e6ed08";
paths = (
{
closed = 1;
nodes = (
"548 -242 LINE",
"632 121 LINE",
"436 121 LINE",
"352 -242 LINE"
);
},
{
closed = 1;
nodes = (
"817 922 LINE",
"907 1311 LINE",
"710 1311 LINE",
"620 922 LINE"
);
}
);
width = 1135;
},
{
components = (
{
alignment = -1;
name = c;
}
);
layerId = "f6e6aac4-f32e-46b3-99a1-e6d41dab8022";
paths = (
{
closed = 1;
nodes = (
"627 -242 LINE",
"713 129 LINE",
"381 129 LINE",
"295 -242 LINE"
);
},
{
closed = 1;
nodes = (
"903 958 LINE",
"989 1329 LINE",
"657 1329 LINE",
"571 958 LINE"
);
}
);
width = 1171;
}
);
unicode = 00A2;
},
{
color = (153,188,255,255);
glyphname = multiply;
layers = (
{
guideLines = (
{
angle = 132.91;
position = "{246, 0}";
},
{
angle = 132.91;
position = "{2277, 0}";
}
);
layerId = "608d70f7-2164-4884-8595-c4dfe8e6ed08";
paths = (
{
closed = 1;
nodes = (
"20 242 LINE",
"154 100 LINE",
"613 531 LINE",
"870 106 LINE",
"1034 219 LINE",
"761 670 LINE",
"1241 1122 LINE",
"1108 1262 LINE",
"658 840 LINE",
"414 1245 LINE",
"254 1128 LINE",
"510 702 LINE"
);
}
);
width = 1221;
},
{
guideLines = (
{
angle = 77;
position = "{571, 0}";
},
{
angle = 132.91;
position = "{2337, 0}";
}
);
layerId = "f6e6aac4-f32e-46b3-99a1-e6d41dab8022";
paths = (
{
closed = 1;
nodes = (
"31 301 LINE",
"219 88 LINE",
"629 444 LINE",
"868 98 LINE",
"1122 289 LINE",
"870 654 LINE",
"1323 1047 LINE",
"1135 1262 LINE",
"708 890 LINE",
"461 1249 LINE",
"207 1057 LINE",
"466 680 LINE"
);
}
);
width = 1262;
}
);
unicode = 00D7;
},
{
color = (153,249,255,255);
glyphname = circumflex;
layers = (
{
anchors = (
{
name = _top;
position = "{549, 1036}";
}
);
layerId = "608d70f7-2164-4884-8595-c4dfe8e6ed08";
paths = (
{
closed = 1;
nodes = (
"252 1171 LINE",
"549 1444 LINE",
"661 1444 LINE",
"811 1171 LINE",
"641 1171 LINE",
"577 1296 LINE",
"452 1171 LINE"
);
}
);
width = 799;
},
{
anchors = (
{
name = _top;
position = "{498, 1036}";
}
);
layerId = "f6e6aac4-f32e-46b3-99a1-e6d41dab8022";
paths = (
{
closed = 1;
nodes = (
"100 1178 LINE",
"457 1503 LINE",
"696 1503 LINE",
"893 1178 LINE",
"645 1178 LINE",
"549 1335 LINE",
"377 1178 LINE"
);
}
);
width = 991;
}
);
unicode = 02C6;
},
{
color = (153,249,255,255);
glyphname = tilde;
layers = (
{
anchors = (
{
name = _top;
position = "{617, 1036}";
}
);
layerId = "608d70f7-2164-4884-8595-c4dfe8e6ed08";
paths = (
{
closed = 1;
nodes = (
"398 1415 OFFCURVE",
"301 1386 OFFCURVE",
"238 1229 CURVE",
"361 1198 LINE",
"389 1264 OFFCURVE",
"422 1286 OFFCURVE",
"465 1286 CURVE SMOOTH",
"553 1286 OFFCURVE",
"602 1178 OFFCURVE",
"762 1178 CURVE SMOOTH",
"862 1178 OFFCURVE",
"955 1217 OFFCURVE",
"993 1362 CURVE",
"871 1393 LINE",
"844 1331 OFFCURVE",
"807 1307 OFFCURVE",
"770 1307 CURVE SMOOTH",
"666 1307 OFFCURVE",
"623 1415 OFFCURVE",
"469 1415 CURVE SMOOTH"
);
}
);
width = 909;
},
{
anchors = (
{
name = _top;
position = "{541, 1036}";
}
);
layerId = "f6e6aac4-f32e-46b3-99a1-e6d41dab8022";
paths = (
{
closed = 1;
nodes = (
"242 1479 OFFCURVE",
"121 1442 OFFCURVE",
"41 1253 CURVE",
"211 1196 LINE",
"244 1245 OFFCURVE",
"283 1276 OFFCURVE",
"332 1276 CURVE SMOOTH",
"434 1276 OFFCURVE",
"508 1169 OFFCURVE",
"653 1169 CURVE SMOOTH",
"758 1169 OFFCURVE",
"883 1214 OFFCURVE",
"950 1395 CURVE",
"778 1454 LINE",
"754 1407 OFFCURVE",
"715 1372 OFFCURVE",
"672 1372 CURVE SMOOTH",
"559 1372 OFFCURVE",
"498 1479 OFFCURVE",
"342 1479 CURVE SMOOTH"
);
}
);
width = 1053;
}
);
unicode = 02DC;
},
{
color = (153,188,255,255);
glyphname = macron;
layers = (
{
anchors = (
{
name = _top;
position = "{628, 1036}";
}
);
layerId = "608d70f7-2164-4884-8595-c4dfe8e6ed08";
paths = (
{
closed = 1;
nodes = (
"997 1341 LINE",
"233 1341 LINE",
"208 1235 LINE",
"972 1235 LINE"
);
}
);
width = 922;
},
{
anchors = (
{
name = _top;
position = "{426, 1036}";
}
);
layerId = "f6e6aac4-f32e-46b3-99a1-e6d41dab8022";
paths = (
{
closed = 1;
nodes = (
"809 1391 LINE",
"121 1391 LINE",
"72 1176 LINE",
"760 1176 LINE"
);
}
);
width = 860;
}
);
unicode = 00AF;
},
{
color = (248,153,255,255);
glyphname = breve;
layers = (
{
anchors = (
{
name = _top;
position = "{654, 1036}";
}
);
layerId = "608d70f7-2164-4884-8595-c4dfe8e6ed08";
paths = (
{
closed = 1;
nodes = (
"896 1109 OFFCURVE",
"1089 1268 OFFCURVE",
"1091 1480 CURVE",
"912 1480 LINE",
"912 1360 OFFCURVE",
"804 1257 OFFCURVE",
"660 1257 CURVE SMOOTH",
"517 1257 OFFCURVE",
"409 1360 OFFCURVE",
"409 1479 CURVE",
"229 1479 LINE",
"229 1268 OFFCURVE",
"425 1109 OFFCURVE",
"660 1109 CURVE SMOOTH"
);
}
);
width = 889;
},
{
anchors = (
{
name = _top;
position = "{500, 1036}";
}
);
layerId = "f6e6aac4-f32e-46b3-99a1-e6d41dab8022";
paths = (
{
closed = 1;
nodes = (
"754 1157 OFFCURVE",
"885 1276 OFFCURVE",
"942 1481 CURVE",
"692 1481 LINE",
"659 1395 OFFCURVE",
"598 1358 OFFCURVE",
"504 1358 CURVE SMOOTH",
"403 1358 OFFCURVE",
"340 1401 OFFCURVE",
"313 1481 CURVE",
"61 1481 LINE",
"127 1274 OFFCURVE",
"250 1157 OFFCURVE",
"504 1157 CURVE SMOOTH"
);
}
);
width = 1004;
}
);
unicode = 02D8;
},
{
color = (153,188,255,255);
glyphname = cedilla;
layers = (
{
anchors = (
{
name = _bottom;
position = "{272, 0}";
}
);
layerId = "608d70f7-2164-4884-8595-c4dfe8e6ed08";
paths = (
{
closed = 1;
nodes = (
"2 -420 LINE",
"221 -418 OFFCURVE",
"387 -301 OFFCURVE",
"425 -117 CURVE",
"249 -66 LINE",
"225 -195 OFFCURVE",
"137 -279 OFFCURVE",
"-27 -281 CURVE"
);
}
);
width = 698;
},
{
anchors = (
{
name = _bottom;
position = "{451, 0}";
}
);
layerId = "f6e6aac4-f32e-46b3-99a1-e6d41dab8022";
paths = (
{
closed = 1;
nodes = (
"172 -453 LINE",
"367 -428 OFFCURVE",
"526 -324 OFFCURVE",
"602 -139 CURVE",
"338 -47 LINE",
"303 -182 OFFCURVE",
"240 -256 OFFCURVE",
"102 -289 CURVE"
);
}
);
width = 705;
}
);
unicode = 00B8;
},
{
color = (248,153,255,255);
glyphname = hungarumlaut;
layers = (
{
layerId = "608d70f7-2164-4884-8595-c4dfe8e6ed08";
paths = (
{
closed = 1;
nodes = (
"536 1508 LINE",
"315 1187 LINE",
"475 1187 LINE",
"698 1508 LINE"
);
},
{
closed = 1;
nodes = (
"220 1508 LINE",
"2 1187 LINE",
"160 1187 LINE",
"383 1508 LINE"
);
}
);
width = 808;
},
{
layerId = "f6e6aac4-f32e-46b3-99a1-e6d41dab8022";
paths = (
{
closed = 1;
nodes = (
"682 1508 LINE",
"473 1188 LINE",
"662 1188 LINE",
"942 1508 LINE"
);
},
{
closed = 1;
nodes = (
"287 1508 LINE",
"102 1188 LINE",
"289 1188 LINE",
"545 1508 LINE"
);
}
);
width = 1044;
}
);
unicode = 02DD;
},
{
color = (153,249,255,255);
glyphname = ogonek;
layers = (
{
layerId = "608d70f7-2164-4884-8595-c4dfe8e6ed08";
paths = (
{
closed = 1;
nodes = (
"342 106 LINE",
"225 76 OFFCURVE",
"-12 -45 OFFCURVE",
"-12 -250 CURVE SMOOTH",
"-12 -385 OFFCURVE",
"107 -457 OFFCURVE",
"268 -457 CURVE SMOOTH",
"330 -457 OFFCURVE",
"418 -432 OFFCURVE",
"447 -416 CURVE",
"397 -250 LINE",
"371 -262 OFFCURVE",
"336 -272 OFFCURVE",
"285 -272 CURVE SMOOTH",
"238 -272 OFFCURVE",
"193 -256 OFFCURVE",
"193 -205 CURVE SMOOTH",
"193 -115 OFFCURVE",
"252 -47 OFFCURVE",
"428 29 CURVE"
);
}
);
width = 705;
},
{
layerId = "f6e6aac4-f32e-46b3-99a1-e6d41dab8022";
paths = (
{
closed = 1;
nodes = (
"457 106 LINE",
"340 76 OFFCURVE",
"102 -45 OFFCURVE",
"102 -250 CURVE SMOOTH",
"102 -385 OFFCURVE",
"221 -457 OFFCURVE",
"383 -457 CURVE SMOOTH",
"444 -457 OFFCURVE",
"532 -432 OFFCURVE",
"561 -416 CURVE",
"512 -250 LINE",
"485 -262 OFFCURVE",
"451 -272 OFFCURVE",
"399 -272 CURVE SMOOTH",
"352 -272 OFFCURVE",
"307 -256 OFFCURVE",
"307 -205 CURVE SMOOTH",
"307 -115 OFFCURVE",
"367 -47 OFFCURVE",
"543 29 CURVE"
);
}
);
width = 664;
}
);
unicode = 02DB;
},
{
color = (153,249,255,255);
glyphname = caron;
layers = (
{
anchors = (
{
name = _top;
position = "{545, 1036}";
}
);
layerId = "608d70f7-2164-4884-8595-c4dfe8e6ed08";
paths = (
{
closed = 1;
nodes = (
"838 1444 LINE",
"541 1171 LINE",
"428 1171 LINE",
"279 1444 LINE",
"445 1444 LINE",
"512 1315 LINE",
"641 1444 LINE"
);
}
);
width = 778;
},
{
anchors = (
{
name = _top;
position = "{492, 1036}";
}
);
layerId = "f6e6aac4-f32e-46b3-99a1-e6d41dab8022";
paths = (
{
closed = 1;
nodes = (
"954 1503 LINE",
"598 1178 LINE",
"358 1178 LINE",
"162 1503 LINE",
"410 1503 LINE",
"506 1346 LINE",
"678 1503 LINE"
);
}
);
width = 991;
}
);
unicode = 02C7;
},
{
color = (153,188,255,255);
glyphname = degree;
layers = (
{
layerId = "608d70f7-2164-4884-8595-c4dfe8e6ed08";
paths = (
{
closed = 1;
nodes = (
"741 1653 OFFCURVE",
"831 1550 OFFCURVE",
"831 1419 CURVE SMOOTH",
"831 1229 OFFCURVE",
"663 1114 OFFCURVE",
"510 1114 CURVE SMOOTH",
"370 1114 OFFCURVE",
"278 1219 OFFCURVE",
"278 1348 CURVE SMOOTH",
"278 1530 OFFCURVE",
"444 1653 OFFCURVE",
"600 1653 CURVE SMOOTH"
);
},
{
closed = 1;
nodes = (
"409 1292 OFFCURVE",
"452 1239 OFFCURVE",
"520 1239 CURVE SMOOTH",
"608 1239 OFFCURVE",
"700 1313 OFFCURVE",
"700 1411 CURVE SMOOTH",
"700 1477 OFFCURVE",
"655 1528 OFFCURVE",
"587 1528 CURVE SMOOTH",
"497 1528 OFFCURVE",
"409 1446 OFFCURVE",
"409 1356 CURVE SMOOTH"
);
}
);
width = 862;
},
{
layerId = "f6e6aac4-f32e-46b3-99a1-e6d41dab8022";
paths = (
{
closed = 1;
nodes = (
"827 1692 OFFCURVE",
"942 1575 OFFCURVE",
"942 1405 CURVE SMOOTH",
"942 1149 OFFCURVE",
"721 1014 OFFCURVE",
"543 1014 CURVE SMOOTH",
"365 1014 OFFCURVE",
"246 1139 OFFCURVE",
"246 1307 CURVE SMOOTH",
"246 1548 OFFCURVE",
"465 1692 OFFCURVE",
"653 1692 CURVE SMOOTH"
);
},
{
closed = 1;
nodes = (
"434 1241 OFFCURVE",
"487 1192 OFFCURVE",
"557 1192 CURVE SMOOTH",
"647 1192 OFFCURVE",
"754 1266 OFFCURVE",
"754 1391 CURVE SMOOTH",
"754 1466 OFFCURVE",
"705 1513 OFFCURVE",
"629 1513 CURVE SMOOTH",
"524 1513 OFFCURVE",
"434 1421 OFFCURVE",
"434 1317 CURVE SMOOTH"
);
}
);
width = 1044;
}
);
unicode = 00B0;
},
{
color = (153,188,255,255);
glyphname = grave;
layers = (
{
anchors = (
{
name = _top;
position = "{599, 1036}";
}
);
layerId = "608d70f7-2164-4884-8595-c4dfe8e6ed08";
paths = (
{
closed = 1;
nodes = (
"486 1171 LINE",
"216 1427 LINE",
"216 1444 LINE",
"468 1444 LINE",
"636 1171 LINE"
);
}
);
width = 543;
},
{
anchors = (
{
name = _top;
position = "{504, 1036}";
}
);
layerId = "f6e6aac4-f32e-46b3-99a1-e6d41dab8022";
paths = (
{
closed = 1;
nodes = (
"403 1217 LINE",
"102 1518 LINE",
"102 1542 LINE",
"428 1542 LINE",
"633 1217 LINE"
);
}
);
width = 735;
}
);
unicode = 0060;
},
{
color = (153,188,255,255);
glyphname = acute;
layers = (
{
anchors = (
{
name = _top;
position = "{337, 1036}";
}
);
layerId = "608d70f7-2164-4884-8595-c4dfe8e6ed08";
paths = (
{
closed = 1;
nodes = (
"243 1171 LINE",
"392 1171 LINE",
"663 1427 LINE",
"663 1444 LINE",
"411 1444 LINE"
);
}
);
width = 666;
},
{
anchors = (
{
name = _top;
position = "{199, 1036}";
}
);
layerId = "f6e6aac4-f32e-46b3-99a1-e6d41dab8022";
paths = (
{
closed = 1;
nodes = (
"102 1178 LINE",
"332 1178 LINE",
"633 1479 LINE",
"633 1503 LINE",
"307 1503 LINE"
);
}
);
width = 735;
}
);
unicode = 00B4;
},
{
color = (153,188,255,255);
glyphname = dieresis;
layers = (
{
anchors = (
{
name = _top;
position = "{578, 1036}";
}
);
layerId = "608d70f7-2164-4884-8595-c4dfe8e6ed08";
paths = (
{
closed = 1;
nodes = (
"257 1223 OFFCURVE",
"310 1169 OFFCURVE",
"376 1169 CURVE SMOOTH",
"441 1169 OFFCURVE",
"496 1223 OFFCURVE",
"496 1290 CURVE SMOOTH",
"496 1354 OFFCURVE",
"441 1409 OFFCURVE",
"376 1409 CURVE SMOOTH",
"310 1409 OFFCURVE",
"257 1354 OFFCURVE",
"257 1290 CURVE SMOOTH"
);
},
{
closed = 1;
nodes = (
"716 1223 OFFCURVE",
"767 1169 OFFCURVE",
"834 1169 CURVE SMOOTH",
"900 1169 OFFCURVE",
"953 1223 OFFCURVE",
"953 1290 CURVE SMOOTH",
"953 1354 OFFCURVE",
"900 1409 OFFCURVE",
"834 1409 CURVE SMOOTH",
"767 1409 OFFCURVE",
"716 1354 OFFCURVE",
"716 1290 CURVE SMOOTH"
);
}
);
width = 983;
},
{
anchors = (
{
name = _top;
position = "{512, 1038}";
}
);
layerId = "f6e6aac4-f32e-46b3-99a1-e6d41dab8022";
paths = (
{
closed = 1;
nodes = (
"102 1247 OFFCURVE",
"178 1171 OFFCURVE",
"272 1171 CURVE SMOOTH",
"367 1171 OFFCURVE",
"442 1247 OFFCURVE",
"442 1341 CURVE SMOOTH",
"442 1436 OFFCURVE",
"367 1511 OFFCURVE",
"272 1511 CURVE SMOOTH",
"178 1511 OFFCURVE",
"102 1436 OFFCURVE",
"102 1341 CURVE SMOOTH"
);
},
{
closed = 1;
nodes = (
"582 1247 OFFCURVE",
"657 1171 OFFCURVE",
"752 1171 CURVE SMOOTH",
"846 1171 OFFCURVE",
"922 1247 OFFCURVE",
"922 1341 CURVE SMOOTH",
"922 1436 OFFCURVE",
"846 1511 OFFCURVE",
"752 1511 CURVE SMOOTH",
"657 1511 OFFCURVE",
"582 1436 OFFCURVE",
"582 1341 CURVE SMOOTH"
);
}
);
width = 1024;
}
);
unicode = 00A8;
},
{
color = (153,249,255,255);
glyphname = ring;
layers = (
{
anchors = (
{
name = _top;
position = "{403, 1036}";
}
);
layerId = "608d70f7-2164-4884-8595-c4dfe8e6ed08";
paths = (
{
closed = 1;
nodes = (
"310 1372 OFFCURVE",
"343 1405 OFFCURVE",
"380 1405 CURVE SMOOTH",
"417 1405 OFFCURVE",
"450 1372 OFFCURVE",
"450 1335 CURVE SMOOTH",
"450 1298 OFFCURVE",
"417 1266 OFFCURVE",
"380 1266 CURVE SMOOTH",
"343 1266 OFFCURVE",
"310 1298 OFFCURVE",
"310 1335 CURVE SMOOTH"
);
},
{
closed = 1;
nodes = (
"284 1511 OFFCURVE",
"204 1432 OFFCURVE",
"204 1335 CURVE SMOOTH",
"204 1239 OFFCURVE",
"284 1159 OFFCURVE",
"380 1159 CURVE SMOOTH",
"476 1159 OFFCURVE",
"556 1239 OFFCURVE",
"556 1335 CURVE SMOOTH",
"556 1432 OFFCURVE",
"476 1511 OFFCURVE",
"380 1511 CURVE SMOOTH"
);
}
);
width = 485;
},
{
anchors = (
{
name = _top;
position = "{354, 1036}";
}
);
layerId = "f6e6aac4-f32e-46b3-99a1-e6d41dab8022";
paths = (
{
closed = 1;
nodes = (
"283 1434 OFFCURVE",
"313 1464 OFFCURVE",
"352 1464 CURVE SMOOTH",
"391 1464 OFFCURVE",
"422 1434 OFFCURVE",
"422 1395 CURVE SMOOTH",
"422 1356 OFFCURVE",
"391 1325 OFFCURVE",
"352 1325 CURVE SMOOTH",
"313 1325 OFFCURVE",
"283 1356 OFFCURVE",
"283 1395 CURVE SMOOTH"
);
},
{
closed = 1;
nodes = (
"215 1645 OFFCURVE",
"102 1532 OFFCURVE",
"102 1395 CURVE SMOOTH",
"102 1257 OFFCURVE",
"215 1145 OFFCURVE",
"352 1145 CURVE SMOOTH",
"489 1145 OFFCURVE",
"602 1257 OFFCURVE",
"602 1395 CURVE SMOOTH",
"602 1532 OFFCURVE",
"489 1645 OFFCURVE",
"352 1645 CURVE SMOOTH"
);
}
);
width = 705;
}
);
unicode = 02DA;
},
{
color = (153,249,255,255);
glyphname = dotaccent;
layers = (
{
anchors = (
{
name = _top;
position = "{341, 1036}";
}
);
layerId = "608d70f7-2164-4884-8595-c4dfe8e6ed08";
paths = (
{
closed = 1;
nodes = (
"231 1329 OFFCURVE",
"290 1266 OFFCURVE",
"364 1266 CURVE SMOOTH",
"436 1266 OFFCURVE",
"495 1329 OFFCURVE",
"495 1401 CURVE SMOOTH",
"495 1473 OFFCURVE",
"436 1532 OFFCURVE",
"364 1532 CURVE SMOOTH",
"290 1532 OFFCURVE",
"231 1473 OFFCURVE",
"231 1401 CURVE"
);
}
);
width = 404;
},
{
anchors = (
{
name = _top;
position = "{279, 1036}";
}
);
layerId = "f6e6aac4-f32e-46b3-99a1-e6d41dab8022";
paths = (
{
closed = 1;
nodes = (
"102 1272 OFFCURVE",
"180 1192 OFFCURVE",
"281 1192 CURVE SMOOTH",
"377 1192 OFFCURVE",
"457 1272 OFFCURVE",
"457 1370 CURVE SMOOTH",
"457 1468 OFFCURVE",
"377 1548 OFFCURVE",
"281 1548 CURVE SMOOTH",
"180 1548 OFFCURVE",
"102 1468 OFFCURVE",
"102 1370 CURVE"
);
}
);
width = 559;
}
);
unicode = 02D9;
},
{
color = (153,249,255,255);
glyphname = dotlessi;
layers = (
{
anchors = (
{
name = top;
position = "{487, 1036}";
}
);
guideLines = (
{
angle = 77;
position = "{-74, 0}";
}
);
layerId = "608d70f7-2164-4884-8595-c4dfe8e6ed08";
paths = (
{
closed = 1;
nodes = (
"161 864 LINE",
"347 864 LINE",
"147 0 LINE",
"516 0 LINE",
"555 172 LINE",
"389 172 LINE",
"589 1036 LINE",
"202 1036 LINE"
);
}
);
width = 654;
},
{
anchors = (
{
name = top;
position = "{528, 1036}";
}
);
guideLines = (
{
angle = 77;
position = "{-92, 0}";
}
);
layerId = "f6e6aac4-f32e-46b3-99a1-e6d41dab8022";
paths = (
{
closed = 1;
nodes = (
"78 762 LINE",
"299 762 LINE",
"123 0 LINE",
"705 0 LINE",
"768 274 LINE",
"528 274 LINE",
"705 1036 LINE",
"141 1036 LINE"
);
}
);
width = 860;
}
);
unicode = 0131;
},
{
color = (153,188,255,255);
glyphname = AE;
layers = (
{
associatedMasterId = "f6e6aac4-f32e-46b3-99a1-e6d41dab8022";
layerId = "087800cf-c0cd-4c6e-bb98-b375108ebc92";
name = img;
width = 0;
},
{
layerId = "608d70f7-2164-4884-8595-c4dfe8e6ed08";
paths = (
{
closed = 1;
nodes = (
"321 0 LINE",
"334 57 OFFCURVE",
"347 115 OFFCURVE",
"360 172 CURVE",
"238 172 LINE",
"322 286 OFFCURVE",
"406 400 OFFCURVE",
"490 514 CURVE",
"902 514 LINE",
"876 400 OFFCURVE",
"849 286 OFFCURVE",
"823 172 CURVE",
"690 172 LINE",
"677 115 OFFCURVE",
"664 57 OFFCURVE",
"651 0 CURVE",
"1736 0 LINE",
"1770 145 OFFCURVE",
"1803 289 OFFCURVE",
"1837 434 CURVE",
"1628 434 LINE",
"1607 347 OFFCURVE",
"1587 259 OFFCURVE",
"1566 172 CURVE",
"1032 172 LINE",
"1071 343 OFFCURVE",
"1111 515 OFFCURVE",
"1150 686 CURVE",
"1593 686 LINE",
"1607 743 OFFCURVE",
"1622 801 OFFCURVE",
"1636 858 CURVE",
"1189 858 LINE",
"1226 1020 OFFCURVE",
"1263 1181 OFFCURVE",
"1300 1343 CURVE",
"1841 1343 LINE",
"1820 1256 OFFCURVE",
"1800 1170 OFFCURVE",
"1779 1083 CURVE",
"1986 1083 LINE",
"2019 1227 OFFCURVE",
"2053 1372 OFFCURVE",
"2086 1516 CURVE",
"985 1516 LINE",
"655 1068 OFFCURVE",
"325 620 OFFCURVE",
"-5 172 CURVE",
"-132 172 LINE",
"-145 115 OFFCURVE",
"-157 57 OFFCURVE",
"-170 0 CURVE"
);
},
{
closed = 1;
nodes = (
"617 686 LINE",
"775 900 OFFCURVE",
"932 1114 OFFCURVE",
"1090 1328 CURVE",
"1041 1114 OFFCURVE",
"991 900 OFFCURVE",
"942 686 CURVE"
);
}
);
width = 1991;
},
{
layerId = "f6e6aac4-f32e-46b3-99a1-e6d41dab8022";
paths = (
{
closed = 1;
nodes = (
"532 0 LINE",
"553 91 OFFCURVE",
"575 183 OFFCURVE",
"596 274 CURVE",
"450 274 LINE",
"504 344 OFFCURVE",
"559 413 OFFCURVE",
"613 483 CURVE",
"1015 483 LINE",
"987 362 OFFCURVE",
"959 242 OFFCURVE",
"931 121 CURVE",
"931 121 LINE",
"922 81 OFFCURVE",
"912 40 OFFCURVE",
"903 0 CURVE",
"1999 0 LINE",
"2041 181 OFFCURVE",
"2082 362 OFFCURVE",
"2124 543 CURVE",
"1774 543 LINE",
"1753 453 OFFCURVE",
"1733 364 OFFCURVE",
"1712 274 CURVE",
"1316 274 LINE",
"1343 391 OFFCURVE",
"1371 508 OFFCURVE",
"1398 625 CURVE",
"1735 625 LINE",
"1757 722 OFFCURVE",
"1780 818 OFFCURVE",
"1802 915 CURVE",
"1465 915 LINE",
"1490 1024 OFFCURVE",
"1516 1132 OFFCURVE",
"1541 1241 CURVE",
"1962 1241 LINE",
"1944 1160 OFFCURVE",
"1925 1080 OFFCURVE",
"1907 999 CURVE",
"2257 999 LINE",
"2297 1171 OFFCURVE",
"2336 1344 OFFCURVE",
"2376 1516 CURVE",
"1024 1516 LINE",
"702 1102 OFFCURVE",
"379 688 OFFCURVE",
"57 274 CURVE",
"-80 274 LINE",
"-101 183 OFFCURVE",
"-122 91 OFFCURVE",
"-143 0 CURVE"
);
},
{
closed = 1;
nodes = (
"837 772 LINE",
"953 921 OFFCURVE",
"1070 1071 OFFCURVE",
"1186 1220 CURVE",
"1151 1071 OFFCURVE",
"1117 921 OFFCURVE",
"1082 772 CURVE"
);
}
);
width = 2191;
}
);
unicode = 00C6;
},
{
color = (153,188,255,255);
glyphname = ae;
layers = (
{
associatedMasterId = "f6e6aac4-f32e-46b3-99a1-e6d41dab8022";
layerId = "087800cf-c0cd-4c6e-bb98-b375108ebc92";
name = img;
width = 0;
},
{
layerId = "608d70f7-2164-4884-8595-c4dfe8e6ed08";
paths = (
{
closed = 1;
nodes = (
"305 606 OFFCURVE",
"-7 541 OFFCURVE",
"-7 246 CURVE SMOOTH",
"-7 55 OFFCURVE",
"143 -29 OFFCURVE",
"335 -29 CURVE SMOOTH",
"502 -29 OFFCURVE",
"661 46 OFFCURVE",
"765 186 CURVE",
"844 47 OFFCURVE",
"991 -31 OFFCURVE",
"1161 -31 CURVE SMOOTH",
"1341 -31 OFFCURVE",
"1509 45 OFFCURVE",
"1599 164 CURVE",
"1550 200 OFFCURVE",
"1501 236 OFFCURVE",
"1452 272 CURVE",
"1386 190 OFFCURVE",
"1284 145 OFFCURVE",
"1177 145 CURVE SMOOTH",
"1017 145 OFFCURVE",
"903 272 OFFCURVE",
"903 440 CURVE SMOOTH",
"903 452 OFFCURVE",
"904 465 OFFCURVE",
"905 483 CURVE",
"1701 483 LINE",
"1712 537 OFFCURVE",
"1720 602 OFFCURVE",
"1720 670 CURVE SMOOTH",
"1720 874 OFFCURVE",
"1566 1067 OFFCURVE",
"1302 1067 CURVE SMOOTH",
"1150 1067 OFFCURVE",
"1014 1011 OFFCURVE",
"910 920 CURVE",
"865 1015 OFFCURVE",
"765 1059 OFFCURVE",
"620 1059 CURVE SMOOTH",
"489 1059 OFFCURVE",
"335 1012 OFFCURVE",
"223 948 CURVE",
"233 905 OFFCURVE",
"243 862 OFFCURVE",
"253 819 CURVE",
"323 858 OFFCURVE",
"440 895 OFFCURVE",
"565 895 CURVE SMOOTH",
"698 895 OFFCURVE",
"774 827 OFFCURVE",
"739 680 CURVE SMOOTH",
"731 648 OFFCURVE",
"724 617 OFFCURVE",
"716 585 CURVE",
"666 598 OFFCURVE",
"597 606 OFFCURVE",
"507 606 CURVE SMOOTH"
);
},
{
closed = 1;
nodes = (
"249 127 OFFCURVE",
"182 174 OFFCURVE",
"182 272 CURVE SMOOTH",
"182 400 OFFCURVE",
"310 477 OFFCURVE",
"473 477 CURVE SMOOTH",
"703 477 LINE",
"702 466 OFFCURVE",
"702 455 OFFCURVE",
"702 444 CURVE SMOOTH",
"702 394 OFFCURVE",
"708 348 OFFCURVE",
"718 305 CURVE",
"622 193 OFFCURVE",
"492 127 OFFCURVE",
"354 127 CURVE SMOOTH"
);
},
{
closed = 1;
nodes = (
"1427 897 OFFCURVE",
"1531 811 OFFCURVE",
"1527 645 CURVE",
"937 645 LINE",
"992 789 OFFCURVE",
"1117 897 OFFCURVE",
"1275 897 CURVE SMOOTH"
);
}
);
width = 1772;
},
{
layerId = "f6e6aac4-f32e-46b3-99a1-e6d41dab8022";
paths = (
{
closed = 1;
nodes = (
"231 637 OFFCURVE",
"41 487 OFFCURVE",
"41 268 CURVE SMOOTH",
"41 113 OFFCURVE",
"158 -25 OFFCURVE",
"393 -25 CURVE SMOOTH",
"591 -25 OFFCURVE",
"715 47 OFFCURVE",
"820 153 CURVE",
"906 38 OFFCURVE",
"1047 -27 OFFCURVE",
"1206 -27 CURVE SMOOTH",
"1407 -27 OFFCURVE",
"1589 39 OFFCURVE",
"1722 182 CURVE",
"1649 246 OFFCURVE",
"1576 311 OFFCURVE",
"1503 375 CURVE",
"1430 311 OFFCURVE",
"1360 266 OFFCURVE",
"1253 266 CURVE SMOOTH",
"1167 266 OFFCURVE",
"1112 299 OFFCURVE",
"1083 351 CURVE SMOOTH",
"1069 377 OFFCURVE",
"1061 407 OFFCURVE",
"1059 440 CURVE",
"1798 440 LINE",
"1817 498 OFFCURVE",
"1829 584 OFFCURVE",
"1829 637 CURVE SMOOTH",
"1829 862 OFFCURVE",
"1634 1067 OFFCURVE",
"1366 1067 CURVE SMOOTH",
"1231 1067 OFFCURVE",
"1104 1026 OFFCURVE",
"999 954 CURVE",
"929 1026 OFFCURVE",
"816 1059 OFFCURVE",
"684 1059 CURVE SMOOTH",
"522 1059 OFFCURVE",
"371 1006 OFFCURVE",
"227 915 CURVE",
"244 850 OFFCURVE",
"262 786 OFFCURVE",
"279 721 CURVE",
"379 768 OFFCURVE",
"473 793 OFFCURVE",
"598 793 CURVE SMOOTH",
"719 793 OFFCURVE",
"786 748 OFFCURVE",
"762 643 CURVE SMOOTH",
"760 633 OFFCURVE",
"757 623 OFFCURVE",
"755 613 CURVE",
"693 627 OFFCURVE",
"621 637 OFFCURVE",
"530 637 CURVE SMOOTH"
);
},
{
closed = 1;
nodes = (
"365 211 OFFCURVE",
"330 248 OFFCURVE",
"330 299 CURVE SMOOTH",
"330 406 OFFCURVE",
"435 422 OFFCURVE",
"530 422 CURVE SMOOTH",
"733 422 LINE",
"733 410 OFFCURVE",
"734 398 OFFCURVE",
"735 386 CURVE SMOOTH",
"737 363 OFFCURVE",
"740 340 OFFCURVE",
"745 318 CURVE",
"662 254 OFFCURVE",
"563 211 OFFCURVE",
"442 211 CURVE SMOOTH"
);
},
{
closed = 1;
nodes = (
"1444 809 OFFCURVE",
"1522 737 OFFCURVE",
"1528 666 CURVE",
"1094 666 LINE",
"1131 757 OFFCURVE",
"1227 809 OFFCURVE",
"1333 809 CURVE SMOOTH"
);
}
);
width = 1849;
}
);
unicode = 00E6;
},
{
color = (153,188,255,255);
glyphname = thorn;
layers = (
{
guideLines = (
{
angle = 90;
position = "{-72, 0}";
}
);
layerId = "608d70f7-2164-4884-8595-c4dfe8e6ed08";
paths = (
{
closed = 1;
nodes = (
"194 1384 LINE",
"388 1384 LINE",
"0 -299 LINE",
"-154 -299 LINE",
"-193 -471 LINE",
"299 -471 LINE",
"337 -299 LINE",
"200 -299 LINE",
"284 64 LINE",
"340 16 OFFCURVE",
"434 -18 OFFCURVE",
"536 -18 CURVE SMOOTH",
"886 -18 OFFCURVE",
"1177 252 OFFCURVE",
"1177 639 CURVE SMOOTH",
"1177 877 OFFCURVE",
"999 1063 OFFCURVE",
"772 1063 CURVE SMOOTH",
"675 1063 OFFCURVE",
"583 1033 OFFCURVE",
"493 971 CURVE",
"628 1556 LINE",
"235 1556 LINE"
);
},
{
closed = 1;
nodes = (
"870 891 OFFCURVE",
"970 788 OFFCURVE",
"970 618 CURVE SMOOTH",
"970 326 OFFCURVE",
"755 154 OFFCURVE",
"550 154 CURVE SMOOTH",
"430 154 OFFCURVE",
"357 192 OFFCURVE",
"324 236 CURVE",
"450 784 LINE",
"529 850 OFFCURVE",
"631 891 OFFCURVE",
"724 891 CURVE SMOOTH"
);
}
);
width = 1255;
},
{
guideLines = (
{
angle = 90;
position = "{6, 0}";
}
);
layerId = "f6e6aac4-f32e-46b3-99a1-e6d41dab8022";
paths = (
{
closed = 1;
nodes = (
"219 1282 LINE",
"414 1282 LINE",
"73 -197 LINE",
"-100 -197 LINE",
"-164 -471 LINE",
"512 -471 LINE",
"575 -197 LINE",
"413 -197 LINE",
"470 52 LINE",
"523 10 OFFCURVE",
"632 -18 OFFCURVE",
"721 -18 CURVE SMOOTH",
"1077 -18 OFFCURVE",
"1364 238 OFFCURVE",
"1364 604 CURVE SMOOTH",
"1364 858 OFFCURVE",
"1196 1061 OFFCURVE",
"932 1061 CURVE SMOOTH",
"815 1061 OFFCURVE",
"727 1017 OFFCURVE",
"680 963 CURVE",
"817 1556 LINE",
"283 1556 LINE"
);
},
{
closed = 1;
nodes = (
"940 741 OFFCURVE",
"1014 664 OFFCURVE",
"1014 549 CURVE SMOOTH",
"1014 399 OFFCURVE",
"897 279 OFFCURVE",
"752 279 CURVE SMOOTH",
"670 279 OFFCURVE",
"582 316 OFFCURVE",
"547 387 CURVE",
"599 609 LINE",
"656 688 OFFCURVE",
"748 741 OFFCURVE",
"842 741 CURVE SMOOTH"
);
}
);
width = 1343;
}
);
unicode = 00FE;
},
{
color = (153,188,255,255);
glyphname = Thorn;
layers = (
{
anchors = (
{
name = top;
position = "{371, 1516}";
}
);
associatedMasterId = "f6e6aac4-f32e-46b3-99a1-e6d41dab8022";
layerId = "087800cf-c0cd-4c6e-bb98-b375108ebc92";
name = img;
width = 0;
},
{
anchors = (
{
name = top;
position = "{215, 1516}";
}
);
guideLines = (
{
angle = 90;
position = "{-50, 0}";
},
{
angle = 90;
position = "{544, 0}";
},
{
angle = 90;
position = "{247, 0}";
}
);
layerId = "608d70f7-2164-4884-8595-c4dfe8e6ed08";
paths = (
{
closed = 1;
nodes = (
"528 1343 LINE",
"438 953 OFFCURVE",
"348 562 OFFCURVE",
"258 172 CURVE",
"114 172 LINE",
"101 115 OFFCURVE",
"88 57 OFFCURVE",
"75 0 CURVE",
"567 0 LINE",
"580 57 OFFCURVE",
"593 115 OFFCURVE",
"606 172 CURVE",
"467 172 LINE",
"483 244 OFFCURVE",
"500 315 OFFCURVE",
"516 387 CURVE",
"622 387 OFFCURVE",
"727 387 OFFCURVE",
"833 387 CURVE SMOOTH",
"1169 387 OFFCURVE",
"1382 586 OFFCURVE",
"1382 864 CURVE SMOOTH",
"1382 1081 OFFCURVE",
"1212 1208 OFFCURVE",
"976 1208 CURVE SMOOTH",
"704 1208 LINE",
"714 1253 OFFCURVE",
"725 1298 OFFCURVE",
"735 1343 CURVE",
"876 1343 LINE",
"890 1401 OFFCURVE",
"903 1458 OFFCURVE",
"917 1516 CURVE",
"425 1516 LINE",
"412 1458 OFFCURVE",
"398 1401 OFFCURVE",
"385 1343 CURVE"
);
},
{
closed = 1;
nodes = (
"933 1036 LINE",
"1099 1036 OFFCURVE",
"1171 961 OFFCURVE",
"1171 848 CURVE SMOOTH",
"1171 657 OFFCURVE",
"1030 559 OFFCURVE",
"847 559 CURVE SMOOTH",
"815 559 OFFCURVE",
"782 559 OFFCURVE",
"750 559 CURVE SMOOTH",
"556 559 LINE",
"592 718 OFFCURVE",
"629 877 OFFCURVE",
"665 1036 CURVE"
);
}
);
width = 1307;
},
{
anchors = (
{
name = top;
position = "{371, 1516}";
}
);
guideLines = (
{
angle = 90;
position = "{20, 0}";
},
{
angle = 90;
position = "{614, 0}";
},
{
angle = 90;
position = "{317, 0}";
}
);
layerId = "f6e6aac4-f32e-46b3-99a1-e6d41dab8022";
paths = (
{
closed = 1;
nodes = (
"503 1241 LINE",
"429 919 OFFCURVE",
"354 596 OFFCURVE",
"280 274 CURVE",
"125 274 LINE",
"104 183 OFFCURVE",
"82 91 OFFCURVE",
"61 0 CURVE",
"567 0 LINE",
"593 111 OFFCURVE",
"618 221 OFFCURVE",
"644 332 CURVE",
"825 332 LINE",
"825 332 OFFCURVE",
"825 332 OFFCURVE",
"825 332 CURVE",
"873 332 OFFCURVE",
"918 335 OFFCURVE",
"960 340 CURVE SMOOTH",
"1299 381 OFFCURVE",
"1473 580 OFFCURVE",
"1473 809 CURVE SMOOTH",
"1473 1032 OFFCURVE",
"1307 1200 OFFCURVE",
"1030 1200 CURVE SMOOTH",
"845 1200 LINE",
"857 1252 OFFCURVE",
"869 1305 OFFCURVE",
"881 1358 CURVE",
"881 1358 LINE",
"893 1411 OFFCURVE",
"906 1463 OFFCURVE",
"918 1516 CURVE",
"393 1516 LINE",
"372 1424 OFFCURVE",
"351 1333 OFFCURVE",
"330 1241 CURVE"
);
},
{
closed = 1;
nodes = (
"903 926 LINE",
"1044 926 OFFCURVE",
"1106 874 OFFCURVE",
"1106 791 CURVE SMOOTH",
"1106 683 OFFCURVE",
"1038 624 OFFCURVE",
"915 607 CURVE SMOOTH",
"890 604 OFFCURVE",
"863 602 OFFCURVE",
"834 602 CURVE SMOOTH",
"706 602 LINE",
"731 710 OFFCURVE",
"756 818 OFFCURVE",
"781 926 CURVE"
);
}
);
width = 1370;
}
);
unicode = 00DE;
},
{
color = (153,188,255,255);
glyphname = onesuperior;
layers = (
{
layerId = "608d70f7-2164-4884-8595-c4dfe8e6ed08";
paths = (
{
closed = 1;
nodes = (
"75 840 LINE",
"378 840 LINE",
"405 956 LINE",
"324 956 LINE",
"466 1579 LINE",
"405 1579 LINE",
"161 1460 LINE",
"126 1317 LINE",
"287 1392 LINE",
"184 956 LINE",
"100 956 LINE"
);
}
);
width = 486;
},
{
layerId = "f6e6aac4-f32e-46b3-99a1-e6d41dab8022";
paths = (
{
closed = 1;
nodes = (
"184 840 LINE",
"645 840 LINE",
"690 1034 LINE",
"569 1034 LINE",
"694 1577 LINE",
"582 1577 LINE",
"313 1450 LINE",
"260 1217 LINE",
"417 1284 LINE",
"360 1034 LINE",
"229 1034 LINE"
);
}
);
width = 715;
}
);
unicode = 00B9;
},
{
color = (153,188,255,255);
glyphname = twosuperior;
layers = (
{
layerId = "608d70f7-2164-4884-8595-c4dfe8e6ed08";
paths = (
{
closed = 1;
nodes = (
"-27 842 LINE",
"460 842 LINE",
"489 963 LINE",
"205 963 LINE",
"483 1188 LINE SMOOTH",
"565 1257 OFFCURVE",
"589 1317 OFFCURVE",
"589 1389 CURVE SMOOTH",
"589 1495 OFFCURVE",
"489 1579 OFFCURVE",
"366 1579 CURVE SMOOTH",
"231 1579 OFFCURVE",
"120 1489 OFFCURVE",
"88 1350 CURVE",
"212 1350 LINE",
"229 1413 OFFCURVE",
"284 1458 OFFCURVE",
"354 1458 CURVE SMOOTH",
"415 1458 OFFCURVE",
"452 1421 OFFCURVE",
"452 1378 CURVE SMOOTH",
"452 1317 OFFCURVE",
"405 1278 OFFCURVE",
"333 1221 CURVE SMOOTH",
"-5 944 LINE"
);
}
);
width = 609;
},
{
layerId = "f6e6aac4-f32e-46b3-99a1-e6d41dab8022";
paths = (
{
closed = 1;
nodes = (
"205 842 LINE",
"778 842 LINE",
"825 1047 LINE",
"576 1047 LINE",
"766 1180 LINE SMOOTH",
"850 1239 OFFCURVE",
"901 1284 OFFCURVE",
"901 1389 CURVE SMOOTH",
"901 1518 OFFCURVE",
"782 1579 OFFCURVE",
"666 1579 CURVE SMOOTH",
"496 1579 OFFCURVE",
"346 1493 OFFCURVE",
"305 1303 CURVE",
"530 1303 LINE",
"535 1319 OFFCURVE",
"549 1366 OFFCURVE",
"602 1366 CURVE SMOOTH",
"631 1366 OFFCURVE",
"645 1352 OFFCURVE",
"645 1333 CURVE SMOOTH",
"645 1315 OFFCURVE",
"633 1278 OFFCURVE",
"565 1235 CURVE SMOOTH",
"250 1034 LINE"
);
}
);
width = 860;
}
);
unicode = 00B2;
},
{
color = (153,188,255,255);
glyphname = threesuperior;
layers = (
{
layerId = "608d70f7-2164-4884-8595-c4dfe8e6ed08";
paths = (
{
closed = 1;
nodes = (
"471 1319 OFFCURVE",
"411 1268 OFFCURVE",
"325 1268 CURVE SMOOTH",
"270 1268 LINE",
"245 1161 LINE",
"303 1161 LINE SMOOTH",
"368 1161 OFFCURVE",
"409 1130 OFFCURVE",
"409 1075 CURVE SMOOTH",
"409 1001 OFFCURVE",
"337 952 OFFCURVE",
"258 952 CURVE SMOOTH",
"186 952 OFFCURVE",
"147 987 OFFCURVE",
"151 1051 CURVE",
"18 1051 LINE",
"-7 913 OFFCURVE",
"116 831 OFFCURVE",
"245 831 CURVE SMOOTH",
"415 831 OFFCURVE",
"546 942 OFFCURVE",
"546 1087 CURVE SMOOTH",
"546 1145 OFFCURVE",
"511 1194 OFFCURVE",
"471 1215 CURVE",
"558 1251 OFFCURVE",
"602 1309 OFFCURVE",
"602 1386 CURVE SMOOTH",
"602 1493 OFFCURVE",
"518 1581 OFFCURVE",
"382 1581 CURVE SMOOTH",
"239 1581 OFFCURVE",
"129 1491 OFFCURVE",
"96 1364 CURVE",
"233 1364 LINE",
"247 1427 OFFCURVE",
"307 1462 OFFCURVE",
"370 1462 CURVE SMOOTH",
"432 1462 OFFCURVE",
"471 1423 OFFCURVE",
"471 1376 CURVE SMOOTH"
);
}
);
width = 622;
},
{
layerId = "f6e6aac4-f32e-46b3-99a1-e6d41dab8022";
paths = (
{
closed = 1;
nodes = (
"580 1321 OFFCURVE",
"567 1270 OFFCURVE",
"520 1270 CURVE SMOOTH",
"408 1270 LINE",
"377 1137 LINE",
"479 1137 LINE SMOOTH",
"524 1137 OFFCURVE",
"537 1116 OFFCURVE",
"537 1096 CURVE SMOOTH",
"537 1065 OFFCURVE",
"500 1020 OFFCURVE",
"449 1020 CURVE SMOOTH",
"399 1020 OFFCURVE",
"383 1063 OFFCURVE",
"391 1102 CURVE",
"172 1102 LINE",
"137 950 OFFCURVE",
"215 834 OFFCURVE",
"412 834 CURVE SMOOTH",
"602 834 OFFCURVE",
"770 973 OFFCURVE",
"770 1114 CURVE SMOOTH",
"770 1155 OFFCURVE",
"757 1200 OFFCURVE",
"737 1221 CURVE",
"772 1251 OFFCURVE",
"817 1303 OFFCURVE",
"817 1380 CURVE SMOOTH",
"817 1493 OFFCURVE",
"717 1581 OFFCURVE",
"586 1581 CURVE SMOOTH",
"391 1581 OFFCURVE",
"266 1464 OFFCURVE",
"238 1311 CURVE",
"457 1311 LINE",
"469 1364 OFFCURVE",
"502 1382 OFFCURVE",
"541 1382 CURVE SMOOTH",
"569 1382 OFFCURVE",
"580 1364 OFFCURVE",
"580 1343 CURVE SMOOTH"
);
}
);
width = 797;
}
);
unicode = 00B3;
},
{
color = (153,188,255,255);
glyphname = ordmasculine;
layers = (
{
anchors = (
{
name = bottom;
position = "{305, -440}";
},
{
name = top;
position = "{303, 831}";
}
);
guideLines = (
{
position = "{0, 346}";
},
{
position = "{0, 864}";
},
{
position = "{0, 1659}";
},
{
angle = 90;
position = "{-197, 0}";
},
{
angle = 90;
position = "{-275, 0}";
},
{
angle = 90;
position = "{-275, 0}";
}
);
layerId = "608d70f7-2164-4884-8595-c4dfe8e6ed08";
paths = (
{
closed = 1;
nodes = (
"75 989 OFFCURVE",
"210 848 OFFCURVE",
"395 848 CURVE SMOOTH",
"643 848 OFFCURVE",
"827 1026 OFFCURVE",
"827 1272 CURVE SMOOTH",
"827 1440 OFFCURVE",
"690 1571 OFFCURVE",
"507 1571 CURVE SMOOTH",
"276 1571 OFFCURVE",
"75 1395 OFFCURVE",
"75 1153 CURVE SMOOTH"
);
},
{
closed = 1;
nodes = (
"231 1331 OFFCURVE",
"356 1436 OFFCURVE",
"495 1436 CURVE SMOOTH",
"595 1436 OFFCURVE",
"673 1368 OFFCURVE",
"673 1260 CURVE SMOOTH",
"673 1092 OFFCURVE",
"548 981 OFFCURVE",
"405 981 CURVE SMOOTH",
"307 981 OFFCURVE",
"231 1061 OFFCURVE",
"231 1163 CURVE SMOOTH"
);
}
);
width = 772;
},
{
anchors = (
{
name = bottom;
position = "{424, -440}";
},
{
name = top;
position = "{422, 831}";
}
);
guideLines = (
{
position = "{0, 350}";
},
{
position = "{0, 961}";
},
{
position = "{0, 1659}";
},
{
angle = 90;
position = "{-102, 0}";
},
{
angle = 90;
position = "{-137, 0}";
},
{
angle = 90;
position = "{-137, 0}";
}
);
layerId = "f6e6aac4-f32e-46b3-99a1-e6d41dab8022";
paths = (
{
closed = 1;
nodes = (
"205 987 OFFCURVE",
"344 842 OFFCURVE",
"541 842 CURVE SMOOTH",
"799 842 OFFCURVE",
"987 1030 OFFCURVE",
"987 1255 CURVE SMOOTH",
"987 1421 OFFCURVE",
"846 1577 OFFCURVE",
"651 1577 CURVE SMOOTH",
"395 1577 OFFCURVE",
"205 1399 OFFCURVE",
"205 1167 CURVE SMOOTH"
);
},
{
closed = 1;
nodes = (
"444 1274 OFFCURVE",
"526 1348 OFFCURVE",
"625 1348 CURVE SMOOTH",
"698 1348 OFFCURVE",
"745 1300 OFFCURVE",
"745 1235 CURVE SMOOTH",
"745 1149 OFFCURVE",
"668 1069 OFFCURVE",
"569 1069 CURVE SMOOTH",
"489 1069 OFFCURVE",
"444 1120 OFFCURVE",
"444 1186 CURVE SMOOTH"
);
}
);
width = 823;
}
);
unicode = 00BA;
},
{
color = (153,188,255,255);
glyphname = ordfeminine;
layers = (
{
layerId = "608d70f7-2164-4884-8595-c4dfe8e6ed08";
paths = (
{
closed = 1;
nodes = (
"755 856 LINE",
"765 900 OFFCURVE",
"774 943 OFFCURVE",
"784 987 CURVE",
"703 987 LINE",
"732 1109 OFFCURVE",
"766 1252 OFFCURVE",
"779 1324 CURVE SMOOTH",
"782 1342 OFFCURVE",
"784 1356 OFFCURVE",
"784 1364 CURVE SMOOTH",
"784 1493 OFFCURVE",
"684 1550 OFFCURVE",
"540 1550 CURVE SMOOTH",
"444 1550 OFFCURVE",
"344 1522 OFFCURVE",
"262 1473 CURVE",
"271 1441 OFFCURVE",
"279 1408 OFFCURVE",
"288 1376 CURVE",
"342 1403 OFFCURVE",
"417 1423 OFFCURVE",
"503 1423 CURVE SMOOTH",
"595 1423 OFFCURVE",
"649 1384 OFFCURVE",
"628 1294 CURVE",
"624 1278 OFFCURVE",
"620 1261 OFFCURVE",
"616 1245 CURVE",
"577 1253 OFFCURVE",
"524 1260 OFFCURVE",
"462 1260 CURVE SMOOTH",
"299 1260 OFFCURVE",
"116 1202 OFFCURVE",
"116 1018 CURVE SMOOTH",
"116 920 OFFCURVE",
"208 838 OFFCURVE",
"342 838 CURVE SMOOTH",
"425 838 OFFCURVE",
"483 861 OFFCURVE",
"540 908 CURVE",
"536 891 OFFCURVE",
"532 873 OFFCURVE",
"528 856 CURVE"
);
},
{
closed = 1;
nodes = (
"305 954 OFFCURVE",
"262 983 OFFCURVE",
"262 1034 CURVE SMOOTH",
"262 1112 OFFCURVE",
"345 1157 OFFCURVE",
"440 1157 CURVE SMOOTH",
"596 1157 LINE",
"586 1112 OFFCURVE",
"575 1066 OFFCURVE",
"565 1021 CURVE",
"520 980 OFFCURVE",
"448 954 OFFCURVE",
"374 954 CURVE SMOOTH"
);
}
);
width = 834;
},
{
layerId = "f6e6aac4-f32e-46b3-99a1-e6d41dab8022";
paths = (
{
closed = 1;
nodes = (
"965 842 LINE",
"981 912 OFFCURVE",
"996 983 OFFCURVE",
"1012 1053 CURVE",
"917 1053 LINE",
"946 1162 OFFCURVE",
"973 1274 OFFCURVE",
"973 1348 CURVE SMOOTH",
"973 1374 OFFCURVE",
"970 1397 OFFCURVE",
"963 1418 CURVE SMOOTH",
"929 1523 OFFCURVE",
"814 1567 OFFCURVE",
"682 1567 CURVE SMOOTH",
"559 1567 OFFCURVE",
"442 1530 OFFCURVE",
"328 1460 CURVE",
"341 1414 OFFCURVE",
"354 1369 OFFCURVE",
"367 1323 CURVE",
"442 1358 OFFCURVE",
"512 1372 OFFCURVE",
"596 1372 CURVE SMOOTH",
"688 1372 OFFCURVE",
"743 1337 OFFCURVE",
"729 1272 CURVE",
"729 1271 OFFCURVE",
"728 1269 OFFCURVE",
"728 1268 CURVE",
"679 1277 OFFCURVE",
"619 1284 OFFCURVE",
"551 1284 CURVE SMOOTH",
"348 1284 OFFCURVE",
"205 1190 OFFCURVE",
"205 1038 CURVE SMOOTH",
"205 928 OFFCURVE",
"293 825 OFFCURVE",
"444 825 CURVE SMOOTH",
"527 825 OFFCURVE",
"591 853 OFFCURVE",
"644 891 CURVE",
"640 875 OFFCURVE",
"637 858 OFFCURVE",
"633 842 CURVE"
);
},
{
closed = 1;
nodes = (
"455 999 OFFCURVE",
"432 1030 OFFCURVE",
"432 1057 CURVE SMOOTH",
"432 1113 OFFCURVE",
"489 1122 OFFCURVE",
"554 1122 CURVE SMOOTH",
"696 1122 LINE",
"690 1095 OFFCURVE",
"685 1069 OFFCURVE",
"679 1042 CURVE",
"634 1013 OFFCURVE",
"578 999 OFFCURVE",
"516 999 CURVE SMOOTH"
);
}
);
width = 1032;
}
);
unicode = 00AA;
},
{
color = (153,188,255,255);
glyphname = currency;
layers = (
{
layerId = "608d70f7-2164-4884-8595-c4dfe8e6ed08";
paths = (
{
closed = 1;
nodes = (
"235 614 OFFCURVE",
"251 551 OFFCURVE",
"280 496 CURVE",
"75 317 LINE",
"188 184 LINE",
"394 364 LINE",
"455 320 OFFCURVE",
"530 295 OFFCURVE",
"612 295 CURVE SMOOTH",
"699 295 OFFCURVE",
"786 318 OFFCURVE",
"864 358 CURVE",
"987 186 LINE",
"1134 299 LINE",
"1013 468 LINE",
"1101 558 OFFCURVE",
"1157 676 OFFCURVE",
"1157 807 CURVE SMOOTH",
"1157 874 OFFCURVE",
"1140 937 OFFCURVE",
"1110 993 CURVE",
"1298 1159 LINE",
"1185 1290 LINE",
"995 1124 LINE",
"934 1167 OFFCURVE",
"860 1192 OFFCURVE",
"778 1192 CURVE SMOOTH",
"696 1192 OFFCURVE",
"614 1171 OFFCURVE",
"540 1135 CURVE",
"407 1325 LINE",
"264 1208 LINE",
"390 1031 LINE",
"296 940 OFFCURVE",
"235 817 OFFCURVE",
"235 680 CURVE SMOOTH"
);
},
{
closed = 1;
nodes = (
"411 874 OFFCURVE",
"585 1028 OFFCURVE",
"763 1028 CURVE SMOOTH",
"897 1028 OFFCURVE",
"987 928 OFFCURVE",
"987 801 CURVE SMOOTH",
"987 621 OFFCURVE",
"811 467 OFFCURVE",
"634 467 CURVE SMOOTH",
"499 467 OFFCURVE",
"411 567 OFFCURVE",
"411 694 CURVE SMOOTH"
);
}
);
width = 1305;
},
{
layerId = "f6e6aac4-f32e-46b3-99a1-e6d41dab8022";
paths = (
{
closed = 1;
nodes = (
"270 607 OFFCURVE",
"279 554 OFFCURVE",
"297 505 CURVE",
"61 299 LINE",
"274 53 LINE",
"508 256 LINE",
"570 222 OFFCURVE",
"642 203 OFFCURVE",
"719 203 CURVE SMOOTH",
"793 203 OFFCURVE",
"866 216 OFFCURVE",
"935 240 CURVE",
"1075 41 LINE",
"1378 268 LINE",
"1245 459 LINE",
"1326 561 OFFCURVE",
"1376 686 OFFCURVE",
"1376 821 CURVE SMOOTH",
"1376 877 OFFCURVE",
"1365 932 OFFCURVE",
"1346 983 CURVE",
"1599 1204 LINE",
"1386 1452 LINE",
"1132 1229 LINE",
"1071 1261 OFFCURVE",
"1001 1280 OFFCURVE",
"926 1280 CURVE SMOOTH",
"851 1280 OFFCURVE",
"777 1266 OFFCURVE",
"708 1241 CURVE",
"559 1458 LINE",
"256 1229 LINE",
"398 1021 LINE",
"319 920 OFFCURVE",
"270 796 OFFCURVE",
"270 662 CURVE SMOOTH"
);
},
{
closed = 1;
nodes = (
"563 856 OFFCURVE",
"719 995 OFFCURVE",
"881 995 CURVE SMOOTH",
"999 995 OFFCURVE",
"1081 907 OFFCURVE",
"1081 791 CURVE SMOOTH",
"1081 629 OFFCURVE",
"924 492 OFFCURVE",
"764 492 CURVE SMOOTH",
"643 492 OFFCURVE",
"563 580 OFFCURVE",
"563 694 CURVE SMOOTH"
);
}
);
width = 1497;
}
);
unicode = 00A4;
},
{
color = (153,188,255,255);
glyphname = logicalnot;
layers = (
{
layerId = "608d70f7-2164-4884-8595-c4dfe8e6ed08";
paths = (
{
closed = 1;
nodes = (
"180 999 LINE",
"141 827 LINE",
"1046 827 LINE",
"954 432 LINE",
"1142 432 LINE",
"1273 999 LINE"
);
}
);
width = 1382;
},
{
layerId = "f6e6aac4-f32e-46b3-99a1-e6d41dab8022";
paths = (
{
closed = 1;
nodes = (
"305 1036 LINE",
"242 762 LINE",
"1430 762 LINE",
"1311 248 LINE",
"1597 248 LINE",
"1780 1036 LINE"
);
}
);
width = 1821;
}
);
unicode = 00AC;
},
{
color = (153,188,255,255);
glyphname = mu;
layers = (
{
layerId = "608d70f7-2164-4884-8595-c4dfe8e6ed08";
paths = (
{
closed = 1;
nodes = (
"112 -471 LINE",
"151 -303 OFFCURVE",
"189 -135 OFFCURVE",
"228 33 CURVE",
"281 0 OFFCURVE",
"351 -18 OFFCURVE",
"425 -18 CURVE SMOOTH",
"511 -18 OFFCURVE",
"632 16 OFFCURVE",
"715 105 CURVE",
"707 70 OFFCURVE",
"700 35 OFFCURVE",
"692 0 CURVE",
"1087 0 LINE",
"1100 57 OFFCURVE",
"1113 115 OFFCURVE",
"1126 172 CURVE",
"924 172 LINE",
"991 460 OFFCURVE",
"1057 748 OFFCURVE",
"1124 1036 CURVE",
"923 1036 LINE",
"866 790 OFFCURVE",
"808 545 OFFCURVE",
"751 299 CURVE",
"685 195 OFFCURVE",
"583 150 OFFCURVE",
"505 150 CURVE SMOOTH",
"385 150 OFFCURVE",
"323 204 OFFCURVE",
"315 318 CURVE",
"312 356 OFFCURVE",
"316 401 OFFCURVE",
"325 453 CURVE",
"370 647 OFFCURVE",
"415 842 OFFCURVE",
"460 1036 CURVE",
"260 1036 LINE",
"213 831 OFFCURVE",
"162 627 OFFCURVE",
"117 422 CURVE SMOOTH",
"117 420 OFFCURVE",
"116 419 OFFCURVE",
"116 417 CURVE SMOOTH",
"48 121 OFFCURVE",
"-21 -175 OFFCURVE",
"-89 -471 CURVE"
);
}
);
width = 1235;
},
{
layerId = "f6e6aac4-f32e-46b3-99a1-e6d41dab8022";
paths = (
{
closed = 1;
nodes = (
"319 -471 LINE",
"355 -314 OFFCURVE",
"391 -158 OFFCURVE",
"427 -1 CURVE",
"459 -8 OFFCURVE",
"493 -12 OFFCURVE",
"528 -12 CURVE SMOOTH",
"642 -12 OFFCURVE",
"727 22 OFFCURVE",
"799 81 CURVE",
"793 54 OFFCURVE",
"786 27 OFFCURVE",
"780 0 CURVE",
"1251 0 LINE",
"1272 91 OFFCURVE",
"1294 183 OFFCURVE",
"1315 274 CURVE",
"1153 274 LINE",
"1212 528 OFFCURVE",
"1270 782 OFFCURVE",
"1329 1036 CURVE",
"1010 1036 LINE",
"957 809 OFFCURVE",
"905 582 OFFCURVE",
"852 355 CURVE",
"803 300 OFFCURVE",
"737 264 OFFCURVE",
"672 264 CURVE SMOOTH",
"572 264 OFFCURVE",
"511 329 OFFCURVE",
"528 435 CURVE",
"528 435 OFFCURVE",
"528 435 OFFCURVE",
"528 435 CURVE",
"575 635 OFFCURVE",
"621 836 OFFCURVE",
"668 1036 CURVE",
"348 1036 LINE",
"300 830 OFFCURVE",
"253 624 OFFCURVE",
"205 418 CURVE SMOOTH",
"204 413 OFFCURVE",
"202 407 OFFCURVE",
"201 402 CURVE SMOOTH",
"134 111 OFFCURVE",
"67 -180 OFFCURVE",
"0 -471 CURVE"
);
}
);
width = 1348;
}
);
unicode = 00B5;
},
{
color = (153,188,255,255);
glyphname = exclamdown;
layers = (
{
components = (
{
alignment = -1;
name = dotaccent;
transform = "{1, 0, 0, 1, 115, -465}";
}
);
layerId = "608d70f7-2164-4884-8595-c4dfe8e6ed08";
paths = (
{
closed = 1;
nodes = (
"524 639 LINE",
"346 639 LINE",
"34 -528 LINE",
"294 -528 LINE"
);
}
);
width = 924;
},
{
components = (
{
alignment = -1;
name = dotaccent;
transform = "{-1, 0, 0, -1, 948, 2259}";
}
);
layerId = "f6e6aac4-f32e-46b3-99a1-e6d41dab8022";
paths = (
{
closed = 1;
nodes = (
"764 518 LINE",
"471 518 LINE",
"184 -543 LINE",
"559 -543 LINE"
);
}
);
width = 948;
}
);
unicode = 00A1;
},
